<svg width="59" height="61" viewBox="0 0 59 61" fill="none" xmlns="http://www.w3.org/2000/svg">
<mask id="mask0_268_26" style="mask-type:luminance" maskUnits="userSpaceOnUse" x="0" y="0" width="59" height="31">
<path d="M0 30.3047H59V0.000219345H0V30.3047Z" fill="white"/>
</mask>
<g mask="url(#mask0_268_26)">
<path d="M59 30.0566C59 29.8711 59 29.7044 59 29.5203C59 13.2121 45.785 0.011631 29.5 0.011631C13.2164 0.011631 0 13.231 0 29.5203C0 29.7044 0 29.8711 0 30.0566C0.278302 14.0079 13.3831 1.0828 29.5 1.0828C45.6183 1.0828 58.7231 14.0079 59 30.0566Z" fill="#DC433A"/>
</g>
<mask id="mask1_268_26" style="mask-type:luminance" maskUnits="userSpaceOnUse" x="0" y="0" width="59" height="61">
<path d="M0 60.1133H59V0.990067H0V60.1133Z" fill="white"/>
</mask>
<g mask="url(#mask1_268_26)">
<path d="M59 30.5909C59 30.4068 59 30.2401 59 30.056C58.7231 14.0073 45.6183 1.08221 29.5 1.08221C13.3831 1.08221 0.295696 14.0073 0 30.056C0 30.2401 0 30.4068 0 30.5909C0 46.8803 13.2164 60.0996 29.5 60.0996C45.8039 60.0996 59 46.8803 59 30.5909Z" fill="#EB4F45"/>
</g>
<path d="M34.3254 29.7782L46.7461 18.1678V17.3532L41.9584 12.5656L29.5189 24.9717L17.0982 12.5467L12.3105 17.3358V18.149L24.7312 29.7594L12.3105 42.2033V43.0164L17.0982 47.0098L29.5189 34.5862L41.9396 47.0098L46.7272 43.0164V42.2033L34.3254 29.7782Z" fill="#E9E8E8"/>
<path d="M34.3254 30.5744L46.7461 18.1494L41.9584 13.3603L29.5377 25.7853L17.1171 13.3603L12.3294 18.1494L24.7501 30.5744L12.3105 42.9994L17.0982 47.7871L29.5189 35.3621L41.9396 47.7871L46.7272 42.9994L34.3254 30.5744Z" fill="white"/>
</svg>
