<svg width="185" height="104" viewBox="0 0 185 104" fill="none" xmlns="http://www.w3.org/2000/svg">
<path d="M52.4367 24.9506C51.6681 25.0358 50.8818 25.0224 50.0779 24.9104C49.2725 24.7851 48.5341 24.5987 47.8627 24.3512C47.7345 25.1301 47.6276 25.9804 47.542 26.9022C47.4565 27.8239 47.3915 28.8104 47.3472 29.8617C47.2837 30.62 47.1916 31.1198 47.0708 31.3613C46.9501 31.6028 46.777 31.736 46.5517 31.761C46.3265 31.786 46.1358 31.6998 45.9797 31.5025C45.8222 31.2919 45.7097 30.8818 45.642 30.2722C45.6288 30.1529 45.6311 29.871 45.6488 29.4263C45.6665 28.9816 45.6931 28.4354 45.7286 27.7875C45.7758 27.1249 45.8245 26.4152 45.8747 25.6584C45.9235 24.8883 45.9722 24.1183 46.0209 23.3482C45.6646 23.0389 45.4696 22.7319 45.4358 22.4271C45.4196 22.2813 45.4439 22.1378 45.5087 21.9964C45.5721 21.8418 45.7296 21.7506 45.9814 21.7227C46.0212 21.7182 46.0683 21.7197 46.1228 21.7271C46.1803 20.9158 46.2209 20.1936 46.2446 19.5604C46.2801 18.9126 46.289 18.4488 46.2714 18.169C46.2449 17.689 46.3009 17.3474 46.4394 17.1442C46.5764 16.9278 46.7509 16.8078 46.9629 16.7843C47.1352 16.7652 47.2824 16.8227 47.4046 16.9567C47.5253 17.0774 47.6158 17.4095 47.6761 17.9528C47.7143 18.2974 47.7393 18.7641 47.7509 19.3531C48.2533 17.9559 48.8247 16.94 49.4654 16.3055C50.1192 15.6695 50.8835 15.303 51.7581 15.206C52.5532 15.1178 53.26 15.2607 53.8783 15.6348C54.4952 15.9957 54.9994 16.5501 55.3909 17.2982C55.7825 18.0462 56.037 18.9503 56.1547 20.0105C56.3208 21.508 56.0806 22.6682 55.4341 23.4912C54.7875 24.3141 53.7884 24.8006 52.4367 24.9506ZM48.1965 22.644C48.7324 22.8797 49.3258 23.0889 49.9766 23.2716C50.6259 23.441 51.2818 23.489 51.9444 23.4155C53.0178 23.2964 53.7733 22.9711 54.2107 22.4397C54.6598 21.8935 54.8241 21.077 54.7036 19.9904C54.5639 18.7314 54.2659 17.859 53.8095 17.373C53.3532 16.887 52.7804 16.6822 52.0913 16.7587C51.3095 16.8454 50.5761 17.3695 49.8913 18.3309C49.205 19.279 48.64 20.7167 48.1965 22.644ZM65.971 30.5122C65.6397 30.5489 65.3578 30.4863 65.1252 30.3243C64.9073 30.1741 64.7866 29.9929 64.763 29.7809C64.7366 29.5424 64.7499 29.3598 64.8029 29.2332C64.8677 29.0918 65.0231 28.9807 65.269 28.8997C65.8756 28.6849 66.4993 28.4413 67.1398 28.169C67.7921 27.882 68.3974 27.5935 68.9554 27.3035C69.5121 27.0003 69.9568 26.7162 70.2896 26.4512C70.6357 26.1848 70.7991 25.9654 70.78 25.7931C70.7624 25.6341 70.5997 25.4979 70.292 25.3845C69.9828 25.2578 69.5926 25.1267 69.1215 24.9911C68.6503 24.8556 68.1439 24.7038 67.602 24.5359C67.0602 24.3679 66.5478 24.1632 66.0649 23.9216C65.582 23.6801 65.1742 23.3899 64.8415 23.0512C64.5073 22.6992 64.313 22.2781 64.2586 21.7878C64.1734 21.0192 64.2795 20.283 64.5771 19.5792C64.8864 18.8607 65.3142 18.1827 65.8606 17.5453C66.407 16.9078 67.0182 16.3101 67.6941 15.7522C68.3818 15.1795 69.0629 14.668 69.7373 14.2175C70.4236 13.7524 71.0354 13.3424 71.5729 12.9876C71.7467 12.861 71.9175 12.7683 72.0854 12.7094C72.2532 12.6506 72.4034 12.6138 72.5359 12.5991C72.9203 12.5564 73.2081 12.6117 73.3995 12.7649C73.5909 12.918 73.6991 13.1073 73.7241 13.3325C73.7446 13.5181 73.6695 13.7478 73.4987 14.0216C73.3263 14.2822 73.0649 14.5258 72.7145 14.7525C72.364 14.9792 71.9303 15.1212 71.4135 15.1786L71.2545 15.1962C70.8304 15.4847 70.3717 15.824 69.8783 16.2141C69.385 16.6043 68.902 17.0268 68.4293 17.4817C67.9565 17.9366 67.525 18.4003 67.1348 18.8729C66.7563 19.3307 66.4558 19.7665 66.2334 20.1802C66.0243 20.5925 65.9373 20.9576 65.9726 21.2757C66.0153 21.66 66.1993 21.9884 66.5246 22.2608C66.85 22.5333 67.2512 22.7638 67.7282 22.9523C68.2185 23.1394 68.7279 23.3176 69.2565 23.4871C69.7983 23.655 70.3077 23.8333 70.7848 24.0218C71.2736 24.1956 71.6792 24.4055 72.0016 24.6515C72.3226 24.8842 72.5029 25.1794 72.5426 25.5372C72.5881 25.948 72.4857 26.3552 72.2354 26.7586C71.9982 27.1605 71.6654 27.5462 71.2369 27.9157C70.8069 28.272 70.3275 28.6069 69.7989 28.9204C69.282 29.2192 68.7681 29.4841 68.2571 29.7152C67.7461 29.9463 67.2838 30.1318 66.87 30.2716C66.4695 30.4099 66.1698 30.4901 65.971 30.5122ZM81.9643 28.7379C81.633 28.7746 81.3511 28.712 81.1185 28.55C80.9006 28.3998 80.7799 28.2187 80.7563 28.0066C80.7299 27.7681 80.7432 27.5855 80.7962 27.4589C80.861 27.3176 81.0164 27.2064 81.2623 27.1255C81.8689 26.9106 82.4925 26.667 83.1331 26.3947C83.7854 26.1077 84.3906 25.8192 84.9487 25.5293C85.5054 25.226 85.9501 24.9419 86.2829 24.677C86.629 24.4105 86.7924 24.1911 86.7733 24.0189C86.7557 23.8598 86.593 23.7236 86.2853 23.6102C85.9761 23.4835 85.5859 23.3524 85.1148 23.2169C84.6436 23.0813 84.1371 22.9296 83.5953 22.7616C83.0535 22.5937 82.5411 22.3889 82.0582 22.1474C81.5753 21.9058 81.1675 21.6157 80.8348 21.2769C80.5006 20.925 80.3063 20.5038 80.2519 20.0135C80.1667 19.2449 80.2728 18.5087 80.5703 17.8049C80.8797 17.0864 81.3075 16.4085 81.8539 15.771C82.4003 15.1335 83.0114 14.5358 83.6874 13.9779C84.3751 13.4053 85.0562 12.8937 85.7306 12.4433C86.4169 11.9781 87.0287 11.5681 87.5662 11.2134C87.74 11.0868 87.9108 10.994 88.0787 10.9352C88.2465 10.8763 88.3967 10.8395 88.5292 10.8248C88.9135 10.7822 89.2014 10.8374 89.3928 10.9906C89.5842 11.1438 89.6924 11.333 89.7174 11.5583C89.7379 11.7438 89.6628 11.9735 89.492 12.2473C89.3196 12.5079 89.0582 12.7516 88.7078 12.9783C88.3573 13.2049 87.9236 13.347 87.4068 13.4043L87.2478 13.4219C86.8237 13.7105 86.365 14.0498 85.8716 14.4399C85.3783 14.83 84.8953 15.2525 84.4226 15.7074C83.9498 16.1623 83.5183 16.626 83.1281 17.0986C82.7496 17.5565 82.4491 17.9922 82.2267 18.406C82.0176 18.8182 81.9306 19.1833 81.9659 19.5014C82.0085 19.8857 82.1925 20.2141 82.5179 20.4865C82.8433 20.759 83.2445 20.9895 83.7215 21.178C84.2118 21.3651 84.7212 21.5434 85.2498 21.7128C85.7916 21.8807 86.301 22.059 86.778 22.2475C87.2669 22.4214 87.6725 22.6313 87.9949 22.8772C88.3158 23.1099 88.4962 23.4052 88.5359 23.763C88.5814 24.1738 88.479 24.5809 88.2287 24.9843C87.9915 25.3862 87.6587 25.7719 87.2302 26.1414C86.8001 26.4977 86.3208 26.8326 85.7922 27.1461C85.2753 27.4449 84.7614 27.7099 84.2504 27.941C83.7394 28.172 83.2771 28.3575 82.8633 28.4973C82.4628 28.6356 82.1631 28.7158 81.9643 28.7379ZM97.9576 26.9636C97.6263 27.0004 97.3444 26.9378 97.1117 26.7757C96.8939 26.6255 96.7731 26.4444 96.7496 26.2324C96.7232 25.9938 96.7364 25.8112 96.7895 25.6846C96.8543 25.5433 97.0096 25.4321 97.2555 25.3512C97.8622 25.1363 98.4858 24.8928 99.1264 24.6205C99.7787 24.3335 100.384 24.045 100.942 23.755C101.499 23.4518 101.943 23.1677 102.276 22.9027C102.622 22.6362 102.786 22.4169 102.767 22.2446C102.749 22.0856 102.586 21.9494 102.279 21.8359C101.969 21.7092 101.579 21.5781 101.108 21.4426C100.637 21.307 100.13 21.1553 99.5886 20.9873C99.0468 20.8194 98.5344 20.6146 98.0515 20.3731C97.5686 20.1315 97.1608 19.8414 96.8281 19.5027C96.4939 19.1507 96.2996 18.7296 96.2452 18.2392C96.1599 17.4706 96.2661 16.7344 96.5636 16.0307C96.873 15.3122 97.3008 14.6342 97.8472 13.9967C98.3936 13.3593 99.0047 12.7616 99.6807 12.2036C100.368 11.631 101.049 11.1194 101.724 10.669C102.41 10.2038 103.022 9.79386 103.559 9.4391C103.733 9.3125 103.904 9.21977 104.072 9.1609C104.24 9.10203 104.39 9.06524 104.523 9.05054C104.907 9.00791 105.195 9.06317 105.386 9.21634C105.577 9.3695 105.686 9.55873 105.711 9.78401C105.731 9.96954 105.656 10.1992 105.485 10.4731C105.313 10.7337 105.052 10.9773 104.701 11.204C104.351 11.4307 103.917 11.5727 103.4 11.63L103.241 11.6477C102.817 11.9362 102.358 12.2755 101.865 12.6656C101.372 13.0557 100.889 13.4782 100.416 13.9331C99.9431 14.388 99.5116 14.8518 99.1213 15.3243C98.7429 15.7822 98.4424 16.218 98.22 16.6317C98.0108 17.0439 97.9239 17.4091 97.9592 17.7271C98.0018 18.1114 98.1858 18.4398 98.5112 18.7123C98.8365 18.9847 99.2377 19.2152 99.7148 19.4038C100.205 19.5909 100.714 19.7691 101.243 19.9385C101.785 20.1065 102.294 20.2847 102.771 20.4733C103.26 20.6471 103.666 20.857 103.988 21.1029C104.309 21.3356 104.489 21.6309 104.529 21.9887C104.575 22.3995 104.472 22.8066 104.222 23.21C103.985 23.612 103.652 23.9977 103.223 24.3672C102.793 24.7234 102.314 25.0583 101.785 25.3719C101.269 25.6707 100.755 25.9356 100.244 26.1667C99.7327 26.3978 99.2703 26.5832 98.8566 26.723C98.456 26.8614 98.1564 26.9416 97.9576 26.9636ZM113.218 11.7079C112.675 11.7682 112.288 11.7843 112.057 11.7563C111.824 11.715 111.675 11.6443 111.611 11.5442C111.559 11.4426 111.527 11.3388 111.516 11.2328C111.499 11.087 111.558 10.9464 111.69 10.811C111.835 10.6608 112.141 10.5195 112.609 10.3871C113.204 10.1869 113.905 9.975 114.712 9.75133C115.53 9.51294 116.404 9.28192 117.331 9.05827C118.258 8.82137 119.185 8.59772 120.114 8.38732C121.057 8.17546 121.956 7.99524 122.811 7.84667C123.678 7.68338 124.45 7.56424 125.126 7.48927C126.027 7.3893 126.645 7.40118 126.981 7.52492C127.33 7.64719 127.515 7.80109 127.535 7.98662C127.554 8.1589 127.479 8.32821 127.31 8.49457C127.154 8.65945 126.864 8.76542 126.44 8.81246C126.267 8.83157 125.874 8.91543 125.26 9.06404C124.645 9.1994 123.893 9.3767 123.005 9.59594C122.129 9.80045 121.201 10.0241 120.222 10.2669C120.206 10.7248 120.173 11.3322 120.123 12.089C120.071 12.8326 120.007 13.6512 119.932 14.545C119.87 15.4372 119.802 16.3369 119.728 17.2439C119.667 18.1361 119.605 18.968 119.543 19.7396C119.494 20.5097 119.45 21.145 119.412 21.6456C119.374 22.1462 119.353 22.4437 119.35 22.5379C119.342 22.9546 119.258 23.2792 119.096 23.5119C118.946 23.7297 118.764 23.8505 118.552 23.874C118.301 23.9019 118.077 23.8194 117.881 23.6265C117.697 23.4188 117.574 23.0367 117.512 22.4801C117.492 22.2946 117.492 21.9324 117.513 21.3935C117.532 20.8413 117.566 20.1869 117.617 19.43C117.667 18.6732 117.725 17.8686 117.792 17.016C117.858 16.1635 117.927 15.3309 117.997 14.5181C118.067 13.6921 118.132 12.9471 118.192 12.283C118.251 11.6057 118.293 11.0779 118.318 10.6995C117.285 10.9349 116.309 11.1504 115.392 11.3461C114.486 11.527 113.762 11.6476 113.218 11.7079ZM134.297 17.2978C134.178 17.3111 134.065 17.2632 133.959 17.1542C133.865 17.0305 133.806 16.8627 133.783 16.6506C133.75 16.3591 133.752 15.896 133.789 15.2614C133.838 14.6121 133.909 13.8597 134.002 13.0042C134.106 12.134 134.234 11.2278 134.384 10.2855C134.548 9.34166 134.727 8.41628 134.922 7.5093C135.115 6.58907 135.319 5.76823 135.534 5.04678C135.681 4.56091 135.901 4.3018 136.192 4.26946C136.497 4.23564 136.791 4.35054 137.075 4.61415C137.36 4.87777 137.525 5.2216 137.572 5.64567C137.59 5.80469 137.543 6.11168 137.433 6.56664C137.336 7.02013 137.196 7.57227 137.013 8.22305C136.844 8.87235 136.653 9.57098 136.441 10.3189C136.228 11.0669 136.011 11.8288 135.789 12.6048C135.578 13.366 135.383 14.0852 135.203 14.7625C135.023 15.4398 134.887 16.025 134.794 16.5183C134.734 16.8201 134.669 17.0218 134.6 17.1234C134.53 17.225 134.43 17.2831 134.297 17.2978ZM133.781 23.3516C133.583 23.3737 133.365 23.2838 133.128 23.082C132.891 22.8803 132.734 22.4349 132.657 21.7457C132.615 21.3614 132.709 21.0626 132.94 20.8491C133.17 20.6224 133.484 20.487 133.881 20.4429C134.557 20.3679 134.934 20.6816 135.012 21.3839C135.049 21.7152 135.002 22.0222 134.873 22.3049C134.744 22.6008 134.577 22.8408 134.369 23.0248C134.176 23.2206 133.98 23.3296 133.781 23.3516ZM8.61318 73.8005C8.12285 73.8549 7.67083 73.7709 7.25712 73.5485C6.84194 73.3128 6.49892 73.0021 6.22806 72.6162C5.97045 72.2289 5.8196 71.8365 5.77549 71.439C5.74315 71.1474 5.85954 70.7455 6.12466 70.2331C6.38831 69.7075 6.75799 69.1098 7.2337 68.4399C7.70794 67.7568 8.24476 67.0332 8.84416 66.2691C9.45682 65.5035 10.096 64.735 10.7616 63.9636C11.4008 63.1951 12.0436 62.4597 12.6902 61.7575C13.3352 61.042 13.9331 60.3854 14.4839 59.7877C15.0479 59.1885 15.528 58.6792 15.9242 58.2596C15.1703 58.4774 14.4252 58.7143 13.6889 58.9704C12.9527 59.2265 12.2687 59.47 11.637 59.7011C11.0038 59.9189 10.4612 60.1065 10.0091 60.264C9.55561 60.4082 9.23608 60.4906 9.05055 60.5112C8.79876 60.5392 8.58527 60.4891 8.41007 60.3609C8.23488 60.2328 8.13552 60.0627 8.11199 59.8507C8.09582 59.7049 8.24457 59.5341 8.55822 59.3384C8.87041 59.1293 9.28935 58.9152 9.81505 58.6959C10.3393 58.4633 10.918 58.2381 11.5511 58.0203C12.1829 57.7892 12.8101 57.5788 13.433 57.389C14.0691 57.1977 14.6485 57.0395 15.1713 56.9144C15.7073 56.7879 16.1277 56.7077 16.4324 56.6739C16.8168 56.6312 17.1709 56.7395 17.4947 56.9987C17.8172 57.2447 17.9982 57.5466 18.0379 57.9044C18.0467 57.9839 17.881 58.2437 17.5408 58.6839C17.1992 59.1109 16.7375 59.6652 16.1557 60.3468C15.5858 61.0137 14.9511 61.7616 14.2515 62.5904C13.552 63.4193 12.8414 64.2695 12.1198 65.141C11.4924 65.8948 10.8775 66.6405 10.2752 67.3781C9.6846 68.1009 9.15515 68.77 8.68682 69.3854C8.21701 69.9876 7.84587 70.5117 7.5734 70.9578C7.31271 71.3892 7.19265 71.6976 7.21323 71.8831C7.22646 72.0024 7.28314 72.09 7.38325 72.146C7.49515 72.1872 7.62398 72.1998 7.76976 72.1836C7.98179 72.1601 8.32929 72.088 8.81227 71.9673C9.30702 71.832 9.87982 71.6745 10.5307 71.495C11.18 71.3022 11.8559 71.1065 12.5583 70.9078C13.2607 70.7092 13.924 70.5216 14.5484 70.345C15.1845 70.1537 15.7241 69.9999 16.1674 69.8837C16.6091 69.7542 16.8962 69.6821 17.0288 69.6674C17.5323 69.6115 17.8054 69.7757 17.8481 70.16C17.8731 70.3853 17.7251 70.6231 17.404 70.8733C17.083 71.1236 16.642 71.3804 16.0809 71.6439C15.5317 71.8927 14.9147 72.1355 14.23 72.3724C13.5585 72.6079 12.8716 72.825 12.1692 73.0236C11.4668 73.2223 10.8013 73.39 10.1725 73.5269C9.55702 73.6622 9.03724 73.7534 8.61318 73.8005ZM26.2878 71.9001C26.0758 71.9236 25.8954 71.8698 25.7467 71.7387C25.598 71.6077 25.5031 71.3566 25.4619 70.9855C25.4311 70.7072 25.4672 70.2471 25.5704 69.6052C25.6854 68.9485 25.8482 68.1792 26.0589 67.2972C26.2829 66.4138 26.5348 65.4803 26.8147 64.4968C27.1064 63.4986 27.4121 62.5055 27.7318 61.5175C28.0515 60.5296 28.3726 59.6153 28.6953 58.7746C29.0164 57.9206 29.3184 57.1962 29.6012 56.6014C29.884 56.0066 30.1351 55.6098 30.3545 55.4111C30.6107 55.1815 30.8581 55.0534 31.0967 55.0269C31.2292 55.0122 31.3632 55.0108 31.4986 55.0226C31.6341 55.0344 31.7519 55.0683 31.852 55.1242C32.1067 55.2436 32.3481 55.5454 32.5763 56.0299C32.8162 56.4996 33.0421 57.085 33.254 57.7859C33.4645 58.4735 33.6543 59.2171 33.8235 60.0167C34.0045 60.8015 34.1714 61.5812 34.3244 62.3557C34.7161 62.2586 35.043 62.1821 35.3051 62.1262C35.5672 62.0703 35.7579 62.0357 35.8772 62.0225C36.3277 61.9725 36.6193 62.0005 36.7518 62.1066C36.8843 62.2126 36.966 62.3444 36.9969 62.5019C37.0498 62.7375 37.0071 62.9569 36.8686 63.1601C36.7302 63.3633 36.5204 63.5274 36.2391 63.6525C36.1493 63.6893 35.9556 63.7577 35.6582 63.8578C35.3725 63.9432 35.0287 64.0484 34.6267 64.1735C34.6841 64.5696 34.7319 64.9399 34.7701 65.2844C34.8201 65.6143 34.8583 65.8985 34.8848 66.137C35.0186 67.3429 35.0464 68.2588 34.9682 68.8845C34.8886 69.4971 34.7546 69.9211 34.5661 70.1566C34.3775 70.3922 34.1839 70.521 33.9851 70.5431C33.7466 70.5695 33.5736 70.5216 33.4661 70.3994C33.3572 70.2639 33.288 70.0637 33.2586 69.7986L33.102 68.3873C33.0476 67.897 32.9793 67.3411 32.8969 66.7197C32.8264 66.0836 32.7455 65.4151 32.6543 64.7143C31.8871 64.9335 31.106 65.1476 30.3108 65.3566C29.529 65.564 28.8516 65.7465 28.2788 65.904C28.0711 66.6917 27.895 67.4021 27.7506 68.0352C27.6047 68.6551 27.5097 69.1284 27.4654 69.4553C27.3402 70.14 27.2164 70.6568 27.0941 71.0057C26.9704 71.3414 26.8415 71.5703 26.7075 71.6925C26.5867 71.8132 26.4468 71.8824 26.2878 71.9001ZM28.7584 64.0598C29.4299 63.8244 30.0697 63.6058 30.6778 63.4042C31.2992 63.2011 31.8698 63.0238 32.3896 62.8722C32.2175 61.6839 32.0182 60.5523 31.7916 59.4774C31.5768 58.3878 31.3414 57.5352 31.0853 56.9197C30.882 57.385 30.6486 58.0011 30.3849 58.7682C30.1212 59.5353 29.8464 60.3841 29.5606 61.3146C29.2866 62.2304 29.0192 63.1455 28.7584 64.0598ZM45.197 56.0183C44.5741 56.0874 44.1552 56.06 43.9403 55.9363C43.7253 55.8126 43.6053 55.6381 43.5803 55.4128C43.5612 55.2405 43.6422 55.0639 43.8234 54.8828C44.0163 54.687 44.2747 54.5376 44.5987 54.4346C44.9874 54.311 45.4491 54.1792 45.9836 54.0395C46.5299 53.8849 47.0975 53.7415 47.6865 53.6091C48.2873 53.4619 48.8637 53.3376 49.4159 53.2361C49.9813 53.1331 50.4761 53.0581 50.9002 53.0111C51.5245 52.9552 51.9816 53.0253 52.2717 53.2211C52.575 53.4155 52.7369 53.6055 52.7575 53.791C52.7722 53.9236 52.7272 54.0627 52.6227 54.2085C52.5166 54.341 52.3112 54.4241 52.0064 54.4579C51.8076 54.48 51.5316 54.5307 51.1782 54.6102C50.838 54.6882 50.453 54.7845 50.023 54.8993C50.0568 55.3248 50.0699 55.9271 50.0625 56.706C50.0667 57.4702 50.0371 58.3521 49.9737 59.3519C49.9087 60.3384 49.7966 61.3838 49.6374 62.4881C49.49 63.5777 49.2822 64.6672 49.014 65.7568C48.7576 66.8316 48.4276 67.8475 48.024 68.8045C47.6322 69.7468 47.1528 70.5646 46.5858 71.258C46.032 71.95 45.3834 72.4512 44.6397 72.7618C44.4336 72.8383 44.2657 72.8972 44.1361 72.9384C44.0065 72.9796 43.8556 73.0098 43.6833 73.0289C43.5508 73.0436 43.3808 72.9618 43.1732 72.7836C42.9656 72.6054 42.8376 72.2977 42.789 71.8604C42.7538 71.5423 42.8642 71.3288 43.1205 71.2199C43.9966 70.8947 44.7381 70.3831 45.3448 69.6853C45.9648 68.986 46.47 68.0378 46.8604 66.8408C47.2626 65.6291 47.5581 64.1207 47.7468 62.3155C47.9489 60.5089 48.0634 58.3363 48.0903 55.7979C48.0888 55.6639 48.1007 55.5284 48.1257 55.3915C47.5514 55.5357 47.0029 55.6703 46.4802 55.7954C45.956 55.9072 45.5283 55.9815 45.197 56.0183ZM61.5526 67.3439C61.3671 67.3645 61.189 67.3306 61.0182 67.2422C60.8606 67.1524 60.7245 66.9528 60.6097 66.6436C60.4934 66.3211 60.4 65.8418 60.3294 65.2057C60.1824 63.8805 60.1628 62.5546 60.2705 61.228C60.3782 59.9014 60.6007 58.6425 60.9381 57.4513C61.274 56.247 61.7115 55.1722 62.2506 54.227C62.8015 53.267 63.4399 52.4919 64.1659 51.9016C64.9051 51.3098 65.7187 50.9647 66.6066 50.8662C67.574 50.7589 68.3691 50.9725 68.9918 51.5071C69.6131 52.0284 69.984 52.8324 70.1046 53.9191C70.2163 54.9263 70.024 55.7927 69.5277 56.5186C69.0446 57.2429 68.3061 57.6602 67.3122 57.7705C67.1399 57.7896 66.9529 57.7969 66.7512 57.7925C66.548 57.7748 66.3367 57.7445 66.1173 57.7018C67.0757 58.9638 68.0141 60.047 68.9328 60.9512C69.8514 61.8554 70.7723 62.6588 71.6954 63.3613C72.6302 64.0491 73.5754 64.7089 74.5309 65.3407C74.6767 65.4453 74.7893 65.5535 74.8688 65.6654C74.9468 65.7641 74.9939 65.8863 75.0101 66.0321C75.0351 66.2574 75.0004 66.4289 74.9062 66.5467C74.8252 66.663 74.6323 66.738 74.3275 66.7718C73.9962 66.8086 73.5692 66.7084 73.0465 66.4713C72.5371 66.2326 71.9695 65.8931 71.3438 65.4528C70.7181 65.0124 70.0784 64.5065 69.4248 63.9351C68.7711 63.3637 68.1344 62.7636 67.5146 62.1348C66.9066 61.4912 66.3538 60.8617 65.8563 60.2461C65.3572 59.6173 64.9502 59.0319 64.6352 58.49C64.3334 57.9467 64.1605 57.4762 64.1164 57.0786C64.087 56.8136 64.1305 56.6008 64.2468 56.4404C64.3617 56.2666 64.5318 56.1673 64.7571 56.1423C65.0486 56.1099 65.3181 56.1203 65.5654 56.1733C65.826 56.2249 66.0955 56.2353 66.3738 56.2044C67.1026 56.1235 67.6585 55.8741 68.0414 55.456C68.4361 55.0231 68.5849 54.3694 68.4879 53.4948C68.4026 52.7262 67.8432 52.3992 66.8095 52.5139C66.0939 52.5932 65.4364 52.9546 64.837 53.598C64.2362 54.228 63.7155 55.0974 63.2751 56.2061C62.8479 57.3133 62.537 58.6222 62.3424 60.1329C62.1463 61.6303 62.0952 63.286 62.1891 65.1001C62.2317 65.7258 62.2235 66.1963 62.1646 66.5114C62.1189 66.825 62.0423 67.0414 61.9348 67.1607C61.839 67.2652 61.7117 67.3263 61.5526 67.3439ZM83.3601 65.5082C82.8698 65.5626 82.4177 65.4786 82.004 65.2562C81.5888 65.0205 81.2458 64.7098 80.975 64.324C80.7174 63.9367 80.5665 63.5442 80.5224 63.1467C80.4901 62.8551 80.6064 62.4532 80.8716 61.9408C81.1352 61.4152 81.5049 60.8175 81.9806 60.1476C82.4548 59.4645 82.9917 58.7409 83.5911 57.9768C84.2037 57.2112 84.8429 56.4428 85.5086 55.6713C86.1477 54.9028 86.7906 54.1675 87.4371 53.4652C88.0821 52.7497 88.68 52.0931 89.2308 51.4954C89.7948 50.8963 90.2749 50.3869 90.6711 49.9673C89.9172 50.1851 89.1721 50.422 88.4358 50.6781C87.6996 50.9342 87.0156 51.1778 86.3839 51.4088C85.7507 51.6266 85.2081 51.8143 84.756 51.9717C84.3025 52.116 83.983 52.1984 83.7975 52.2189C83.5457 52.2469 83.3322 52.1968 83.157 52.0686C82.9818 51.9405 82.8824 51.7704 82.8589 51.5584C82.8427 51.4126 82.9915 51.2418 83.3051 51.0461C83.6173 50.837 84.0363 50.6229 84.562 50.4036C85.0862 50.171 85.6649 49.9458 86.2981 49.728C86.9298 49.497 87.557 49.2865 88.1799 49.0967C88.816 48.9054 89.3955 48.7472 89.9182 48.6221C90.4542 48.4956 90.8746 48.4154 91.1794 48.3816C91.5637 48.339 91.9178 48.4472 92.2417 48.7065C92.5641 48.9524 92.7451 49.2543 92.7848 49.6121C92.7936 49.6916 92.6279 49.9514 92.2877 50.3916C91.9461 50.8186 91.4844 51.3729 90.9026 52.0545C90.3327 52.7214 89.698 53.4693 88.9984 54.2981C88.2989 55.127 87.5883 55.9772 86.8667 56.8488C86.2393 57.6025 85.6244 58.3482 85.0221 59.0858C84.4315 59.8086 83.9021 60.4778 83.4337 61.0932C82.9639 61.6953 82.5928 62.2194 82.3203 62.6655C82.0596 63.0969 81.9396 63.4053 81.9601 63.5909C81.9734 63.7101 82.03 63.7977 82.1302 63.8537C82.2421 63.895 82.3709 63.9075 82.5167 63.8913C82.7287 63.8678 83.0762 63.7957 83.5592 63.6751C84.0539 63.5397 84.6267 63.3822 85.2776 63.2027C85.9269 63.0099 86.6028 62.8142 87.3052 62.6156C88.0076 62.4169 88.6709 62.2293 89.2953 62.0527C89.9314 61.8614 90.4711 61.7076 90.9143 61.5914C91.356 61.4619 91.6432 61.3898 91.7757 61.3751C92.2793 61.3192 92.5524 61.4834 92.595 61.8677C92.62 62.093 92.472 62.3308 92.1509 62.5811C91.8299 62.8313 91.3889 63.0882 90.8278 63.3516C90.2786 63.6004 89.6616 63.8432 88.9769 64.0802C88.3054 64.3156 87.6185 64.5327 86.9161 64.7314C86.2137 64.93 85.5482 65.0978 84.9194 65.2346C84.3039 65.3699 83.7841 65.4611 83.3601 65.5082ZM107.596 64.5299C107.305 64.5622 107.03 64.4451 106.773 64.1786C106.528 63.9106 106.372 63.4651 106.302 62.8423C106.263 62.4845 106.426 61.4199 106.793 59.6487C107.172 57.8627 107.772 55.4083 108.592 52.2854C108.171 53.0834 107.714 53.8585 107.22 54.6109C106.726 55.3499 106.204 55.9712 105.656 56.4747C105.122 56.9767 104.576 57.2586 104.02 57.3203C103.132 57.4188 102.413 57.2236 101.862 56.7347C101.323 56.231 100.99 55.4027 100.862 54.2498C100.712 52.8981 100.672 51.6951 100.743 50.6409C100.827 49.5851 100.956 48.7525 101.13 48.143C101.317 47.5319 101.484 47.2183 101.629 47.2022C101.828 47.1801 102.065 47.2545 102.338 47.4254C102.624 47.5815 102.788 47.8517 102.831 48.236C102.872 48.6071 102.845 49.1467 102.749 49.8549C102.665 50.5484 102.585 51.342 102.51 52.2358C102.435 53.1295 102.449 54.0469 102.554 54.9877C102.584 55.266 102.668 55.4715 102.803 55.604C102.937 55.7233 103.097 55.7726 103.282 55.7521C103.773 55.6977 104.27 55.468 104.775 55.0632C105.28 54.6584 105.767 54.1483 106.236 53.5329C106.702 52.9042 107.144 52.2248 107.559 51.4945C107.974 50.7643 108.344 50.0458 108.668 49.3391C109.004 48.6177 109.28 47.9632 109.497 47.3758C109.773 46.6072 109.992 46.1 110.153 45.8541C110.325 45.5936 110.517 45.4515 110.729 45.428C110.968 45.4015 111.2 45.4965 111.425 45.713C111.649 45.9162 111.771 46.1106 111.791 46.2962C111.812 46.4817 111.716 46.8881 111.504 47.5153C111.292 48.1425 111.027 49.0171 110.709 50.139C110.389 51.2477 110.088 52.6427 109.805 54.3242C109.46 56.415 109.173 58.1237 108.945 59.4503C108.729 60.7754 108.541 61.8024 108.381 62.5312C108.235 63.2718 108.097 63.7835 107.968 64.0661C107.853 64.3606 107.729 64.5152 107.596 64.5299ZM121.672 47.5343C121.049 47.6034 120.63 47.5761 120.415 47.4524C120.2 47.3287 120.08 47.1542 120.055 46.9289C120.036 46.7566 120.117 46.5799 120.298 46.3988C120.491 46.203 120.749 46.0536 121.073 45.9506C121.462 45.827 121.924 45.6953 122.458 45.5555C123.004 45.401 123.572 45.2575 124.161 45.1251C124.762 44.978 125.338 44.8537 125.89 44.7522C126.456 44.6492 126.951 44.5742 127.375 44.5271C127.999 44.4713 128.456 44.5413 128.746 44.7372C129.05 44.9316 129.211 45.1216 129.232 45.3071C129.247 45.4396 129.202 45.5788 129.097 45.7245C128.991 45.857 128.786 45.9402 128.481 45.974C128.282 45.996 128.006 46.0468 127.653 46.1262C127.313 46.2042 126.928 46.3006 126.498 46.4154C126.531 46.8409 126.545 47.4431 126.537 48.222C126.541 48.9862 126.512 49.8682 126.448 50.868C126.383 51.8545 126.271 52.8999 126.112 54.0042C125.965 55.0937 125.757 56.1833 125.489 57.2728C125.232 58.3476 124.902 59.3636 124.499 60.3206C124.107 61.2628 123.627 62.0807 123.06 62.7741C122.507 63.466 121.858 63.9673 121.114 64.2778C120.908 64.3544 120.74 64.4132 120.611 64.4545C120.481 64.4957 120.33 64.5258 120.158 64.5449C120.025 64.5596 119.855 64.4779 119.648 64.2997C119.44 64.1215 119.312 63.8137 119.264 63.3764C119.228 63.0584 119.339 62.8449 119.595 62.736C120.471 62.4107 121.213 61.8992 121.819 61.2013C122.439 60.5021 122.945 59.5539 123.335 58.3569C123.737 57.1452 124.033 55.6367 124.221 53.8316C124.423 52.0249 124.538 49.8524 124.565 47.3139C124.563 47.18 124.575 47.0445 124.6 46.9076C124.026 47.0518 123.478 47.1864 122.955 47.3115C122.431 47.4233 122.003 47.4976 121.672 47.5343ZM155.816 50.7088C155.048 50.7941 154.261 50.7807 153.457 50.6687C152.652 50.5434 151.914 50.357 151.242 50.1095C151.114 50.8884 151.007 51.7387 150.922 52.6604C150.836 53.5821 150.771 54.5687 150.727 55.62C150.663 56.3782 150.571 56.8781 150.45 57.1196C150.33 57.361 150.156 57.4942 149.931 57.5192C149.706 57.5442 149.515 57.4581 149.359 57.2607C149.202 57.0501 149.089 56.6401 149.022 56.0305C149.008 55.9112 149.011 55.6292 149.028 55.1846C149.046 54.7399 149.073 54.1936 149.108 53.5458C149.155 52.8832 149.204 52.1735 149.254 51.4167C149.303 50.6466 149.352 49.8765 149.4 49.1065C149.044 48.7972 148.849 48.4902 148.815 48.1854C148.799 48.0396 148.823 47.896 148.888 47.7547C148.952 47.6001 149.109 47.5088 149.361 47.4809C149.401 47.4765 149.448 47.478 149.502 47.4854C149.56 46.6741 149.6 45.9518 149.624 45.3187C149.66 44.6709 149.668 44.207 149.651 43.9273C149.624 43.4473 149.68 43.1057 149.819 42.9025C149.956 42.6861 150.13 42.5661 150.342 42.5426C150.515 42.5235 150.662 42.5809 150.784 42.7149C150.905 42.8357 150.995 43.1677 151.056 43.7111C151.094 44.0556 151.119 44.5224 151.13 45.1114C151.633 43.7141 152.204 42.6982 152.845 42.0637C153.499 41.4278 154.263 41.0613 155.138 40.9642C155.933 40.876 156.639 41.019 157.258 41.3931C157.875 41.7539 158.379 42.3084 158.77 43.0564C159.162 43.8045 159.417 44.7086 159.534 45.7688C159.7 47.2662 159.46 48.4265 158.814 49.2494C158.167 50.0724 157.168 50.5589 155.816 50.7088ZM151.576 48.4023C152.112 48.638 152.705 48.8472 153.356 49.0298C154.005 49.1993 154.661 49.2473 155.324 49.1737C156.397 49.0547 157.153 48.7294 157.59 48.1979C158.039 47.6517 158.204 46.8353 158.083 45.7486C157.943 44.4897 157.645 43.6172 157.189 43.1312C156.733 42.6453 156.16 42.4405 155.471 42.517C154.689 42.6037 153.956 43.1278 153.271 44.0891C152.584 45.0372 152.02 46.475 151.576 48.4023ZM172.856 55.5797C171.902 55.6856 171.031 55.5139 170.243 55.0647C169.469 54.614 168.825 53.9476 168.311 53.0655C167.81 52.182 167.494 51.1439 167.362 49.9512C167.293 49.3283 167.318 48.7085 167.437 48.0915C167.568 47.4599 167.75 46.8629 167.983 46.3004C168.214 45.7247 168.459 45.208 168.716 44.7501C168.593 44.6028 168.513 44.3635 168.476 44.0322C168.439 43.7009 168.537 43.3145 168.77 42.8728C169.002 42.4311 169.343 41.9909 169.79 41.5522C170.238 41.1135 170.773 40.7322 171.394 40.4084C172.015 40.0846 172.691 39.8822 173.419 39.8014C174.625 39.6676 175.674 39.8128 176.567 40.237C177.459 40.6612 178.164 41.2738 178.682 42.0749C179.212 42.8613 179.532 43.7514 179.643 44.7453C179.801 46.1766 179.722 47.5201 179.405 48.776C179.089 50.032 178.596 51.1531 177.927 52.1395C177.272 53.1245 176.502 53.9209 175.617 54.5289C174.743 55.1221 173.823 55.4724 172.856 55.5797ZM171.14 42.8312C171.2 42.8916 171.234 42.9549 171.241 43.0212C171.251 43.1139 171.229 43.2104 171.173 43.3105C171.13 43.4091 171.075 43.5225 171.009 43.6506C170.793 43.9966 170.567 44.4441 170.333 44.9933C170.112 45.541 169.91 46.1403 169.728 46.791C169.558 47.4403 169.431 48.1051 169.345 48.7854C169.258 49.4524 169.248 50.084 169.314 50.6804C169.427 51.7008 169.751 52.5033 170.285 53.0879C170.818 53.6593 171.542 53.8943 172.456 53.7929C173.145 53.7164 173.783 53.478 174.369 53.0776C174.968 52.6757 175.496 52.1678 175.951 51.5539C176.418 50.9253 176.805 50.2451 177.113 49.5133C177.419 48.7683 177.637 48.013 177.767 47.2474C177.897 46.4818 177.924 45.761 177.849 45.0852C177.771 44.3828 177.559 43.7423 177.213 43.1635C176.867 42.5848 176.409 42.1393 175.838 41.8271C175.266 41.5148 174.603 41.4006 173.848 41.4844C173.212 41.555 172.673 41.722 172.233 41.9855C171.805 42.2343 171.44 42.5162 171.14 42.8312ZM48.6344 97.7738C48.3031 97.8106 47.9887 97.7583 47.6913 97.6169C47.3954 97.4887 47.1171 97.2177 46.8566 96.804C46.5946 96.3769 46.3591 95.7658 46.1501 94.9707C45.953 94.1608 45.7816 93.0999 45.6361 91.7879C45.614 91.5892 45.592 91.3904 45.5699 91.1916C45.5464 90.9796 45.5295 90.7668 45.5192 90.5533C45.2511 91.4014 44.9329 92.2214 44.5647 93.0135C44.2097 93.8042 43.8186 94.5116 43.3915 95.1358C42.9777 95.7586 42.544 96.2628 42.0904 96.6485C41.6501 97.0328 41.2113 97.2491 40.7739 97.2976C39.9921 97.3844 39.3229 97.1568 38.7664 96.6148C38.2232 96.0714 37.8759 95.1172 37.7244 93.7523C37.6347 92.9439 37.5988 92.0759 37.6167 91.1483C37.6477 90.2192 37.7208 89.3056 37.8358 88.4074C37.9508 87.5092 38.0879 86.6891 38.247 85.9471C38.4194 85.2035 38.608 84.6057 38.8127 84.1537C39.0175 83.7018 39.2192 83.4647 39.418 83.4427C39.7493 83.4059 40.004 83.4649 40.1822 83.6195C40.3721 83.7594 40.4817 83.9619 40.5111 84.2269C40.5317 84.4125 40.4978 84.7717 40.4094 85.3047C40.3209 85.8377 40.2111 86.4804 40.0799 87.2328C39.9473 87.9719 39.8139 88.7648 39.6798 89.6114C39.5589 90.4566 39.4704 91.2914 39.4143 92.116C39.3567 92.9273 39.3647 93.6642 39.4382 94.3268C39.5132 95.0027 39.8224 95.3105 40.3657 95.2502C41.0018 95.1796 41.568 94.8418 42.0643 94.2367C42.5591 93.6184 42.9944 92.8255 43.37 91.8582C43.7456 90.8909 44.0698 89.822 44.3424 88.6515C44.6267 87.4662 44.8692 86.2655 45.0696 85.0493C45.0431 84.9315 45.0218 84.7997 45.0056 84.654C44.9895 84.5082 44.9689 84.3227 44.9439 84.0974C44.9115 83.8058 44.9565 83.4856 45.0788 83.1366C45.2128 82.773 45.3852 82.452 45.5958 82.1738C45.8064 81.8955 46.0309 81.7432 46.2695 81.7167C46.72 81.6667 46.9806 81.9598 47.0512 82.5959C47.0688 82.7549 47.0577 83.0177 47.0179 83.3843C46.9913 83.7495 46.9625 84.2759 46.9315 84.9635C46.9137 85.6496 46.9261 86.5471 46.9686 87.6558C47.0244 88.7631 47.1441 90.145 47.3279 91.8015C47.4837 93.2062 47.6661 94.1854 47.8751 94.7391C48.0959 95.278 48.3587 95.5306 48.6635 95.4968C49.061 95.4526 49.4196 95.1781 49.7392 94.6731C50.0721 94.1667 50.3578 93.4776 50.5965 92.606C50.8485 91.7329 51.0452 90.725 51.1867 89.5825C51.3401 88.4252 51.4434 87.1795 51.4966 85.8455C51.5616 84.4968 51.5751 83.1068 51.5371 81.6756C51.5386 81.0852 51.6182 80.6538 51.7758 80.3814C51.9334 80.109 52.1116 79.9618 52.3104 79.9398C52.4296 79.9265 52.5658 79.945 52.719 79.9951C52.8839 80.0304 53.0296 80.135 53.1562 80.3088C53.2828 80.4825 53.3682 80.7682 53.4123 81.1658C53.6401 83.2198 53.695 85.1053 53.577 86.8221C53.4707 88.5242 53.2436 90.0452 52.8959 91.385C52.5467 92.7116 52.1291 93.8446 51.643 94.7839C51.1555 95.7099 50.6452 96.4306 50.1121 96.9459C49.5908 97.4464 49.0982 97.7224 48.6344 97.7738ZM69.7384 96.9016C69.4469 96.9339 69.1723 96.8168 68.9147 96.5502C68.6703 96.2822 68.5136 95.8368 68.4445 95.2139C68.4048 94.8561 68.5684 93.7916 68.9353 92.0203C69.3141 90.2344 69.9137 87.7799 70.7344 84.6571C70.3132 85.4551 69.8558 86.2302 69.3625 86.9825C68.8676 87.7216 68.3463 88.3429 67.7984 88.8463C67.2639 89.3484 66.7183 89.6302 66.1617 89.692C65.2738 89.7905 64.5546 89.5953 64.004 89.1063C63.4651 88.6027 63.1318 87.7744 63.0039 86.6214C62.8539 85.2697 62.8144 84.0668 62.8852 83.0125C62.9693 81.9568 63.0983 81.1242 63.2722 80.5146C63.4593 79.9036 63.6257 79.59 63.7715 79.5738C63.9703 79.5518 64.2066 79.6262 64.4804 79.797C64.766 79.9531 64.9302 80.2234 64.9728 80.6077C65.014 80.9787 64.9866 81.5184 64.8908 82.2266C64.8067 82.9201 64.7271 83.7137 64.6519 84.6074C64.5766 85.5012 64.5912 86.4185 64.6956 87.3594C64.7264 87.6377 64.8096 87.8431 64.945 87.9757C65.079 88.0949 65.2387 88.1443 65.4243 88.1237C65.9146 88.0693 66.4123 87.8397 66.9174 87.4349C67.4225 87.0301 67.9093 86.5199 68.3776 85.9046C68.8445 85.2759 69.2856 84.5965 69.7009 83.8662C70.1163 83.136 70.486 82.4175 70.81 81.7108C71.1458 80.9893 71.422 80.3349 71.6386 79.7474C71.9155 78.9789 72.1343 78.4717 72.2948 78.2258C72.4671 77.9652 72.6593 77.8232 72.8713 77.7996C73.1099 77.7732 73.3418 77.8682 73.567 78.0847C73.7908 78.2879 73.913 78.4823 73.9335 78.6678C73.9541 78.8533 73.8583 79.2597 73.6462 79.8869C73.4341 80.5141 73.1689 81.3887 72.8507 82.5107C72.5309 83.6193 72.2296 85.0144 71.9466 86.6959C71.6017 88.7866 71.315 90.4953 71.0866 91.8219C70.8714 93.1471 70.6835 94.1741 70.5228 94.9029C70.3769 95.6435 70.2392 96.1551 70.1096 96.4378C69.9947 96.7323 69.871 96.8869 69.7384 96.9016ZM90.8712 93.6919C90.5797 93.7242 90.322 93.6388 90.0982 93.4355C89.8877 93.2308 89.7538 92.87 89.6964 92.3532C89.6773 92.1809 89.6766 91.9932 89.6943 91.79C89.7106 91.5736 89.7599 91.3535 89.8424 91.1297C88.9975 89.5599 88.2638 88.0248 87.6412 86.5243C87.0186 85.0238 86.4542 83.4431 85.948 81.7821C85.621 82.7038 85.3175 83.6564 85.0375 84.6399C84.7694 85.6087 84.5189 86.5554 84.2861 87.4801C84.0533 88.4047 83.847 89.266 83.6673 90.064C83.4875 90.8621 83.3291 91.5504 83.1921 92.129C83.0535 92.8152 82.8908 93.2826 82.7037 93.5314C82.5181 93.7935 82.3127 93.937 82.0874 93.962C81.7826 93.9958 81.5426 93.9487 81.3674 93.8205C81.2055 93.6909 81.1039 93.4406 81.0628 93.0695C81.0319 92.7913 81.057 92.3525 81.1381 91.7532C81.2192 91.154 81.343 90.4561 81.5095 89.6595C81.6893 88.8615 81.8978 88.02 82.135 87.1351C82.3722 86.2503 82.6315 85.383 82.9129 84.5335C83.2075 83.6825 83.5109 82.911 83.8232 82.219C84.134 81.5138 84.4404 80.9499 84.7423 80.5274C85.056 80.0901 85.3586 79.8553 85.6502 79.823C85.955 79.7892 86.22 79.8201 86.4453 79.9159C86.6838 80.0101 86.9635 80.2944 87.2844 80.7685C87.4949 81.094 87.7495 81.5755 88.0483 82.2131C88.3456 82.8375 88.6525 83.548 88.969 84.3446C89.2839 85.128 89.5952 85.9386 89.9028 86.7765C90.2089 87.6011 90.4819 88.369 90.7218 89.0802C90.9799 86.5698 91.2056 84.3715 91.3988 82.4853C91.5905 80.586 91.7343 79.101 91.8302 78.0306C91.9394 76.9587 91.9976 76.3955 92.005 76.341C92.0463 75.9877 92.1089 75.7661 92.1928 75.6763C92.2768 75.5865 92.4049 75.532 92.5772 75.5129C92.8157 75.4864 93.0586 75.5601 93.306 75.7339C93.5651 75.893 93.713 76.1381 93.7498 76.4694C93.7674 76.6285 93.7681 76.9973 93.7518 77.576C93.7488 78.1532 93.7221 78.8805 93.6719 79.7581C93.6335 80.6209 93.5663 81.5875 93.4704 82.658C93.3731 83.7152 93.2477 84.8224 93.0944 85.9797C92.9396 87.1237 92.7509 88.2648 92.5284 89.403C92.3177 90.5264 92.0672 91.5939 91.7769 92.6054C91.6723 92.9926 91.528 93.2635 91.3439 93.4181C91.1745 93.5844 91.017 93.6757 90.8712 93.6919ZM103.668 79.4741C103.099 79.5373 102.705 79.5005 102.489 79.3635C102.286 79.225 102.176 79.0829 102.16 78.9372C102.137 78.7251 102.221 78.5212 102.414 78.3254C102.62 78.1281 102.879 77.9787 103.189 77.8772C103.565 77.755 104.02 77.6241 104.554 77.4843C105.101 77.3298 105.668 77.1863 106.257 77.0539C106.845 76.9082 107.421 76.7839 107.987 76.6809C108.552 76.578 109.047 76.503 109.471 76.4559C110.028 76.3942 110.463 76.4531 110.778 76.6328C111.105 76.7978 111.278 76.9664 111.297 77.1387C111.299 77.1519 111.302 77.1784 111.306 77.2182C111.318 77.3242 111.308 77.4192 111.277 77.5031C111.247 77.587 111.123 77.6812 110.906 77.7858C110.702 77.8755 110.345 77.9888 109.837 78.1257C109.341 78.2478 108.634 78.4001 107.715 78.5825C107.531 78.6164 107.328 78.659 107.105 78.7105C107.092 79.0742 107.065 79.5535 107.023 80.1483C106.982 80.7432 106.935 81.4058 106.882 82.1361C106.828 82.8664 106.771 83.6173 106.709 84.3888C106.645 85.1471 106.578 85.8723 106.508 86.5643C106.45 87.2549 106.397 87.8644 106.348 88.393C106.313 88.9201 106.283 89.3192 106.26 89.5901C106.938 89.4209 107.541 89.2936 108.069 89.2083C108.607 89.1083 108.97 89.048 109.155 89.0274C109.646 88.973 109.911 89.1313 109.952 89.5024C109.964 89.6084 109.756 89.7858 109.327 90.0345C108.899 90.2833 108.345 90.5527 107.666 90.8426C106.987 91.1326 106.281 91.4122 105.546 91.6815C104.939 91.8964 104.335 92.0774 103.735 92.2246C103.147 92.3702 102.721 92.4578 102.456 92.4872C102.164 92.5195 101.953 92.4893 101.822 92.3965C101.692 92.317 101.617 92.1844 101.597 91.9989C101.576 91.8134 101.609 91.622 101.694 91.4247C101.793 91.2259 101.937 91.0758 102.127 90.9742C102.47 90.802 102.854 90.6386 103.28 90.4841C103.704 90.3163 104.136 90.161 104.577 90.0183C104.569 89.952 104.56 89.8725 104.55 89.7797C104.53 89.5942 104.524 89.2394 104.533 88.7152C104.555 88.1895 104.586 87.5623 104.626 86.8334C104.664 86.0913 104.713 85.3213 104.772 84.5232C104.829 83.7119 104.885 82.9411 104.938 82.2108C104.99 81.4673 105.039 80.8246 105.086 80.2827C105.132 79.7276 105.171 79.3544 105.203 79.163C104.877 79.2395 104.582 79.3057 104.32 79.3616C104.058 79.4175 103.841 79.455 103.668 79.4741ZM129.486 88.2006C129.501 88.3331 129.443 88.4737 129.312 88.6224C129.181 88.7711 128.964 88.869 128.66 88.916C128.276 88.9587 127.828 88.8541 127.318 88.6022C126.821 88.3621 126.287 88.0189 125.714 87.5727C125.14 87.1132 124.559 86.5941 123.972 86.0153C123.385 85.4365 122.815 84.8357 122.263 84.2128C121.709 83.5766 121.205 82.9618 120.75 82.3683C120.584 83.7685 120.453 84.9501 120.359 85.9131C120.277 86.8746 120.178 87.61 120.06 88.1195C119.954 88.6142 119.782 88.8748 119.543 88.9012C119.331 88.9248 119.112 88.8216 118.885 88.5919C118.67 88.3474 118.522 87.8608 118.441 87.1319C118.399 86.7476 118.382 86.3537 118.391 85.9503C118.398 85.5336 118.437 85.0396 118.508 84.4683C118.577 83.8838 118.677 83.1483 118.807 82.262C118.648 82.1589 118.542 82.0499 118.489 81.935C118.436 81.8202 118.401 81.6899 118.385 81.5441C118.364 81.3586 118.397 81.1671 118.482 80.9699C118.568 80.7726 118.758 80.6106 119.052 80.4841C119.344 78.8821 119.579 77.6151 119.757 76.6831C119.934 75.7379 120.107 75.0613 120.277 74.6535C120.458 74.2309 120.674 74.0057 120.926 73.9777C121.469 73.9175 121.777 74.212 121.849 74.8614C121.876 75.0999 121.822 75.6425 121.688 76.4891C121.552 77.3225 121.346 78.6064 121.069 80.3408C122.032 79.4693 122.926 78.5853 123.752 77.6887C124.579 76.7922 125.33 75.9442 126.006 75.1448C126.68 74.3321 127.271 73.6093 127.777 72.9762C128.284 72.3431 128.698 71.8411 129.019 71.4701C129.34 71.0991 129.56 70.907 129.679 70.8938C129.905 70.8688 130.098 70.9211 130.26 71.0507C130.435 71.1788 130.533 71.3357 130.554 71.5212C130.579 71.7465 130.51 71.9754 130.348 72.208C130.071 72.6144 129.701 73.1451 129.237 73.8003C128.773 74.4554 128.248 75.1643 127.662 75.9269C127.074 76.6763 126.452 77.4161 125.795 78.1463C125.152 78.875 124.5 79.5309 123.84 80.1138C123.179 80.6835 122.548 81.1023 121.947 81.3702C122.156 81.5617 122.366 81.7597 122.577 81.9644C122.787 82.1691 122.984 82.3687 123.166 82.5631C123.713 83.133 124.329 83.7353 125.017 84.3701C125.718 85.0033 126.421 85.6027 127.128 86.1682C127.833 86.7205 128.467 87.1734 129.029 87.5269C129.306 87.7242 129.459 87.9488 129.486 88.2006ZM139.363 75.5143C138.793 75.5775 138.4 75.5406 138.183 75.4036C137.98 75.2652 137.871 75.1231 137.854 74.9773C137.831 74.7653 137.916 74.5614 138.108 74.3656C138.315 74.1683 138.573 74.0189 138.884 73.9173C139.259 73.7952 139.714 73.6642 140.249 73.5244C140.795 73.3699 141.363 73.2265 141.952 73.094C142.539 72.9484 143.116 72.8241 143.681 72.7211C144.247 72.6181 144.741 72.5431 145.165 72.4961C145.722 72.4343 146.158 72.4933 146.473 72.673C146.8 72.8379 146.973 73.0066 146.992 73.1788C146.993 73.1921 146.996 73.2186 147.001 73.2583C147.012 73.3644 147.003 73.4593 146.972 73.5433C146.941 73.6272 146.817 73.7214 146.601 73.8259C146.396 73.9157 146.04 74.029 145.532 74.1658C145.035 74.288 144.328 74.4402 143.409 74.6227C143.225 74.6565 143.022 74.6992 142.799 74.7507C142.786 75.1143 142.759 75.5936 142.718 76.1885C142.676 76.7833 142.629 77.4459 142.576 78.1762C142.523 78.9065 142.465 79.6574 142.403 80.429C142.34 81.1873 142.273 81.9124 142.202 82.6044C142.144 83.295 142.091 83.9046 142.042 84.4332C142.007 84.9603 141.978 85.3593 141.954 85.6302C142.633 85.461 143.236 85.3338 143.763 85.2484C144.302 85.1484 144.664 85.0881 144.85 85.0675C145.34 85.0131 145.606 85.1715 145.647 85.5425C145.659 85.6485 145.45 85.8259 145.022 86.0747C144.593 86.3235 144.039 86.5928 143.361 86.8828C142.682 87.1727 141.975 87.4524 141.24 87.7217C140.634 87.9365 140.03 88.1176 139.429 88.2647C138.842 88.4104 138.415 88.4979 138.15 88.5273C137.859 88.5596 137.647 88.5294 137.516 88.4366C137.387 88.3571 137.312 88.2246 137.291 88.039C137.271 87.8535 137.303 87.6621 137.388 87.4648C137.487 87.2661 137.631 87.1159 137.821 87.0143C138.164 86.8421 138.549 86.6787 138.974 86.5242C139.398 86.3564 139.831 86.2012 140.271 86.0584C140.264 85.9922 140.255 85.9126 140.244 85.8199C140.224 85.6344 140.218 85.2795 140.227 84.7553C140.249 84.2297 140.28 83.6024 140.32 82.8736C140.358 82.1315 140.407 81.3614 140.466 80.5634C140.524 79.7521 140.579 78.9813 140.632 78.251C140.684 77.5074 140.733 76.8647 140.781 76.3229C140.826 75.7678 140.865 75.3945 140.898 75.2031C140.571 75.2796 140.276 75.3458 140.014 75.4017C139.752 75.4576 139.535 75.4951 139.363 75.5143ZM155.546 80.3392C155.427 80.3525 155.315 80.3046 155.209 80.1956C155.114 80.0719 155.055 79.9041 155.032 79.692C155 79.4005 155.002 78.9374 155.039 78.3028C155.087 77.6535 155.158 76.9011 155.251 76.0456C155.356 75.1754 155.483 74.2692 155.634 73.3269C155.797 72.3831 155.976 71.4577 156.171 70.5507C156.364 69.6305 156.568 68.8096 156.783 68.0882C156.93 67.6023 157.15 67.3432 157.441 67.3109C157.746 67.277 158.041 67.3919 158.325 67.6555C158.609 67.9192 158.775 68.263 158.822 68.6871C158.839 68.8461 158.793 69.1531 158.682 69.608C158.585 70.0615 158.445 70.6137 158.262 71.2644C158.093 71.9137 157.902 72.6124 157.69 73.3603C157.478 74.1083 157.26 74.8702 157.038 75.6462C156.827 76.4074 156.632 77.1266 156.452 77.8039C156.273 78.4812 156.136 79.0664 156.043 79.5597C155.983 79.8615 155.918 80.0632 155.849 80.1648C155.78 80.2664 155.679 80.3245 155.546 80.3392ZM155.031 86.393C154.832 86.4151 154.614 86.3252 154.377 86.1234C154.14 85.9217 153.983 85.4762 153.907 84.7871C153.864 84.4028 153.958 84.1039 154.19 83.8905C154.419 83.6638 154.733 83.5284 155.131 83.4843C155.806 83.4093 156.183 83.723 156.261 84.4253C156.298 84.7566 156.252 85.0636 156.122 85.3463C155.994 85.6422 155.826 85.8822 155.618 86.0662C155.425 86.262 155.23 86.371 155.031 86.393Z" fill="black"/>
</svg>
