<svg width="295" height="134" viewBox="0 0 295 134" fill="none" xmlns="http://www.w3.org/2000/svg">
<mask id="mask0_519_2400" style="mask-type:luminance" maskUnits="userSpaceOnUse" x="-1" y="0" width="296" height="134">
<path d="M285.018 0L-0.000271747 47.7507L9.37914 133.089L294.397 85.3382L285.018 0Z" fill="white"/>
</mask>
<g mask="url(#mask0_519_2400)">
<path d="M281.422 3.21256C281.597 3.40768 281.647 3.64466 281.576 3.91755C282.23 4.53877 283.49 3.76386 283.857 5.04411C286.021 6.81148 285.525 9.07154 284.606 11.3814C282.025 17.8383 278.547 23.7406 274.738 29.4321C261.096 49.7855 244.282 66.233 224.722 79.6898C190.581 103.201 153.624 111.851 114.531 109.714C96.4056 108.726 78.8862 104.29 61.5858 98.9606C51.4161 95.8251 41.4765 92.0297 31.436 88.4967C31.1288 88.1931 30.8363 87.8924 30.5338 87.5881C30.0592 87.6415 29.5217 87.5593 29.1599 87.8078C29.1599 87.8078 29.1599 87.8078 29.1515 87.8196C28.866 88.0189 29.1195 88.4462 29.48 88.579C31.7691 92.3144 34.7144 95.3761 37.8127 98.2555C39.9374 100.233 41.8583 102.323 43.1573 105.05C47.7567 109.259 48.4687 114.47 45.3559 119.633C33.5467 116.793 25.5955 108.227 18.185 98.7666C15.4299 95.2502 12.4545 91.9586 9.53069 88.6115C2.52003 80.6033 3.96292 81.3169 6.38028 72.4496C6.91585 70.4596 7.86307 68.6304 8.97647 66.9143C9.38266 66.2824 9.81316 65.7405 10.5444 65.6179C11.2744 63.3866 13.0602 63.0665 14.813 62.8407C20.016 62.1831 25.2169 61.5937 30.4244 60.977C31.4385 60.1493 32.5879 60.1604 33.7431 60.2226C34.7285 59.3528 35.8943 59.3819 37.0393 59.352C37.6499 58.6128 38.525 58.7063 39.2904 58.458C49.6343 55.091 59.523 50.5109 68.7242 44.1352C69.416 43.6539 70.1387 43.2353 70.8486 42.7875C71.688 42.2501 72.6385 41.6314 73.44 42.4107C74.0486 43.0083 74.0334 44.269 73.6284 44.9111C71.8439 47.7785 71.9151 51.3112 70.4056 54.2317C69.7368 55.5341 68.6457 56.4477 67.5205 57.3566C58.8821 64.3949 49.3898 69.6082 39.4153 73.8008C38.5238 74.1694 37.5645 74.4032 36.7704 74.9591C35.8474 75.6097 36.2202 76.466 36.7982 77.1783C37.8491 76.8613 38.6546 77.1962 39.2515 78.1246C40.2507 78.0355 41.2264 78.0391 41.8498 79.078C42.0811 78.9087 42.2505 78.9638 42.3517 79.2288C43.305 79.1161 44.2003 79.1749 44.8207 80.0994C45.4826 80.1764 46.1627 80.1564 46.7898 80.3542C53.6914 82.5181 60.5493 84.8094 67.4749 86.8858C73.7599 88.7719 80.0936 90.4463 86.4075 92.2023C88.1344 92.4402 89.8682 92.6092 91.57 92.9244C108.167 95.8758 124.907 96.5898 141.789 94.5655C147.82 93.837 153.829 92.9085 159.843 92.068C160.909 91.1847 162.109 91.2655 163.316 91.3191C164.316 90.4469 165.461 90.5056 166.614 90.5474C167.509 89.6405 168.604 89.7754 169.674 89.7162C170.217 89.0614 170.89 88.98 171.613 89.1303C171.824 88.9071 172.059 88.8573 172.323 88.9905C172.936 88.2718 173.799 88.3413 174.553 88.074C178.259 86.7328 182.145 86.1182 185.724 84.2813C186.092 84.5643 187.21 84.5544 185.933 85.3897C185.087 85.9543 185.067 86.2551 185.339 86.455C185.574 86.6296 186.027 86.726 186.367 86.8466C197.97 82.2193 208.967 76.1379 219.633 69.2818C220.571 68.5453 221.519 67.8123 222.456 67.0757C228.061 62.686 233.681 58.2991 239.286 53.9197C239.374 53.6231 239.524 53.4101 239.725 53.272C239.868 53.175 240.019 53.113 240.203 53.0822C240.343 52.6046 240.65 52.3391 241.099 52.2743C241.228 51.7829 241.535 51.5174 241.996 51.4664C242.113 50.9612 242.421 50.7008 242.89 50.6431C243.008 50.143 243.303 49.8586 243.774 49.8162C243.881 49.3024 244.178 49.0282 244.649 48.9859L244.657 48.974C244.756 48.472 245.046 48.1884 245.508 48.1476L245.53 48.1334C245.791 47.8391 246.072 47.5571 246.371 47.2983L246.401 47.2672C246.495 46.7711 246.767 46.4855 247.237 46.4329L247.267 46.4017C247.366 45.9048 247.638 45.6243 248.107 45.5666L248.138 45.5406C248.221 45.0307 248.507 44.7478 248.977 44.6952L248.994 44.6767C249.083 44.1711 249.364 43.8891 249.833 43.8313L249.846 43.8187C249.939 43.3072 250.219 43.0149 250.692 42.9461C253.151 40.0963 255.6 37.2479 258.06 34.4032C259.755 33.3414 260.805 31.5784 262.032 30.0156C261.954 29.7937 261.835 29.6257 261.704 29.4806C261.492 29.2603 261.242 29.1247 260.91 29.076C261.72 27.7969 262.451 26.4476 263.736 25.6321C264.15 25.4217 264.52 25.1614 264.786 24.7409C264.443 25.0332 264.097 25.3366 263.736 25.6321C263.925 25.1671 264.148 24.7538 264.658 24.752C264.702 23.9771 265.091 23.4525 265.698 23.069C265.72 22.5694 265.923 22.2326 266.397 22.1271C266.539 21.6334 266.755 21.2319 267.248 21.0917C267.283 20.8405 267.38 20.6311 267.605 20.4891C268.197 19.0953 269.021 17.8974 270.104 16.9069C270.569 15.9414 271.014 14.9637 271.886 14.3321C271.98 13.6116 272.463 13.1548 272.895 12.67C274.732 8.88027 277.185 5.45189 278.428 1.11425C279.49 2.15804 281.019 1.69297 281.422 3.21256ZM42.3089 80.1078C42.3184 80.1062 42.3184 80.1062 42.3325 80.1038C42.3336 80.1141 42.3195 80.1164 42.3195 80.1164C42.3336 80.1141 42.342 80.1022 42.342 80.1022L42.3325 80.1038C42.3308 80.0884 42.3297 80.0782 42.338 80.0663C42.3156 80.0806 42.3167 80.0908 42.3089 80.1078ZM250.312 46.6119C250.258 46.694 250.2 46.7717 250.146 46.8537C250.163 46.8352 250.186 46.821 250.204 46.8076C250.265 46.7504 250.321 46.694 250.381 46.6265C250.371 46.6281 250.346 46.6167 250.312 46.6119ZM239.352 53.9086C239.354 53.924 239.364 53.9224 239.365 53.9326C239.386 53.95 239.404 53.9835 239.426 54.006L239.51 54.0702L239.364 53.9224C239.362 53.907 239.371 53.9054 239.37 53.8952C239.371 53.9054 239.362 53.907 239.352 53.9086ZM250.726 46.7096C250.613 46.6816 250.504 46.6529 250.401 46.6336C250.344 46.69 250.283 46.7472 250.227 46.8036C250.364 46.6971 250.533 46.6584 250.726 46.7096ZM249.849 47.2064C249.779 47.2754 249.711 47.3495 249.656 47.4162C249.657 47.4265 249.643 47.4288 249.644 47.4442C249.712 47.3598 249.779 47.2754 249.849 47.2064ZM280.228 11.1492C280.237 11.1476 280.245 11.1307 280.259 11.1283L280.268 11.1165C280.266 11.1062 280.275 11.0944 280.273 11.079C280.256 11.0975 280.244 11.1204 280.228 11.1492ZM279.403 12.8274C279.406 12.853 279.409 12.8735 279.391 12.8869C279.389 12.8664 279.405 12.8376 279.403 12.8274ZM265.471 24.5427C265.55 24.5659 265.631 24.5994 265.709 24.6542C265.717 24.5955 265.72 24.5375 265.723 24.4795C265.639 24.504 265.554 24.5182 265.471 24.5427ZM267.096 21.6706C267.199 21.5594 267.269 21.4068 267.306 21.223C267.306 21.223 267.306 21.223 267.292 21.2254C267.248 21.3946 267.188 21.5507 267.096 21.6706Z" fill="#A361B4"/>
</g>
</svg>
