<svg width="224" height="95" viewBox="0 0 224 95" fill="none" xmlns="http://www.w3.org/2000/svg">
<mask id="mask0_501_108" style="mask-type:luminance" maskUnits="userSpaceOnUse" x="0" y="0" width="224" height="95">
<path d="M218.685 0L-1.94147e-05 28.9319L4.91101 94.2798L223.596 65.3479L218.685 0Z" fill="white"/>
</mask>
<g mask="url(#mask0_501_108)">
<path d="M215.857 2.35655C215.986 2.51001 216.018 2.6921 215.956 2.89842C216.439 3.38954 217.421 2.83152 217.667 3.81781C219.271 5.22298 218.833 6.93404 218.072 8.67203C215.933 13.5298 213.124 17.941 210.069 22.1827C199.127 37.3507 185.867 49.4558 170.592 59.207C143.929 76.2449 115.509 81.8721 85.7419 79.2136C71.9408 77.983 58.6926 74.1381 45.6349 69.6179C37.9593 66.9585 30.4766 63.8018 22.91 60.8425C22.6836 60.6029 22.4684 60.3658 22.2456 60.1257C21.8822 60.154 21.4743 60.0771 21.1917 60.2572C21.1917 60.2572 21.1917 60.2572 21.1851 60.266C20.962 60.4105 21.1442 60.7432 21.4157 60.8539C23.0637 63.7637 25.2301 66.1768 27.5179 68.4549C29.0868 70.0194 30.4972 71.6643 31.4164 73.7785C34.8144 77.1109 35.2205 81.1047 32.7101 84.9611C23.776 82.484 17.9357 75.7404 12.5313 68.3286C10.522 65.5736 8.33874 62.9844 6.19626 60.3541C1.05869 54.0606 2.14066 54.6429 4.21796 47.942C4.67887 46.438 5.44957 45.0674 6.34406 43.7875C6.67054 43.3162 7.0132 42.9141 7.57424 42.8399C8.18986 41.1568 9.56053 40.9596 10.9036 40.8335C14.8901 40.4686 18.8732 40.1557 22.862 39.8223C23.6574 39.2175 24.534 39.2562 25.4135 39.3341C26.1881 38.6964 27.0767 38.7493 27.951 38.7565C28.4362 38.2087 29.1013 38.303 29.6918 38.1338C37.6713 35.8372 45.3354 32.6033 52.5223 27.9815C53.0627 27.6325 53.625 27.3322 54.1784 27.0092C54.8328 26.6213 55.5742 26.1744 56.1652 26.79C56.6137 27.2618 56.569 28.2231 56.2431 28.7023C54.8065 30.8428 54.7679 33.5397 53.5395 35.728C52.995 36.7039 52.1387 37.3722 51.2564 38.036C44.4814 43.178 37.103 46.9054 29.3836 49.8415C28.6937 50.0992 27.9558 50.2523 27.3354 50.6555C26.6142 51.1276 26.8761 51.7906 27.2982 52.3492C28.1083 52.135 28.714 52.4117 29.1449 53.1356C29.9095 53.094 30.6537 53.1224 31.102 53.9312C31.2828 53.8082 31.4106 53.8547 31.4809 54.0595C32.2111 53.9986 32.8925 54.067 33.3415 54.7886C33.8444 54.8647 34.3637 54.8674 34.8369 55.0347C40.045 56.867 45.2164 58.7953 50.4451 60.5614C55.19 62.1655 59.9777 63.6094 64.7482 65.115C66.0593 65.342 67.3775 65.5164 68.6675 65.8017C81.2511 68.4897 94.0029 69.4745 106.934 68.3742C111.554 67.977 116.163 67.4268 120.773 66.9438C121.609 66.298 122.523 66.3912 123.442 66.4638C124.228 65.8247 125.1 65.8996 125.978 65.9618C126.684 65.2935 127.517 65.4252 128.334 65.4082C128.766 64.923 129.282 64.8785 129.829 65.0122C129.996 64.8475 130.176 64.8157 130.375 64.9242C130.861 64.3921 131.517 64.4678 132.099 64.2837C134.962 63.358 137.943 62.9914 140.721 61.6842C140.994 61.9097 141.848 61.9316 140.851 62.5352C140.191 62.9437 140.168 63.1727 140.37 63.3323C140.545 63.4716 140.888 63.5571 141.144 63.658C150.117 60.4332 158.666 56.0831 166.984 51.1334C167.719 50.5962 168.461 50.0619 169.195 49.5247C173.586 46.3233 177.989 43.1245 182.38 39.931C182.455 39.7071 182.575 39.5485 182.732 39.4485C182.843 39.3782 182.961 39.3349 183.102 39.3162C183.221 38.9556 183.462 38.7611 183.807 38.7235C183.918 38.352 184.159 38.1575 184.512 38.1307C184.614 37.7484 184.856 37.5579 185.216 37.5262C185.319 37.1478 185.552 36.9386 185.912 36.9187C186.007 36.5295 186.24 36.3282 186.601 36.3082L186.608 36.2994C186.696 35.919 186.925 35.7103 187.278 35.6913L187.296 35.6811C187.502 35.4635 187.724 35.2557 187.959 35.0661L187.983 35.0432C188.068 34.6672 188.282 34.4565 188.642 34.4287L188.666 34.4057C188.755 34.0292 188.969 33.8224 189.329 33.7907L189.353 33.7717C189.43 33.3849 189.656 33.1766 190.015 33.1489L190.029 33.1352C190.11 32.7518 190.332 32.5441 190.691 32.5124L190.702 32.5031C190.786 32.1153 191.007 31.8997 191.37 31.8597C193.321 29.7503 195.264 27.6418 197.215 25.5363C198.536 24.7709 199.384 23.4536 200.36 22.2937C200.307 22.1223 200.221 21.9911 200.124 21.8769C199.969 21.7033 199.781 21.5933 199.529 21.5473C200.181 20.5929 200.774 19.5828 201.776 18.9944C202.097 18.8449 202.386 18.656 202.6 18.3422C202.331 18.5562 202.059 18.7785 201.776 18.9944C201.932 18.6447 202.114 18.3353 202.502 18.3473C202.556 17.7574 202.867 17.3674 203.34 17.0908C203.37 16.7102 203.534 16.4586 203.898 16.3906C204.02 16.0177 204.194 15.7171 204.575 15.6232C204.608 15.4324 204.688 15.2752 204.863 15.1728C205.351 14.1251 206.011 13.233 206.863 12.5058C207.243 11.7815 207.609 11.0474 208.291 10.5884C208.381 10.0413 208.762 9.70552 209.104 9.34706C210.605 6.50431 212.566 3.95344 213.629 0.677117C214.411 1.50129 215.59 1.18673 215.857 2.35655ZM31.4251 54.7289C31.4324 54.728 31.4324 54.728 31.4432 54.7265C31.4438 54.7344 31.433 54.7358 31.433 54.7358C31.4438 54.7344 31.4505 54.7256 31.4505 54.7256L31.4432 54.7265C31.4424 54.7147 31.4418 54.7069 31.4484 54.6981C31.4309 54.7083 31.4315 54.7162 31.4251 54.7289ZM190.983 34.6462C190.94 34.7073 190.894 34.7651 190.851 34.8263C190.864 34.8126 190.882 34.8023 190.896 34.7926C190.944 34.7505 190.988 34.709 191.036 34.6591C191.028 34.66 191.009 34.6507 190.983 34.6462ZM182.431 39.9243C182.432 39.9361 182.439 39.9351 182.44 39.943C182.455 39.9567 182.468 39.9828 182.484 40.0005L182.547 40.0517L182.439 39.9351C182.438 39.9233 182.446 39.9224 182.445 39.9145C182.446 39.9224 182.438 39.9233 182.431 39.9243ZM191.297 34.7315C191.211 34.7072 191.129 34.6824 191.051 34.665C191.006 34.7066 190.958 34.7486 190.914 34.7902C191.021 34.7125 191.151 34.6874 191.297 34.7315ZM190.614 35.0874C190.56 35.1383 190.505 35.193 190.462 35.2425C190.462 35.2503 190.451 35.2517 190.452 35.2635C190.506 35.2009 190.56 35.1383 190.614 35.0874ZM214.738 8.37971C214.745 8.37876 214.751 8.36602 214.762 8.36459L214.769 8.35578C214.768 8.34793 214.775 8.33912 214.774 8.32734C214.76 8.34104 214.751 8.35817 214.738 8.37971ZM214.065 9.63823C214.066 9.65786 214.067 9.67356 214.053 9.68333C214.052 9.66763 214.065 9.64609 214.065 9.63823ZM203.128 18.209C203.188 18.2288 203.248 18.2565 203.306 18.3004C203.314 18.2557 203.318 18.2116 203.322 18.1675C203.257 18.1839 203.192 18.1926 203.128 18.209ZM204.443 16.0608C204.525 15.9786 204.582 15.864 204.615 15.7248C204.615 15.7248 204.615 15.7248 204.604 15.7263C204.567 15.8542 204.517 15.9717 204.443 16.0608Z" fill="#283977"/>
</g>
</svg>
