<svg width="368" height="368" viewBox="0 0 368 368" fill="none" xmlns="http://www.w3.org/2000/svg">
<mask id="mask0_507_112" style="mask-type:luminance" maskUnits="userSpaceOnUse" x="0" y="0" width="368" height="368">
<path d="M367.414 70.6807L296.745 367.375L-4.76363e-05 296.694L70.6686 -0.000185989L367.414 70.6807Z" fill="white"/>
</mask>
<g mask="url(#mask0_507_112)">
<path fill-rule="evenodd" clip-rule="evenodd" d="M331.939 219.617C332.539 217.099 333.079 214.566 333.562 212.02C349.118 129.366 294.832 49.7719 212.252 34.1724C129.674 18.5733 50.0745 72.8532 34.3705 155.474C19.2934 235.33 69.4864 312.915 148.455 331.851C148.761 332.016 148.982 332.008 149.3 332.113C151.971 332.594 153.279 332.749 155.998 333.429C156.509 333.519 157.141 333.888 157.674 333.889C237.176 347.816 313.219 297.292 331.939 219.617Z" fill="#E6E6E6"/>
</g>
<path d="M285.11 119.505C285.131 119.416 285.087 119.468 284.943 119.809C284.794 120.433 285.097 119.69 285.11 119.505ZM284.943 119.809C285.034 119.424 285.089 119.063 285.086 118.685C285.149 118.544 285.185 118.395 285.22 118.247C285.414 117.698 285.521 117.38 284.708 117.249C283.765 115.427 280.717 113.762 273.524 111.766C268.619 110.411 261.779 108.905 253.626 107.528C243.537 106.253 227.569 104.297 211.323 103.777C195.049 103.251 178.521 104.167 163.847 106.248C149.174 108.326 136.336 111.625 124.222 115.439C112.108 119.256 100.68 123.609 88.7676 129.602C79.8125 134.076 70.8603 139.334 62.355 145.606C62.0128 145.868 61.6309 146.154 61.2794 146.445C57.1585 149.691 52.0352 153.981 47.3608 158.755C42.6865 163.529 38.4761 168.725 35.8045 173.506C33.5217 177.565 32.3743 181.33 31.7227 184.464C31.7156 184.494 31.7384 184.531 31.7246 184.588C31.726 184.715 31.728 184.84 31.7272 184.966C31.722 185.12 31.7391 185.314 31.7339 185.469C31.7358 185.593 31.7372 185.72 31.7299 185.874C31.7242 186.031 31.7418 186.222 31.7366 186.377C31.738 186.504 31.7328 186.658 31.7347 186.783C31.7269 186.939 31.7516 187.1 31.7392 187.285C31.7406 187.412 31.7354 187.566 31.7646 187.699C31.7594 187.854 31.7841 188.016 31.7784 188.172C31.7803 188.297 31.7818 188.424 31.7766 188.578C31.7692 188.732 31.7863 188.926 31.7811 189.08C31.7825 189.207 31.7773 189.362 31.807 189.493C31.8013 189.65 31.8189 189.841 31.8137 189.996C31.8151 190.122 31.8241 190.217 31.8255 190.344C31.841 190.535 31.8287 190.719 31.8457 190.913C31.8548 191.008 31.8562 191.134 31.8631 191.229C31.8802 191.422 31.875 191.577 31.8926 191.768C31.8926 191.768 31.8926 191.768 31.8854 191.798C31.8874 191.923 31.8959 192.02 31.8952 192.146C31.9127 192.337 31.9075 192.492 31.9251 192.684C31.9337 192.78 31.9334 192.905 31.942 193.001C31.942 193.001 31.942 193.001 31.9349 193.031C31.9524 193.223 31.97 193.414 31.985 193.608C31.994 193.702 31.9954 193.829 32.0045 193.924C32.0215 194.117 32.0462 194.279 32.0318 194.463C32.0332 194.59 32.0351 194.714 32.0664 194.848C32.084 195.04 32.1066 195.201 32.0943 195.385C32.0957 195.512 32.1042 195.609 32.1061 195.733C32.1237 195.925 32.1392 196.116 32.1562 196.31C32.1653 196.404 32.1667 196.531 32.1757 196.626C32.1907 196.819 32.2083 197.011 32.2258 197.202C32.2344 197.299 32.2434 197.394 32.2427 197.52C32.2603 197.711 32.2707 197.933 32.2883 198.124C32.3018 198.191 32.3175 198.258 32.2966 198.345C32.3066 198.569 32.3541 198.768 32.3624 198.989C32.3709 199.085 32.38 199.18 32.3956 199.247C32.3885 199.277 32.3885 199.277 32.4113 199.314C32.4289 199.506 32.4443 199.697 32.4619 199.888C32.4704 199.985 32.479 200.082 32.488 200.177C32.5035 200.368 32.5438 200.596 32.5609 200.79C32.5771 200.855 32.5628 200.914 32.5764 200.981C32.5764 200.981 32.5692 201.011 32.5991 201.018C32.6096 201.239 32.65 201.468 32.6583 201.689C32.6739 201.756 32.683 201.851 32.6986 201.917C32.7091 202.139 32.7539 202.339 32.7644 202.561C32.7578 202.588 32.7806 202.625 32.7806 202.625C32.7735 202.655 32.7735 202.655 32.7962 202.692C32.8273 202.95 32.8606 203.209 32.8938 203.467C32.9073 203.534 32.9002 203.564 32.9164 203.628C32.9568 203.857 32.9879 204.115 33.0277 204.346C33.0211 204.374 33.051 204.381 33.0439 204.411C33.0771 204.669 33.1011 204.957 33.1643 205.223C33.211 205.547 33.267 205.843 33.2915 206.129C33.3072 206.196 33.3001 206.226 33.3157 206.292C33.3468 206.55 33.41 206.816 33.4411 207.074C33.4567 207.141 33.4729 207.206 33.4587 207.266C33.4919 207.524 33.523 207.782 33.5933 208.018C33.6089 208.085 33.6246 208.152 33.6109 208.209C33.642 208.467 33.7051 208.733 33.7362 208.991C33.7519 209.058 33.7448 209.088 33.7604 209.155C33.7942 209.411 33.8552 209.676 33.9112 209.972C33.9319 210.008 33.9176 210.068 33.9404 210.105C34.0035 210.371 34.0346 210.628 34.0907 210.924C34.1068 210.989 34.0997 211.019 34.1154 211.086C34.1693 211.381 34.2231 211.676 34.2797 211.969C34.2797 211.969 34.2797 211.969 34.2726 211.999C34.3193 212.324 34.4053 212.626 34.452 212.951C34.4753 212.986 34.4682 213.016 34.4838 213.083C34.5242 213.312 34.5923 213.547 34.6256 213.805C34.6391 213.872 34.632 213.902 34.6476 213.969C34.7108 214.234 34.7718 214.499 34.805 214.758L34.7984 214.786C34.8594 215.051 34.9226 215.316 34.9836 215.581C34.9836 215.581 34.9765 215.611 35.0064 215.618C35.0767 215.854 35.1078 216.112 35.178 216.348C35.1916 216.414 35.1844 216.444 35.2001 216.511C35.2405 216.74 35.3086 216.975 35.349 217.203C35.3717 217.24 35.3575 217.3 35.3803 217.337C35.4185 217.565 35.4888 217.801 35.5341 217.999C35.5498 218.066 35.5659 218.131 35.5816 218.198C35.622 218.426 35.6972 218.632 35.7371 218.862C35.7533 218.927 35.7668 218.994 35.7824 219.061C35.8228 219.289 35.8981 219.494 35.9384 219.723C35.9541 219.79 35.9697 219.857 35.9859 219.922C36.0236 220.152 36.101 220.358 36.1393 220.586C36.1549 220.653 36.1711 220.718 36.1867 220.784C36.2321 220.983 36.3024 221.218 36.3472 221.419C36.3634 221.483 36.4018 221.587 36.4175 221.654C36.4628 221.852 36.5103 222.051 36.5877 222.257C36.6012 222.323 36.6397 222.427 36.6553 222.494C36.7028 222.693 36.771 222.928 36.8184 223.127C36.8341 223.194 36.8476 223.26 36.8638 223.325C36.9407 223.533 36.9789 223.761 37.0563 223.967C37.072 224.034 37.0881 224.098 37.1017 224.165C37.1719 224.401 37.2173 224.599 37.287 224.837C37.3032 224.901 37.3189 224.968 37.3416 225.005C37.4098 225.241 37.4573 225.439 37.5254 225.674C37.5411 225.741 37.5567 225.808 37.5724 225.875C37.6177 226.073 37.6951 226.279 37.7405 226.477C37.7561 226.544 37.7946 226.648 37.8108 226.713C37.8855 226.92 37.933 227.119 38.0011 227.354C38.0168 227.421 38.033 227.486 38.0486 227.553C38.1239 227.758 38.1708 227.959 38.2461 228.164C38.2618 228.231 38.3007 228.333 38.3164 228.4C38.3617 228.598 38.4391 228.804 38.5139 229.011C38.53 229.076 38.5756 229.15 38.5841 229.247C38.6594 229.452 38.7069 229.651 38.7821 229.856C38.7978 229.923 38.8434 229.997 38.8524 230.092C38.9272 230.299 39.0046 230.505 39.0428 230.733C39.0584 230.8 39.0812 230.837 39.0974 230.902C39.165 231.139 39.2424 231.345 39.3105 231.58C39.3262 231.647 39.3495 231.682 39.3652 231.749C39.4404 231.954 39.5102 232.192 39.5854 232.398C39.6016 232.462 39.6173 232.529 39.6628 232.603C39.7381 232.809 39.8084 233.044 39.8831 233.252C39.8993 233.317 39.9149 233.384 39.9377 233.421C40.013 233.626 40.0832 233.862 40.1585 234.067C40.1742 234.134 40.1969 234.171 40.2126 234.238C40.2879 234.443 40.3581 234.679 40.4334 234.884C40.4491 234.951 40.4647 235.018 40.5174 235.062C40.5927 235.267 40.6629 235.503 40.7382 235.708C40.761 235.745 40.7766 235.812 40.7994 235.849C40.8675 236.084 40.9727 236.297 41.043 236.533C41.0658 236.57 41.0814 236.637 41.1042 236.674C41.2022 236.916 41.2775 237.121 41.3777 237.364C41.4005 237.401 41.3933 237.431 41.4211 237.438C41.5213 237.68 41.5894 237.916 41.6896 238.158C41.7102 238.195 41.7259 238.262 41.7487 238.299C41.8467 238.541 41.9241 238.747 42.0222 238.989C42.0449 239.026 42.0378 239.056 42.0606 239.093C42.1586 239.336 42.2588 239.578 42.3569 239.821C42.3569 239.821 42.3497 239.851 42.3796 239.858C42.4777 240.1 42.5985 240.379 42.6987 240.622C42.9403 241.181 43.1749 241.769 43.3887 242.322C43.5096 242.601 43.6304 242.88 43.7533 243.16C43.8742 243.439 43.995 243.719 44.1158 243.998C44.2366 244.277 44.3601 244.555 44.4809 244.835C44.6017 245.114 44.7226 245.393 44.8434 245.673C44.9664 245.952 45.0872 246.232 45.2151 246.481C45.3359 246.761 45.4639 247.01 45.5869 247.29C45.5869 247.29 45.5869 247.29 45.5797 247.32C45.5797 247.32 45.5797 247.32 45.5726 247.35C45.7006 247.599 45.8214 247.878 45.9493 248.128L45.9721 248.165C46.1001 248.414 46.2209 248.694 46.351 248.944C46.3716 248.98 46.3716 248.98 46.3944 249.017C46.5223 249.267 46.6453 249.546 46.7732 249.796C46.8941 250.075 47.022 250.325 47.1727 250.611C47.2957 250.891 47.4536 251.148 47.5744 251.427C47.9739 252.242 48.4054 253.065 48.8343 253.89C48.9623 254.139 49.0902 254.388 49.2182 254.638C49.2182 254.638 49.2182 254.638 49.2409 254.675C49.371 254.925 49.5061 255.144 49.634 255.394L49.6568 255.431C49.7848 255.68 49.9127 255.93 50.0478 256.149C50.0478 256.149 50.0478 256.149 50.0706 256.186C50.1985 256.436 50.3352 256.658 50.4632 256.907C50.4632 256.907 50.456 256.937 50.4859 256.944C50.6139 257.194 50.7717 257.45 50.8997 257.7C51.0276 257.949 51.1648 258.169 51.2928 258.419C51.3156 258.456 51.3156 258.456 51.3362 258.492C51.4663 258.742 51.6313 258.969 51.7592 259.218C51.8938 259.44 52.0217 259.689 52.1568 259.909C52.1796 259.946 52.1796 259.946 52.2024 259.983C52.3374 260.202 52.4675 260.452 52.6026 260.672L52.6254 260.709C52.7604 260.929 52.8879 261.18 53.0529 261.407C53.0529 261.407 53.0529 261.407 53.0756 261.444C53.2107 261.663 53.3387 261.913 53.4759 262.133C53.4965 262.169 53.4965 262.169 53.5193 262.206C53.6565 262.426 53.7916 262.646 53.9261 262.868C53.9494 262.902 53.9722 262.94 53.995 262.977C54.13 263.196 54.2646 263.418 54.3997 263.637C54.4225 263.674 54.4225 263.674 54.4452 263.711C54.5803 263.931 54.7154 264.15 54.8505 264.37C54.8732 264.407 54.896 264.444 54.896 264.444C55.0311 264.664 55.1678 264.886 55.3328 265.112C55.3328 265.112 55.3328 265.112 55.3534 265.149C55.3534 265.149 55.3534 265.149 55.3762 265.186C55.5134 265.406 55.6485 265.625 55.8134 265.852C55.8362 265.889 55.859 265.926 55.859 265.926C55.9941 266.146 56.1292 266.365 56.2708 266.557C56.2936 266.594 56.2936 266.594 56.3169 266.629C56.4515 266.851 56.6164 267.077 56.7515 267.297L56.7743 267.334C56.9393 267.56 57.0743 267.78 57.2388 268.009C57.4059 268.236 57.541 268.455 57.706 268.682C57.7288 268.719 57.7288 268.719 57.7515 268.756C57.8866 268.976 58.0511 269.205 58.1861 269.424C58.216 269.431 58.2089 269.461 58.2388 269.468C58.3739 269.688 58.5389 269.914 58.7039 270.141C70.1586 286.836 84.7322 301.079 101.899 312.055C103.61 313.153 105.357 314.226 107.12 315.242C108.613 315.408 110.484 315.571 112.828 315.317C116.356 314.968 120.972 313.718 124.761 312.397C126.433 311.824 127.917 311.239 129.204 310.701C131.107 309.806 133.127 308.816 135.234 307.722C138.452 306.17 141.858 304.351 145.403 302.347C157.69 295.316 171.472 285.416 183.833 274.521C196.193 263.625 207.162 251.739 218.205 237.836C229.247 223.934 240.401 207.992 249.65 192.816C258.906 177.61 266.287 163.18 271.847 151.134C277.076 139.822 280.741 130.614 282.824 125.16C282.938 124.936 283.132 124.389 283.16 124.269C283.167 124.239 283.167 124.239 283.167 124.239C283.174 124.211 283.181 124.181 283.188 124.152C283.618 123.001 283.978 122.021 284.221 121.267C284.502 120.738 284.747 120.232 284.943 119.809Z" fill="#BA93DF"/>
<mask id="mask1_507_112" style="mask-type:luminance" maskUnits="userSpaceOnUse" x="249" y="115" width="104" height="165">
<path d="M352.956 131.381L317.657 279.579L249.497 263.344L284.796 115.146L352.956 131.381Z" fill="white"/>
</mask>
<g mask="url(#mask1_507_112)">
<path d="M331.94 219.617C332.539 217.098 333.079 214.566 333.562 212.019C338.416 186.247 336.467 160.795 328.999 137.474C326.588 135.647 324.256 133.997 321.996 132.456C316.526 128.742 311.412 125.77 304.909 122.718C298.399 119.695 290.462 116.615 286.917 116.114C283.345 115.609 284.16 117.713 288.195 126.001C292.259 134.296 301.471 147.795 306.779 164.403C312.088 181.01 316.751 201.909 317.167 219.356C317.484 231.424 316.195 243.016 312.767 255.037C311.245 260.374 308.038 270.161 305.258 275.919C304.824 277.475 305.729 274.34 305.258 275.919C317.627 259.607 326.876 240.612 331.94 219.617Z" fill="#283977"/>
</g>
<path d="M285.701 116.89C285.778 116.565 285.87 116.179 285.939 115.757C286.393 113.455 287.024 109.754 287.67 105.334C288.316 100.917 288.967 95.8126 289.342 88.8567C289.571 84.3402 289.676 79.04 289.63 74.1149C268.988 54.1981 242.537 39.8822 212.252 34.172C200.418 31.9492 188.624 31.1423 177.078 31.6497C181.27 32.8354 186.203 34.0736 190.627 35.3463C198.917 37.7273 205.37 40.2055 213.06 44.3216C220.75 48.4399 229.646 54.191 238.393 61.8793C247.142 69.5681 255.69 79.1505 262.862 87.9354C270.033 96.7204 275.759 104.752 279.221 109.929C282.683 115.106 283.808 117.473 284.512 118.205C285.085 118.811 285.362 118.313 285.701 116.89Z" fill="#FFD3EB"/>
<path d="M300.344 138.728C308.289 132.572 306.577 116.634 296.487 103.145C286.397 89.6584 271.751 83.7275 263.806 89.8826C255.862 96.0377 257.574 111.976 267.664 125.463C277.783 138.959 292.399 144.883 300.344 138.728Z" fill="#26ABE0"/>
</svg>
