<svg width="276" height="277" viewBox="0 0 276 277" fill="none" xmlns="http://www.w3.org/2000/svg">
<mask id="mask0_507_127" style="mask-type:luminance" maskUnits="userSpaceOnUse" x="0" y="0" width="276" height="277">
<path d="M0 0H276V276.048H0V0Z" fill="white"/>
</mask>
<g mask="url(#mask0_507_127)">
<path fill-rule="evenodd" clip-rule="evenodd" d="M138.548 0C136.206 0 133.863 0.0556402 131.52 0.164934C55.4973 3.80143 -3.18739 68.2787 0.395449 144.246C3.97829 220.211 68.4515 278.901 144.476 275.402C217.935 271.93 275.71 211.477 275.821 137.99C275.903 137.686 275.849 137.493 275.875 137.191C275.738 134.739 275.601 133.555 275.628 131.019C275.601 130.55 275.793 129.916 275.682 129.447C271.273 56.5405 210.851 0.192754 138.548 0Z" fill="#E6E6E6"/>
</g>
<path d="M60.2387 62.2159C60.1552 62.2159 60.2109 62.2437 60.5407 62.2994C61.121 62.2994 60.4036 62.1881 60.2387 62.2159ZM60.5407 62.2994C60.183 62.2994 59.8532 62.3272 59.5213 62.4086C59.3842 62.3828 59.2451 62.3828 59.108 62.3828C58.5834 62.3272 58.2813 62.2994 58.337 63.0425C56.9301 64.2547 56.1034 67.2871 55.855 74.0375C55.6901 78.6397 55.7994 84.9768 56.2962 92.4425C57.2897 101.591 58.9152 116.058 61.8642 130.469C64.8131 144.905 69.0855 159.263 73.9938 171.744C78.9001 184.225 84.4959 194.835 90.3938 204.699C96.2936 214.563 102.521 223.71 110.295 232.94C116.112 239.885 122.617 246.664 129.922 252.836C130.224 253.082 130.556 253.358 130.886 253.607C134.608 256.554 139.459 260.164 144.641 263.278C149.824 266.392 155.28 269.009 160.05 270.359C164.101 271.517 167.656 271.738 170.552 271.654C170.579 271.654 170.607 271.626 170.661 271.626C170.772 271.599 170.882 271.571 170.993 271.545C171.13 271.517 171.297 271.461 171.434 271.434C171.543 271.406 171.655 271.378 171.792 271.352C171.931 271.324 172.096 271.269 172.233 271.241C172.344 271.213 172.481 271.185 172.59 271.157C172.73 271.132 172.867 271.076 173.032 271.048C173.143 271.02 173.28 270.992 173.391 270.939C173.528 270.911 173.666 270.855 173.805 270.827C173.914 270.8 174.025 270.772 174.162 270.744C174.299 270.718 174.466 270.663 174.603 270.635C174.715 270.607 174.852 270.579 174.961 270.525C175.1 270.498 175.265 270.442 175.402 270.414C175.514 270.386 175.595 270.359 175.706 270.331C175.871 270.277 176.036 270.249 176.203 270.194C176.285 270.166 176.396 270.138 176.477 270.112C176.644 270.056 176.781 270.029 176.946 269.973C176.946 269.973 176.946 269.973 176.974 269.973C177.083 269.945 177.167 269.917 177.278 269.892C177.443 269.836 177.58 269.808 177.745 269.752C177.829 269.725 177.938 269.699 178.021 269.671C178.021 269.671 178.021 269.671 178.049 269.671C178.214 269.615 178.379 269.56 178.546 269.506C178.627 269.478 178.739 269.45 178.82 269.423C178.987 269.367 179.124 269.311 179.289 269.285C179.4 269.258 179.51 269.23 179.621 269.174C179.786 269.119 179.923 269.065 180.088 269.037C180.199 269.009 180.283 268.981 180.392 268.954C180.557 268.898 180.722 268.844 180.889 268.789C180.97 268.761 181.082 268.733 181.163 268.705C181.33 268.652 181.495 268.596 181.66 268.54C181.743 268.512 181.825 268.485 181.936 268.459C182.101 268.403 182.294 268.348 182.459 268.292C182.514 268.266 182.57 268.238 182.651 268.238C182.846 268.183 183.011 268.099 183.204 268.045C183.287 268.018 183.369 267.99 183.424 267.962C183.452 267.962 183.452 267.962 183.48 267.934C183.645 267.879 183.81 267.825 183.975 267.769C184.058 267.741 184.142 267.714 184.223 267.686C184.388 267.632 184.581 267.549 184.748 267.493C184.802 267.465 184.857 267.465 184.913 267.439C184.913 267.439 184.941 267.439 184.941 267.412C185.133 267.356 185.326 267.272 185.519 267.219C185.575 267.191 185.656 267.163 185.712 267.135C185.904 267.08 186.071 266.998 186.264 266.943C186.29 266.943 186.318 266.915 186.318 266.915C186.346 266.915 186.346 266.915 186.373 266.887C186.594 266.805 186.815 266.722 187.035 266.639C187.091 266.613 187.119 266.613 187.172 266.585C187.365 266.501 187.586 266.42 187.78 266.337C187.806 266.337 187.806 266.309 187.834 266.309C188.055 266.225 188.303 266.144 188.523 266.032C188.8 265.923 189.048 265.812 189.294 265.73C189.35 265.703 189.378 265.703 189.434 265.675C189.654 265.593 189.875 265.482 190.095 265.401C190.151 265.373 190.205 265.345 190.26 265.345C190.481 265.261 190.701 265.18 190.894 265.069C190.95 265.041 191.005 265.013 191.059 265.013C191.28 264.932 191.5 264.82 191.721 264.739C191.776 264.711 191.804 264.711 191.86 264.683C192.079 264.6 192.299 264.49 192.547 264.379C192.575 264.353 192.631 264.353 192.659 264.326C192.879 264.214 193.1 264.133 193.348 264.021C193.402 263.994 193.43 263.994 193.485 263.966C193.734 263.857 193.982 263.747 194.229 263.636C194.229 263.636 194.229 263.636 194.256 263.636C194.533 263.527 194.781 263.388 195.057 263.278C195.083 263.25 195.111 263.25 195.167 263.223C195.359 263.139 195.552 263.03 195.773 262.946C195.828 262.921 195.856 262.921 195.912 262.893C196.132 262.781 196.353 262.672 196.573 262.589H196.599C196.82 262.479 197.04 262.368 197.261 262.259C197.261 262.259 197.289 262.259 197.289 262.231C197.482 262.12 197.702 262.038 197.895 261.927C197.951 261.901 197.978 261.901 198.034 261.873C198.227 261.79 198.42 261.681 198.612 261.597C198.64 261.569 198.696 261.569 198.724 261.542C198.916 261.46 199.109 261.349 199.274 261.267C199.33 261.239 199.383 261.212 199.439 261.184C199.632 261.1 199.797 260.991 199.991 260.908C200.045 260.88 200.101 260.854 200.156 260.826C200.349 260.743 200.514 260.633 200.707 260.55C200.762 260.522 200.818 260.494 200.872 260.466C201.066 260.385 201.231 260.274 201.424 260.192C201.48 260.164 201.533 260.137 201.589 260.109C201.754 260.027 201.947 259.916 202.114 259.835C202.167 259.807 202.251 259.751 202.306 259.723C202.471 259.642 202.636 259.558 202.801 259.447C202.857 259.421 202.94 259.366 202.996 259.338C203.161 259.254 203.354 259.145 203.519 259.062C203.574 259.034 203.63 259.008 203.683 258.98C203.85 258.869 204.043 258.787 204.208 258.676C204.264 258.648 204.317 258.62 204.373 258.595C204.566 258.483 204.731 258.402 204.925 258.291C204.979 258.263 205.035 258.235 205.063 258.207C205.255 258.098 205.42 258.014 205.613 257.905C205.669 257.877 205.724 257.849 205.78 257.822C205.945 257.74 206.11 257.629 206.275 257.547C206.33 257.52 206.414 257.464 206.467 257.436C206.634 257.327 206.799 257.243 206.992 257.134C207.048 257.106 207.101 257.078 207.157 257.051C207.322 256.941 207.489 256.858 207.654 256.748C207.709 256.721 207.791 256.665 207.847 256.637C208.012 256.556 208.176 256.444 208.343 256.335C208.397 256.307 208.453 256.252 208.536 256.224C208.701 256.115 208.866 256.031 209.031 255.922C209.087 255.894 209.142 255.838 209.224 255.811C209.391 255.701 209.556 255.59 209.748 255.509C209.804 255.481 209.832 255.453 209.885 255.425C210.08 255.316 210.245 255.204 210.438 255.095C210.493 255.067 210.519 255.04 210.575 255.012C210.74 254.902 210.935 254.791 211.1 254.682C211.153 254.654 211.209 254.626 211.264 254.571C211.429 254.461 211.622 254.35 211.789 254.241C211.843 254.213 211.898 254.185 211.926 254.157C212.091 254.048 212.284 253.937 212.449 253.827C212.504 253.8 212.532 253.772 212.588 253.744C212.753 253.635 212.946 253.523 213.111 253.414C213.166 253.386 213.222 253.358 213.25 253.303C213.415 253.193 213.607 253.082 213.772 252.973C213.8 252.945 213.856 252.917 213.884 252.889C214.076 252.78 214.241 252.643 214.434 252.532C214.462 252.504 214.517 252.476 214.545 252.448C214.738 252.311 214.903 252.202 215.096 252.063C215.124 252.035 215.151 252.035 215.151 252.009C215.344 251.87 215.537 251.761 215.73 251.622C215.757 251.596 215.813 251.568 215.841 251.54C216.034 251.403 216.199 251.292 216.391 251.155C216.419 251.127 216.447 251.127 216.475 251.099C216.668 250.962 216.86 250.823 217.053 250.686C217.053 250.686 217.081 250.686 217.081 250.658C217.274 250.521 217.494 250.356 217.687 250.217C218.128 249.887 218.597 249.557 219.038 249.253C219.259 249.088 219.479 248.923 219.7 248.756C219.921 248.591 220.141 248.426 220.362 248.261C220.582 248.096 220.801 247.929 221.021 247.765C221.242 247.6 221.463 247.435 221.683 247.27C221.904 247.103 222.124 246.938 222.317 246.773C222.538 246.608 222.73 246.443 222.951 246.276C222.951 246.276 222.951 246.276 222.979 246.276C222.979 246.276 222.979 246.276 223.007 246.276C223.199 246.111 223.42 245.946 223.613 245.781L223.64 245.754C223.833 245.589 224.054 245.424 224.247 245.257C224.274 245.231 224.274 245.231 224.302 245.203C224.495 245.038 224.716 244.871 224.908 244.706C225.129 244.541 225.322 244.376 225.542 244.184C225.763 244.017 225.956 243.824 226.176 243.659C226.81 243.136 227.444 242.584 228.08 242.034C228.273 241.869 228.465 241.704 228.658 241.539C228.658 241.539 228.658 241.539 228.686 241.511C228.879 241.344 229.044 241.179 229.236 241.014L229.264 240.986C229.457 240.821 229.65 240.657 229.815 240.492C229.815 240.492 229.815 240.492 229.842 240.464C230.035 240.299 230.202 240.132 230.395 239.967C230.395 239.967 230.423 239.967 230.423 239.939C230.615 239.774 230.808 239.581 231.001 239.417C231.194 239.252 231.359 239.085 231.551 238.92C231.579 238.892 231.579 238.892 231.607 238.866C231.8 238.699 231.965 238.506 232.157 238.341C232.324 238.177 232.517 238.012 232.682 237.847C232.71 237.819 232.71 237.819 232.738 237.791C232.903 237.626 233.095 237.459 233.26 237.294L233.288 237.266C233.453 237.101 233.648 236.937 233.813 236.744C233.813 236.744 233.813 236.744 233.841 236.716C234.005 236.551 234.198 236.386 234.363 236.219C234.391 236.193 234.391 236.193 234.419 236.166C234.584 235.999 234.749 235.834 234.916 235.669C234.941 235.641 234.969 235.613 234.997 235.585C235.162 235.42 235.329 235.255 235.494 235.09C235.522 235.063 235.522 235.063 235.55 235.035C235.714 234.87 235.879 234.705 236.044 234.54C236.072 234.512 236.1 234.484 236.1 234.484C236.265 234.319 236.432 234.153 236.597 233.96C236.597 233.96 236.597 233.96 236.625 233.934C236.625 233.934 236.625 233.934 236.652 233.906C236.817 233.739 236.982 233.574 237.147 233.382C237.175 233.354 237.203 233.326 237.203 233.326C237.368 233.161 237.533 232.996 237.672 232.831C237.7 232.803 237.7 232.803 237.725 232.775C237.892 232.611 238.057 232.418 238.222 232.253L238.25 232.225C238.415 232.032 238.58 231.867 238.747 231.675C238.912 231.48 239.077 231.315 239.242 231.122C239.269 231.094 239.269 231.094 239.297 231.066C239.462 230.902 239.629 230.709 239.794 230.544C239.794 230.516 239.822 230.516 239.822 230.488C239.987 230.323 240.152 230.131 240.317 229.938C252.611 216.354 262.094 200.538 268.157 183.124C268.765 181.388 269.343 179.625 269.868 177.86C269.701 176.511 269.452 174.83 268.737 172.819C267.69 169.787 265.621 165.985 263.664 162.927C262.809 161.576 261.983 160.391 261.239 159.372C260.053 157.884 258.758 156.314 257.353 154.688C255.312 152.18 252.997 149.563 250.489 146.863C241.724 137.521 230.119 127.464 217.935 118.868C205.752 110.271 192.989 103.108 178.435 96.3016C163.881 89.4956 147.509 83.0194 132.209 78.0595C116.883 73.0995 102.633 69.628 90.8627 67.2593C79.8082 65.0277 70.9336 63.7321 65.6954 63.0425C65.4748 62.9889 64.9522 62.9333 64.8409 62.9333C64.8131 62.9333 64.8131 62.9333 64.8131 62.9333C64.7873 62.9333 64.7595 62.9333 64.7316 62.9333C63.6288 62.7961 62.6908 62.6849 61.9755 62.6292C61.4509 62.4921 60.9541 62.3828 60.5407 62.2994Z" fill="#BA93DF"/>
<mask id="mask1_507_127" style="mask-type:luminance" maskUnits="userSpaceOnUse" x="56" y="0" width="139" height="64">
<path d="M56.467 0H194.328V63.4062H56.467V0Z" fill="white"/>
</mask>
<g mask="url(#mask1_507_127)">
<path d="M138.548 0C136.206 0 133.863 0.0556402 131.52 0.164934C107.815 1.29563 85.8173 8.34804 66.8539 19.8119C65.751 22.3177 64.7872 24.7162 63.905 27.0293C61.7827 32.6231 60.2386 37.748 58.9152 44.1129C57.6196 50.4777 56.5723 58.1104 56.8744 61.3355C57.1784 64.5865 58.8596 63.428 65.3099 58.1382C71.7602 52.8206 81.7119 41.8813 95.2185 33.726C108.725 25.5707 126.145 17.0836 141.416 13.0596C151.974 10.2497 162.448 8.95412 173.749 9.45091C178.767 9.67149 188.054 10.4425 193.706 11.6825C195.167 11.7381 192.218 11.599 193.706 11.6825C176.754 4.21476 158.092 0.0556404 138.548 0Z" fill="#283977"/>
</g>
<path d="M57.8123 62.2437C57.5103 62.2437 57.1506 62.2437 56.7651 62.2715C54.6428 62.3549 51.2527 62.5755 47.2267 62.9332C43.2027 63.2909 38.5727 63.7877 32.3707 64.9164C28.3468 65.6616 23.6591 66.681 19.333 67.754C6.12837 90.1016 -0.928019 116.388 0.395426 144.246C0.920035 155.129 2.68264 165.681 5.55011 175.738C5.71504 171.8 5.77068 167.197 5.96344 163.036C6.32112 155.239 7.14977 149.039 9.16077 141.406C11.1738 133.773 14.3711 124.736 19.3052 115.424C24.2393 106.11 30.8824 96.5757 37.1121 88.4205C43.3418 80.2652 49.2119 73.5406 53.0431 69.4073C56.8744 65.2741 58.7224 63.7877 59.2192 63.0147C59.6325 62.3828 59.1357 62.2437 57.8123 62.2437Z" fill="#FFD3EB"/>
<path d="M73.9658 44.7747C66.8816 39.0715 53.21 43.9202 43.4511 55.6305C33.6941 67.3408 31.544 81.4774 38.6282 87.1806C45.7124 92.8837 59.3841 88.0351 69.141 76.3248C78.8999 64.5866 81.05 50.4778 73.9658 44.7747Z" fill="#26ABE0"/>
</svg>
