<svg width="443" height="450" viewBox="0 0 443 450" fill="none" xmlns="http://www.w3.org/2000/svg">
<path d="M300.888 344.386C258.807 366.396 187.345 433.544 156.522 375.217C138.816 341.648 168.933 325.46 220.712 298.65C272.492 271.838 317.582 171.345 358.728 221.372C399.875 271.399 342.966 322.374 300.888 344.386ZM218.612 28.8455C156.361 10.9037 132.107 83.3564 128.561 130.712C125.018 178.07 91.6444 270.277 157.375 275.424C195.195 278.403 198.142 244.331 202.276 186.175C206.41 128.019 280.821 46.8453 218.612 28.8455Z" fill="#168E7C"/>
<path d="M300.57 338.549C258.491 360.561 187.029 427.708 156.203 369.382C138.491 335.82 168.616 319.626 220.396 292.814C272.175 266.005 317.286 165.526 358.448 215.55C399.606 265.575 342.67 316.555 300.57 338.549ZM224.067 26.8593C161.842 8.87983 137.595 81.3375 134.037 128.696C130.48 176.054 97.1276 268.266 162.866 273.452C200.684 276.428 203.638 242.35 207.759 184.198C211.881 126.044 286.324 44.8049 224.067 26.8593Z" fill="#BA93DF"/>
<path d="M300.888 344.385L289.144 351.124C289.144 351.124 304.976 293.241 291.173 267.587C277.373 241.932 219.417 252.841 211.936 306.383C211.936 306.383 202.438 316.129 198.734 311.201C195.029 306.273 215.114 224.882 294.148 246.945C294.148 246.945 321.724 235.063 318.414 245.406C318.414 245.406 303.573 256.518 303.514 262.015L303.457 267.512C303.457 267.512 316.305 310.867 300.888 344.385ZM220.728 98.292C220.728 98.292 220.718 68.2605 212.522 75.3991C212.522 75.3991 208.195 93.4398 203.171 95.6485L198.154 97.8826C198.154 97.8826 153.242 103.277 128.583 130.682L127.015 144.124C127.015 144.124 173.896 106.661 202.921 109.174C231.944 111.686 244.874 169.232 198.668 197.305C198.668 197.305 193.483 209.888 199.488 211.329C205.49 212.768 272.257 162.164 220.708 98.3207L220.728 98.292Z" fill="#FEC20E"/>
</svg>
