<svg width="197" height="200" viewBox="0 0 197 200" fill="none" xmlns="http://www.w3.org/2000/svg">
<path d="M190.283 114.655C183.92 112.017 176.058 123.977 172.119 127.946C170.03 130.05 164.862 133.774 161.85 131.721C158.486 129.428 162.38 124.634 158.755 122.423C154.083 119.572 146.687 128.459 144.059 131.539C138.869 136.257 133.103 140.629 125.155 138.2C116.053 135.08 129.544 124.379 118.828 122.639C112.261 121.825 104.877 131.494 99.8048 134.715C92.887 138.393 86.5495 138.502 78.5984 136.074C72.148 133.761 66.7336 129.723 64.5507 122.923C63.6313 119.235 65.4789 114.858 62.7157 111.628C60.529 108.746 56.494 110.239 52.8055 111.156C49.1169 112.074 45.082 113.567 41.2811 112.065C39.7827 111.949 33.6772 109.06 32.2962 107.447C30.1089 104.563 33.3382 101.801 32.9939 98.461C32.0754 94.7716 28.1563 94.7677 24.9314 93.6128C15.2547 90.1448 14.9142 82.8856 14.6904 74.1279C14.6963 66.2927 15.05 57.8823 25.076 56.8567C28.4182 56.5156 31.2982 58.2474 34.8695 58.8263C39.5933 60.1003 39.9397 59.5243 42.3634 55.4938C47.2098 47.4341 51.3576 48.3618 58.8442 52.8636C61.1482 54.249 64.3731 55.404 66.3307 57.3654C68.2883 59.3268 70.5902 64.6285 74.507 64.6329C78.4252 64.6381 77.0465 59.1054 78.2029 55.8814C79.3578 52.6565 82.8153 50.8161 86.2742 48.9767C93.4217 46.2201 100.794 48.3027 107.13 52.1127C110.585 54.1899 112.889 55.5754 115.077 58.4577C117.493 62.263 117.49 66.1807 119.561 70.5614C120.597 72.751 123.59 76.9012 126.239 77.7121C130.616 79.5598 131.541 75.4125 133.044 71.6125C134.315 66.8906 135.708 52.8352 143.43 54.3412C150.802 56.4238 155.173 66.1067 156.782 72.5617C158.276 76.5952 157.109 95.4906 164.715 94.5765C169.902 93.7761 173.602 77.1885 181.2 88.0272C183.387 90.911 183.498 97.2479 184.071 101.512C184.754 108.169 186.518 113.092 190.283 114.655Z" fill="#FEAB41"/>
<path d="M41.2336 101.333C44.9814 97.8659 49.3816 95.0968 53.8782 92.7049C58.6031 90.1921 63.9382 88.2572 69.3536 88.4041C70.6334 88.4386 71.0289 86.7454 70.013 86.0852C64.6319 82.5913 62.4577 75.4846 60.4629 69.741C59.4994 66.9685 58.8962 64.2293 58.2662 61.3676C57.8461 59.4577 57.0831 56.9417 54.9393 56.3974C54.3101 56.2378 53.652 56.9357 54.0314 57.5402C55.5455 59.964 55.9428 62.6917 56.4886 65.4575C57.0382 68.2433 58.1155 70.9543 59.0948 73.6121C61.0977 79.0473 63.6648 84.9794 68.7259 88.2257C68.9453 87.4511 69.1653 86.679 69.3853 85.9068C58.4369 85.6743 47.6664 92.824 40.3711 100.424C39.8107 101.005 40.6393 101.882 41.2336 101.333Z" fill="#F68E5D"/>
<path d="M80.3645 125.724C85.635 119.679 91.4815 113.951 97.6871 108.854C103.44 104.13 110.437 100.225 118.02 99.9173C119.076 99.8746 119.492 98.7533 118.873 97.9612C116.48 94.9008 113.442 92.3409 111.276 89.1072C108.796 85.4067 107.485 80.5414 105.953 76.4004C105.408 74.9301 104.207 73.5298 103.411 72.1687C102.488 70.5885 101.706 68.9361 101.072 67.2209C99.7179 63.5612 100.326 59.4695 98.1827 56.0899C97.7596 55.4237 96.6712 55.7919 96.8717 56.6021C97.8647 60.6102 97.5935 64.5971 99.043 68.5014C100.398 72.1559 103 75.1667 104.348 78.7835C105.839 82.7857 107.221 87.2361 109.615 90.8005C111.766 94.0011 114.819 96.5289 117.195 99.5591C117.48 98.9072 117.763 98.2558 118.049 97.6039C110.259 97.9288 103.331 101.611 97.3035 106.33C94.0281 108.897 91.1892 111.937 88.1521 114.769C84.8307 117.867 81.2658 120.912 79.4469 125.172C79.2321 125.674 80.0151 126.125 80.3645 125.724Z" fill="#F68E5D"/>
<path d="M129.61 127.795C132.466 122.933 136.625 118.878 141.178 115.603C143.332 114.055 145.645 112.729 148.056 111.62C149.006 111.183 150.135 110.981 151.045 110.486C151.575 110.198 151.986 109.459 152.447 109.145C153.03 108.745 153.72 108.449 154.335 108.099C154.914 107.768 155.211 106.967 154.841 106.366C151.505 100.935 149.267 94.7933 147.639 88.6533C146.743 85.2709 146.061 81.7476 145.779 78.2639C145.484 74.6101 145.906 70.8994 145.505 67.2631C145.433 66.6068 144.615 66.4673 144.367 67.101C141.748 73.8259 143.297 81.8611 144.874 88.6379C146.398 95.1902 149.025 101.884 152.599 107.591C152.769 107.014 152.937 106.435 153.107 105.857C151.157 107.073 149.641 108.414 147.555 109.323C144.829 110.51 142.33 112.163 139.939 113.91C135.199 117.372 130.736 121.822 128.404 127.277C128.106 127.972 129.241 128.422 129.61 127.795Z" fill="#F68E5D"/>
<path d="M37.303 81.1027C43.5248 80.8556 49.8801 82.6869 55.7714 84.5033C61.7901 86.3569 67.8226 88.0434 73.8876 89.7219C81.8548 91.9235 89.8362 94.0686 97.8142 96.2293C105.763 98.3825 113.854 100.26 121.706 102.742C136.788 107.511 152.445 110.084 167.753 113.977C174.838 115.778 182.201 115.939 189.321 117.564C196.551 119.216 204.09 120.587 211.482 121.24C216.854 121.714 222.236 120.728 227.581 121.709C229.913 122.138 230.968 118.636 228.587 118.109C221.838 116.616 214.798 117.924 207.947 117.075C200.269 116.126 192.75 114.158 185.118 112.96C181.705 112.425 178.263 112.099 174.846 111.595C170.945 111.021 167.151 109.971 163.318 109.063C155.651 107.247 147.928 105.678 140.252 103.907C132.41 102.1 124.737 99.766 116.972 97.6839C108.989 95.5454 101.004 93.4046 93.021 91.2662C85.5117 89.2533 78.0072 87.2491 70.4601 85.4007C64.2928 83.8892 58.3097 81.7437 52.1165 80.3311C47.0971 79.1848 42.2207 78.7019 37.1052 79.4033C36.1305 79.5365 36.3334 81.1423 37.303 81.1027Z" fill="#F86D46"/>
<path d="M72.8705 113.282C74.0016 112.19 75.1298 111.107 76.344 110.107C77.593 109.079 79.0407 108.241 80.165 107.082C80.561 106.676 80.2085 105.794 79.5865 106.029C76.591 107.16 74.2338 110.182 72.0563 112.424C71.5267 112.97 72.3223 113.813 72.8705 113.282Z" fill="#FEC884"/>
<path d="M45.658 68.0375C43.8057 66.5138 44.3018 64.1814 44.1909 62.0851C44.1721 61.7427 43.6793 61.5332 43.498 61.8872C42.3837 64.0843 42.8065 67.4578 45.1657 68.6499C45.5397 68.8373 46.0232 68.3379 45.658 68.0375Z" fill="#FEC884"/>
<path d="M87.0999 67.9502C86.5277 67.5352 86.0568 66.9781 85.7176 66.3624C85.3779 65.7443 85.323 65.0393 85.0207 64.4181C84.8964 64.166 84.5323 64.1816 84.3937 64.4056C83.3506 66.0878 85.0294 68.2442 86.4541 69.0241C87.1706 69.4154 87.7473 68.4203 87.0999 67.9502Z" fill="#FEC884"/>
<path d="M133.23 91.3937C131.964 89.852 130.98 88.2104 130.291 86.3356C130.092 85.7944 129.325 85.9756 129.419 86.554C129.778 88.7705 130.993 90.4825 132.442 92.1437C132.907 92.6776 133.67 91.9302 133.23 91.3937Z" fill="#FEC884"/>
</svg>
