<svg width="166" height="200" viewBox="0 0 166 200" fill="none" xmlns="http://www.w3.org/2000/svg">
<path d="M-25.0013 84.5837C-18.6375 87.2193 -10.7795 75.2558 -6.84178 71.2858C-4.75381 69.1813 0.412605 65.4551 3.42508 67.5074C6.79016 69.7992 2.89827 74.5946 6.52348 76.8042C11.1967 79.6534 18.5891 70.7633 21.2163 67.6826C26.4045 62.9627 32.1688 58.589 40.1184 61.015C49.2211 64.132 35.7341 74.8371 46.4506 76.5733C53.018 77.3848 60.399 67.7135 65.4695 64.4912C72.386 60.8098 78.7235 60.699 86.6754 63.1245C93.1266 65.4343 98.5425 69.4706 100.728 76.2703C101.649 79.958 99.8025 84.3356 102.567 87.5647C104.755 90.4454 108.789 88.9509 112.477 88.0324C116.166 87.114 120.2 85.6195 124.001 87.1194C125.5 87.2356 131.606 90.1225 132.988 91.7347C135.176 94.6177 131.948 97.3807 132.293 100.721C133.213 104.41 137.132 104.412 140.358 105.566C150.036 109.031 150.379 116.29 150.606 125.047C150.603 132.882 150.252 141.293 140.226 142.322C136.884 142.665 134.004 140.934 130.432 140.356C125.708 139.084 125.362 139.66 122.939 143.691C118.096 151.753 113.948 150.827 106.46 146.327C104.155 144.943 100.93 143.789 98.9714 141.828C97.0131 139.868 94.7092 134.567 90.7925 134.564C86.8743 134.56 88.2549 140.092 87.0997 143.317C85.9459 146.542 82.4891 148.384 79.0309 150.224C71.8844 152.983 64.5109 150.903 58.1735 147.096C54.7182 145.02 52.4137 143.635 50.2246 140.753C47.8077 136.949 47.8093 133.031 45.7363 128.651C44.6994 126.462 41.7056 122.313 39.0558 121.503C34.6782 119.657 33.7544 123.805 32.253 127.605C30.9839 132.328 29.5956 146.383 21.8736 144.88C14.5001 142.8 10.1256 133.119 8.51499 126.664C7.01957 122.632 8.17949 103.736 0.573627 104.653C-4.61301 105.455 -8.30737 122.044 -15.9086 111.208C-18.0969 108.325 -18.2101 101.988 -18.7847 97.7241C-19.4698 91.0672 -21.2364 86.1444 -25.0013 84.5837Z" fill="#FEAB41"/>
<path d="M124.052 97.852C120.306 101.32 115.907 104.091 111.411 106.484C106.687 108.999 101.352 110.936 95.937 110.791C94.6572 110.757 94.2623 112.45 95.2785 113.11C100.661 116.602 102.838 123.708 104.834 129.451C105.799 132.223 106.403 134.962 107.034 137.823C107.455 139.733 108.219 142.249 110.363 142.792C110.992 142.952 111.65 142.253 111.27 141.649C109.755 139.226 109.357 136.498 108.81 133.733C108.26 130.947 107.181 128.236 106.201 125.579C104.196 120.145 101.627 114.213 96.5648 110.969C96.3457 111.743 96.126 112.516 95.9062 113.288C106.855 113.517 117.623 106.363 124.915 98.7605C125.475 98.179 124.646 97.3027 124.052 97.852Z" fill="#F68E5D"/>
<path d="M84.9129 73.4749C79.6446 79.5218 73.8001 85.252 67.5963 90.3506C61.8448 95.0768 54.8494 98.9846 47.2671 99.2951C46.2108 99.3382 45.7951 100.46 46.4147 101.251C48.8082 104.311 51.8473 106.87 54.0145 110.103C56.4963 113.802 57.809 118.667 59.3423 122.808C59.8874 124.278 61.0893 125.678 61.8852 127.038C62.8095 128.618 63.5919 130.27 64.2263 131.985C65.5818 135.645 64.9751 139.737 67.1197 143.115C67.543 143.781 68.6313 143.413 68.4305 142.603C67.4361 138.595 67.7058 134.608 66.255 130.704C64.8983 127.05 62.2957 124.04 60.9459 120.424C59.4534 116.422 58.0706 111.972 55.6745 108.409C53.5229 105.209 50.4684 102.682 48.0922 99.653C47.8069 100.305 47.5238 100.956 47.2384 101.609C55.0281 101.281 61.9548 97.5956 67.9808 92.8748C71.2553 90.3071 74.0931 87.2661 77.1291 84.433C80.4495 81.3332 84.0133 78.2872 85.8306 74.0263C86.0453 73.5248 85.2621 73.074 84.9129 73.4749Z" fill="#F68E5D"/>
<path d="M35.6667 71.4221C32.8118 76.285 28.6545 80.3417 24.1032 83.618C21.9493 85.1667 19.6368 86.494 17.2268 87.6032C16.2763 88.0408 15.1478 88.2434 14.2375 88.7387C13.7077 89.0271 13.2974 89.7657 12.8367 90.0799C12.2535 90.4801 11.5631 90.7765 10.9489 91.1266C10.3695 91.4581 10.0733 92.2593 10.4434 92.8599C13.781 98.2893 16.0212 104.431 17.6517 110.57C18.5492 113.952 19.232 117.475 19.5148 120.959C19.8118 124.612 19.3907 128.323 19.7928 131.959C19.8654 132.616 20.684 132.755 20.9309 132.121C23.5476 125.395 21.9959 117.361 20.417 110.584C18.8904 104.033 16.2604 97.3401 12.6852 91.6339C12.5154 92.2116 12.3471 92.7901 12.1773 93.3678C14.1274 92.1517 15.6426 90.8103 17.7281 89.9002C20.4533 88.7124 22.9525 87.0579 25.3423 85.3101C30.0808 81.8469 34.5422 77.3956 36.8726 71.9398C37.1705 71.2441 36.0357 70.7948 35.6667 71.4221Z" fill="#F68E5D"/>
<path d="M127.991 118.081C121.769 118.33 115.413 116.501 109.521 114.687C103.502 112.835 97.4686 111.151 91.4031 109.475C83.4351 107.276 75.4529 105.134 67.4741 102.976C59.5243 100.825 51.4328 98.9503 43.5796 96.4719C28.4962 91.708 12.838 89.1403 -2.47104 85.2535C-9.55654 83.455 -16.9199 83.2961 -24.0403 81.6736C-31.2707 80.0245 -38.81 78.6566 -46.2026 78.0054C-51.5752 77.5335 -56.9566 78.5221 -62.302 77.5426C-64.6337 77.1148 -65.6878 80.6168 -63.3069 81.143C-56.5566 82.6338 -49.5178 81.3229 -42.666 82.1693C-34.988 83.1162 -27.4685 85.0809 -19.8356 86.2765C-16.4228 86.81 -12.9809 87.1345 -9.56345 87.6373C-5.6621 88.2102 -1.86733 89.259 1.96575 90.1652C9.63337 91.9785 17.3565 93.5455 25.0336 95.3134C32.8762 97.1175 40.5499 99.4487 48.3158 101.528C56.3 103.664 64.2849 105.802 72.2691 107.937C79.7791 109.947 87.2844 111.949 94.8321 113.795C101 115.304 106.984 117.447 113.178 118.858C118.197 120.002 123.074 120.483 128.189 119.78C129.164 119.646 128.96 118.041 127.991 118.081Z" fill="#F86D46"/>
<path d="M92.4117 85.9143C91.2809 87.0061 90.1531 88.0897 88.9393 89.0902C87.6907 90.119 86.2432 90.9574 85.1194 92.1163C84.7235 92.5227 85.0763 93.4045 85.6983 93.1694C88.6933 92.0374 91.0494 89.0144 93.2261 86.7721C93.7556 86.2253 92.9597 85.3826 92.4117 85.9143Z" fill="#FEC884"/>
<path d="M119.64 131.149C121.493 132.672 120.998 135.005 121.109 137.101C121.128 137.443 121.621 137.653 121.802 137.299C122.916 135.101 122.492 131.728 120.132 130.536C119.758 130.349 119.275 130.849 119.64 131.149Z" fill="#FEC884"/>
<path d="M78.1981 131.251C78.7704 131.666 79.2416 132.222 79.5809 132.838C79.9208 133.456 79.976 134.161 80.2785 134.782C80.4029 135.034 80.767 135.018 80.9056 134.794C81.948 133.112 80.2684 130.956 78.8434 130.177C78.1269 129.786 77.5505 130.781 78.1981 131.251Z" fill="#FEC884"/>
<path d="M32.0605 107.824C33.3272 109.365 34.3112 111.007 35.0013 112.881C35.2002 113.422 35.9673 113.241 35.8735 112.662C35.5128 110.446 34.2972 108.735 32.8481 107.074C32.3827 106.54 31.6203 107.288 32.0605 107.824Z" fill="#FEC884"/>
</svg>
