<svg width="227" height="137" viewBox="0 0 227 137" fill="none" xmlns="http://www.w3.org/2000/svg">
<path d="M185.737 54.8252C178.85 54.7779 176.071 68.8189 173.916 73.9788C172.774 76.7143 169.389 82.1106 165.826 81.3426C161.845 80.4855 163.647 74.5781 159.457 73.8949C154.055 73.0135 150.551 84.0318 149.276 87.8747C146.245 94.1999 142.55 100.421 134.272 101.165C124.665 101.702 133.133 86.7086 122.551 89.1324C116.161 90.8517 112.961 102.589 109.476 107.483C104.453 113.496 98.6228 115.983 90.3426 116.728C83.4964 117.016 76.9597 115.314 72.3764 109.836C70.1358 106.766 70.199 102.015 66.4227 100.064C63.3118 98.218 60.1363 101.121 57.0647 103.359C53.9931 105.598 50.8176 108.501 46.7311 108.542C45.2991 108.998 38.5551 108.621 36.6684 107.647C33.5561 105.799 35.5075 102.024 33.9306 99.0599C31.6903 95.988 28.0583 97.4604 24.6359 97.605C14.3655 98.0367 11.3162 91.4401 7.8108 83.4116C4.86544 76.151 2.0257 68.2266 10.9273 63.5007C13.895 61.926 17.2151 62.4457 20.7415 61.637C25.5973 61.0382 25.7012 60.3741 26.4285 55.7276C27.8828 46.4362 32.0746 45.7334 40.7054 47.0843C43.3615 47.5 46.7839 47.3554 49.3361 48.4352C51.8883 49.5149 56.0173 53.5593 59.6474 52.0883C63.2791 50.6176 59.9182 46.0114 59.7753 42.5893C59.6307 39.1668 62.1405 36.1599 64.652 33.1532C70.2351 27.9078 77.8494 27.0604 85.1537 28.2037C89.1362 28.8271 91.7923 29.2428 94.9049 31.0889C98.5756 33.7043 100.048 37.3346 103.617 40.6127C105.401 42.2509 109.736 44.9686 112.496 44.722C117.247 44.7852 116.542 40.5949 116.503 36.5087C115.902 31.6559 111.899 18.1106 119.62 16.5977C127.234 15.7504 134.93 23.0742 138.85 28.4483C141.753 31.6222 147.789 49.5657 154.491 45.8544C158.994 43.1595 156.175 26.3996 167.295 33.5791C170.407 35.4268 172.897 41.2554 175.033 44.9896C178.173 50.8995 181.662 54.7959 185.737 54.8252Z" fill="#FEAB41"/>
<path d="M42.6454 98.6171C44.8117 93.9941 47.8451 89.7717 51.1098 85.8625C54.5405 81.7553 58.7541 77.9536 63.8261 76.0502C65.0247 75.6002 64.7534 73.8827 63.5636 73.6537C57.2629 72.4436 52.5723 66.679 48.5614 62.1095C46.6247 59.9039 45.0343 57.5936 43.3729 55.1799C42.2645 53.5688 40.6101 51.5254 38.4192 51.8286C37.7762 51.9177 37.4294 52.812 38.0085 53.2292C40.3239 54.9043 41.7192 57.2816 43.2665 59.6381C44.8247 62.0118 46.8437 64.1175 48.7518 66.2109C52.6542 70.4915 57.2664 75.02 63.1774 76.1213C63.089 75.3212 63.002 74.523 62.9149 73.7248C52.6851 77.6327 45.4002 88.3122 41.5042 98.1C41.204 98.8496 42.3017 99.3496 42.6454 98.6171Z" fill="#F68E5D"/>
<path d="M88.0807 106.475C90.6866 98.8907 93.9454 91.3824 97.7748 84.3242C101.325 77.7812 106.336 71.5284 113.244 68.3877C114.207 67.9503 114.17 66.7549 113.298 66.2543C109.929 64.3203 106.151 63.093 102.926 60.9132C99.2348 58.4193 96.188 54.4059 93.2094 51.1467C92.1513 49.9897 90.511 49.1449 89.2615 48.1836C87.8107 47.0677 86.4641 45.8313 85.2311 44.4811C82.5984 41.6008 81.6208 37.5814 78.3625 35.2578C77.7196 34.8 76.85 35.551 77.3409 36.2261C79.7702 39.5651 81.0204 43.3606 83.8336 46.4315C86.4654 49.3065 90.0093 51.1159 92.6206 53.9586C95.5092 57.1046 98.4647 60.7072 102.026 63.1071C105.223 65.2622 109.004 66.4539 112.345 68.3666C112.364 67.6551 112.381 66.945 112.401 66.2335C105.307 69.4682 100.276 75.4888 96.4687 82.1301C94.4011 85.7413 92.9161 89.6265 91.1692 93.3939C89.2592 97.5152 87.1034 101.678 87.0229 106.31C87.0128 106.855 87.908 106.978 88.0807 106.475Z" fill="#F68E5D"/>
<path d="M134.481 89.8473C135.296 84.2676 137.621 78.9447 140.605 74.1967C142.018 71.9514 143.661 69.8514 145.477 67.9169C146.193 67.1538 147.162 66.5415 147.819 65.7401C148.201 65.2735 148.304 64.4349 148.612 63.9704C149.002 63.3802 149.53 62.8458 149.967 62.2903C150.38 61.7651 150.353 60.9114 149.784 60.4941C144.648 56.7196 140.262 51.8726 136.441 46.7979C134.337 44.0021 132.379 40.9949 130.806 37.8737C129.156 34.6002 128.15 31.0037 126.409 27.7861C126.095 27.2053 125.284 27.3844 125.294 28.0645C125.4 35.2807 129.861 42.1409 133.874 47.8251C137.753 53.3209 142.708 58.5321 148.168 62.4736C148.108 61.8745 148.046 61.2751 147.986 60.676C146.637 62.5365 145.738 64.3495 144.148 65.9774C142.07 68.1033 140.377 70.5766 138.82 73.0952C135.733 78.0869 133.275 83.8897 133.168 89.8214C133.154 90.5781 134.375 90.5674 134.481 89.8473Z" fill="#F68E5D"/>
<path d="M31.3853 81.3569C37.056 78.7848 43.633 78.0879 49.7747 77.5518C56.0483 77.0023 62.2718 76.2927 68.5223 75.5635C76.7321 74.6025 84.9337 73.5838 93.1381 72.5809C101.313 71.582 109.515 70.2745 117.724 69.6159C133.491 68.3542 148.965 64.8415 164.611 62.6822C171.853 61.6825 178.735 59.059 185.942 57.883C193.262 56.6904 200.762 55.1209 207.856 52.9426C213.012 51.3583 217.625 48.4174 222.947 47.3137C225.268 46.8326 224.927 43.1914 222.523 43.5997C215.708 44.7585 209.679 48.6215 203.013 50.4154C195.543 52.4272 187.837 53.4362 180.315 55.2006C176.952 55.9904 173.641 56.9849 170.285 57.8049C166.455 58.742 162.545 59.1983 158.652 59.8009C150.866 61.006 143.121 62.4602 135.343 63.7109C127.398 64.9903 119.411 65.7178 111.433 66.7134C103.232 67.7391 95.0296 68.7627 86.8286 69.7884C79.1142 70.7517 71.4073 71.7213 63.7198 72.8512C57.4374 73.7738 51.0868 74.0395 44.8175 75.0632C39.736 75.8917 35.0368 77.2808 30.562 79.8571C29.7092 80.3475 30.502 81.7587 31.3853 81.3569Z" fill="#F86D46"/>
<path d="M76.4527 97.7717C77.0896 96.3348 77.7268 94.9064 78.475 93.5227C79.2447 92.0997 80.2703 90.7783 80.8754 89.2817C81.0893 88.7562 80.4306 88.0719 79.9429 88.5238C77.5939 90.6995 76.5484 94.3869 75.3754 97.2835C75.0906 97.9893 76.1451 98.4706 76.4527 97.7717Z" fill="#FEC884"/>
<path d="M34.2047 66.1069C31.9149 65.393 31.4961 63.0455 30.6038 61.1453C30.4575 60.8352 29.9221 60.8266 29.8874 61.2229C29.6827 63.6778 31.3448 66.6438 33.9792 66.8596C34.3963 66.8924 34.6562 66.2476 34.2047 66.1069Z" fill="#FEC884"/>
<path d="M72.5624 50.4189C71.8761 50.2499 71.23 49.9112 70.6839 49.4685C70.1365 49.0239 69.8201 48.3915 69.3061 47.9299C69.096 47.7431 68.7646 47.8947 68.7205 48.1544C68.3878 50.1056 70.7551 51.471 72.3686 51.6569C73.1797 51.7496 73.3392 50.6106 72.5624 50.4189Z" fill="#FEC884"/>
<path d="M124.125 54.7637C122.371 53.8124 120.842 52.662 119.497 51.1849C119.109 50.7584 118.467 51.2151 118.771 51.7157C119.939 53.6335 121.71 54.7618 123.677 55.7552C124.309 56.0746 124.734 55.095 124.125 54.7637Z" fill="#FEC884"/>
</svg>
