<svg width="221" height="121" viewBox="0 0 221 121" fill="none" xmlns="http://www.w3.org/2000/svg">
<path d="M42.4969 89.4767C49.2139 87.9515 48.7164 73.6468 49.6371 68.1315C50.1255 65.2075 52.1899 59.1813 55.8345 59.1161C59.9051 59.0427 59.4988 65.2053 63.7344 64.9146C69.1949 64.5404 70.0929 53.0133 70.4576 48.9808C71.9656 42.131 74.1439 35.2309 82.0343 32.6186C91.265 29.904 86.4409 46.4336 96.1911 41.6597C102.02 38.528 102.458 26.3698 104.735 20.8103C108.254 13.8096 113.363 10.058 121.255 7.44382C127.855 5.60229 134.607 5.76795 140.319 10.0557C143.201 12.5338 144.223 17.1735 148.345 18.2122C151.795 19.2997 154.225 15.749 156.705 12.8686C159.185 9.98823 161.614 6.4376 165.584 5.46577C166.874 4.69496 173.526 3.52353 175.585 4.04134C179.037 5.13036 177.998 9.25065 180.21 11.7773C183.092 14.2571 186.292 11.995 189.591 11.0734C199.492 8.31023 203.966 14.0372 209.211 21.0544C213.735 27.4516 218.307 34.5192 210.718 41.1512C208.188 43.3614 204.837 43.6128 201.588 45.2046C196.997 46.8954 197.047 47.5656 197.399 52.2556C198.103 61.6338 194.182 63.2743 185.471 63.9279C182.79 64.1291 179.491 65.0506 176.759 64.5815C174.028 64.1124 169.085 61.1167 165.887 63.377C162.686 65.6374 167.009 69.3554 167.929 72.6547C168.851 75.9539 167.093 79.4541 165.333 82.9545C161.094 89.3352 153.874 91.8973 146.501 92.4504C142.482 92.752 139.801 92.9532 136.349 91.8658C132.179 90.1568 129.917 86.9581 125.694 84.5806C123.583 83.3927 118.742 81.7356 116.112 82.6053C111.472 83.6274 113.114 87.5465 114.084 91.5161C115.776 96.1038 122.764 108.379 115.592 111.613C108.372 114.175 99.2083 108.8 94.1648 104.462C90.6143 102.034 80.6447 85.9404 74.9662 91.0828C71.1961 94.734 77.7643 110.409 65.2997 105.955C61.848 104.866 58.0948 99.7594 55.1626 96.6111C50.7575 91.5732 46.4716 88.5756 42.4969 89.4767Z" fill="#FEAB41"/>
<path d="M171.826 14.1962C170.771 19.1915 168.781 23.9945 166.494 28.5455C164.091 33.327 160.856 37.9897 156.352 40.9999C155.288 41.7115 155.944 43.3219 157.154 43.2734C163.565 43.0142 169.447 47.5568 174.394 51.0907C176.783 52.7963 178.859 54.6829 181.027 56.6541C182.474 57.9697 184.551 59.5819 186.614 58.7869C187.22 58.5535 187.354 57.6035 186.695 57.3295C184.058 56.2268 182.157 54.2305 180.113 52.2891C178.055 50.3334 175.609 48.7439 173.273 47.141C168.497 43.8634 162.974 40.5065 156.967 40.7827C157.236 41.5416 157.503 42.2989 157.77 43.0561C166.838 36.9176 171.495 24.8578 173.055 14.4393C173.176 13.6411 171.993 13.4047 171.826 14.1962Z" fill="#F68E5D"/>
<path d="M125.796 16.9102C124.989 24.8895 123.529 32.9431 121.41 40.6888C119.446 47.8692 115.994 55.1003 109.984 59.7341C109.147 60.3795 109.455 61.535 110.419 61.8235C114.14 62.938 118.099 63.2709 121.736 64.6577C125.899 66.2437 129.781 69.4562 133.424 71.95C134.718 72.8351 136.508 73.2834 137.944 73.9343C139.611 74.6899 141.204 75.5864 142.713 76.6197C145.933 78.8235 147.802 82.5139 151.504 84.0329C152.235 84.332 152.91 83.4024 152.278 82.8571C149.151 80.1604 147.068 76.7502 143.628 74.402C140.41 72.2032 136.547 71.25 133.356 69.0779C129.826 66.6739 126.126 63.8405 122.112 62.3161C118.507 60.9473 114.554 60.6495 110.865 59.5495C111.008 60.2466 111.154 60.9419 111.297 61.639C117.466 56.8713 120.991 49.8617 123.183 42.5271C124.372 38.5395 124.931 34.4179 125.773 30.3514C126.692 25.903 127.841 21.3579 126.863 16.8301C126.749 16.2968 125.849 16.3812 125.796 16.9102Z" fill="#F68E5D"/>
<path d="M84.413 43.6848C84.8922 49.3033 83.8424 55.0163 82.0202 60.3198C81.1567 62.8283 80.036 65.2477 78.7097 67.5454C78.1866 68.4517 77.3826 69.269 76.9257 70.1991C76.6598 70.7407 76.7516 71.5805 76.5571 72.1031C76.3123 72.7667 75.92 73.4075 75.6209 74.0481C75.3395 74.6534 75.5606 75.4785 76.2096 75.755C82.0706 78.2585 87.447 81.977 92.3247 86.0462C95.0112 88.2884 97.6038 90.7695 99.8472 93.4496C102.2 96.2604 104 99.5326 106.429 102.268C106.868 102.762 107.616 102.403 107.452 101.743C105.702 94.7411 99.7936 89.0794 94.5902 84.4605C89.5591 79.9947 83.546 76.0512 77.3312 73.4591C77.5263 74.0287 77.7232 74.5982 77.9183 75.1678C78.8076 73.0486 79.2694 71.0783 80.4459 69.1306C81.984 66.5867 83.0682 63.7924 84.0091 60.9852C85.8761 55.4209 86.9461 49.2102 85.6964 43.4106C85.5376 42.6707 84.3518 42.9595 84.413 43.6848Z" fill="#F68E5D"/>
<path d="M186.727 28.4327C181.792 32.2305 175.548 34.4095 169.69 36.3324C163.707 38.2987 157.81 40.4093 151.89 42.5452C144.116 45.3537 136.363 48.2166 128.604 51.0646C120.873 53.9021 113.185 57.0463 105.343 59.5601C90.2793 64.3855 76.015 71.3356 61.2738 77.0072C54.4513 79.6326 48.3492 83.7568 41.6 86.546C34.7455 89.377 27.8014 92.6161 21.391 96.3553C16.733 99.074 12.9117 102.99 7.98263 105.278C5.83227 106.276 6.99506 109.744 9.24246 108.798C15.6136 106.115 20.6016 100.978 26.6832 97.711C33.4973 94.0482 40.7701 91.3077 47.6911 87.874C50.785 86.3378 53.7819 84.6142 56.8618 83.0504C60.3773 81.2642 64.0806 79.9279 67.7328 78.4532C75.039 75.5036 82.2481 72.3209 89.5359 69.3287C96.9796 66.2706 104.59 63.7403 112.13 60.951C119.881 58.0815 127.633 55.2136 135.384 52.3442C142.676 49.6464 149.958 46.9442 157.185 44.0904C163.091 41.759 169.214 40.0515 175.084 37.6246C179.843 35.6587 184.101 33.2342 187.87 29.705C188.589 29.033 187.495 27.8399 186.727 28.4327Z" fill="#F86D46"/>
<path d="M139.103 22.7317C138.811 24.2761 138.516 25.8122 138.103 27.33C137.679 28.8911 136.981 30.4116 136.734 32.0069C136.645 32.5673 137.443 33.0832 137.815 32.532C139.605 29.8778 139.782 26.0491 140.263 22.9613C140.38 22.2092 139.243 21.9812 139.103 22.7317Z" fill="#FEC884"/>
<path d="M187.46 43.9237C189.852 44.0965 190.796 46.2865 192.098 47.9331C192.311 48.2016 192.834 48.0878 192.778 47.6941C192.417 45.2571 190.122 42.7485 187.508 43.1394C187.094 43.2026 186.989 43.8897 187.46 43.9237Z" fill="#FEC884"/>
<path d="M153.692 67.9486C154.399 67.9565 155.106 68.1389 155.738 68.4454C156.373 68.7534 156.825 69.2969 157.431 69.6291C157.678 69.763 157.966 69.5399 157.95 69.2769C157.828 67.3012 155.212 66.5119 153.599 66.699C152.788 66.7938 152.892 67.9392 153.692 67.9486Z" fill="#FEC884"/>
<path d="M102.499 75.4813C104.424 76.0075 106.175 76.7787 107.821 77.9101C108.296 78.2368 108.817 77.6456 108.407 77.2277C106.832 75.627 104.851 74.9323 102.709 74.4139C102.021 74.2471 101.83 75.2978 102.499 75.4813Z" fill="#FEC884"/>
</svg>
