<svg width="61" height="61" viewBox="0 0 61 61" fill="none" xmlns="http://www.w3.org/2000/svg">
<path d="M43.3511 30.5419C43.3511 30.5029 43.354 30.4632 43.354 30.4235C43.354 29.2069 43.1812 28.0301 42.8656 26.9136L59.7526 21.9245C58.9266 19.128 57.7056 16.4684 56.1205 14.0169L41.3696 23.561C40.7069 22.5144 39.9 21.5707 38.9725 20.7572L50.4357 7.48467C48.232 5.57966 45.7746 4.00491 43.1304 2.79938L35.8745 18.7448C34.7697 18.2336 33.5789 17.8769 32.3315 17.6982L34.7697 0.361852C33.3619 0.163996 31.9254 0.0639648 30.5007 0.0639648H30.4993C29.0392 0.0639648 27.5697 0.168409 26.1302 0.376563L28.6266 17.7026C27.3792 17.885 26.192 18.2469 25.0887 18.7603L17.7784 2.84057C15.1393 4.05419 12.6871 5.63703 10.4893 7.54793L21.9959 20.7837C21.0713 21.6009 20.2659 22.5475 19.6084 23.5956L4.82504 14.1007C3.24808 16.5574 2.0352 19.2222 1.21876 22.0208L18.1211 26.9562C17.8122 28.0602 17.6438 29.2224 17.6438 30.425C17.6438 30.4801 17.6467 30.5345 17.6489 30.5897L0 30.6088C0.0029421 33.5237 0.419985 36.4114 1.23789 39.1953L18.2101 34.2011C18.5713 35.3794 19.0979 36.4827 19.7621 37.4919L4.86182 47.1074C6.43437 49.5464 8.34453 51.7456 10.5401 53.6477L22.168 40.2133C23.0859 40.9952 24.1149 41.6498 25.2278 42.1529L17.8402 58.3403C20.4961 59.5532 23.3066 60.3748 26.1979 60.7859L28.698 43.1569C29.2879 43.2393 29.8888 43.2849 30.5007 43.2849C31.1127 43.2849 31.7246 43.2393 32.3175 43.1547L34.8381 60.7808C37.728 60.3667 40.5384 59.5422 43.1907 58.3256L35.7862 42.1463C36.8991 41.6439 37.9259 40.9871 38.8438 40.2038L50.4864 53.6256C52.679 51.7221 54.5877 49.5192 56.1566 47.0787L41.2475 37.4794C41.9102 36.4702 42.4346 35.3647 42.7943 34.1864L59.7717 39.163C60.5859 36.3798 61 33.4906 61 30.5772V30.5441H43.3511V30.5419Z" fill="#FF00A6"/>
</svg>
