<svg width="152" height="66" viewBox="0 0 152 66" fill="none" xmlns="http://www.w3.org/2000/svg">
<mask id="mask0_2_11" style="mask-type:luminance" maskUnits="userSpaceOnUse" x="110" y="0" width="19" height="18">
<path d="M110.144 0H128.365V17.3389H110.144V0Z" fill="white"/>
</mask>
<g mask="url(#mask0_2_11)">
<mask id="mask1_2_11" style="mask-type:luminance" maskUnits="userSpaceOnUse" x="110" y="0" width="19" height="18">
<path d="M119.241 0L121.388 6.62284H128.337L122.716 10.716L124.862 17.3389L119.241 13.2457L113.619 17.3389L115.766 10.716L110.144 6.62284H117.093L119.241 0Z" fill="white"/>
</mask>
<g mask="url(#mask1_2_11)">
<path d="M110.144 0H128.365V17.3389H110.144V0Z" fill="#F3A583"/>
</g>
</g>
<path d="M14.9623 15.1546C15.9443 11.6969 16.5357 9.22237 16.7352 7.72981C16.9373 6.23481 17.0389 5.48669 17.0389 5.48669C17.0389 5.48669 17.3291 5.39731 17.9107 5.21732C18.4947 5.03489 19.2428 4.94305 20.1538 4.94305C21.8288 4.94305 23.0018 5.28956 23.6752 5.98135C24.3474 6.6707 24.7208 8.01755 24.7968 10.0219L25.9428 36.8365L37.9029 11.8781C38.7746 10.0562 39.355 8.6922 39.6464 7.78369C39.9403 6.87273 40.1411 6.10747 40.2488 5.48669C40.2488 5.48669 40.4851 5.39731 40.959 5.21732C41.4316 5.03489 42.2336 4.94305 43.3637 4.94305C45.4011 4.94305 46.6843 5.4169 47.2133 6.36337C47.7422 7.31106 47.823 8.82076 47.4582 10.8937L42.9817 36.6161C42.727 38.1834 42.8446 39.3319 43.3343 40.0592C43.8266 40.7877 44.5294 41.1513 45.4403 41.1513C46.3476 41.1513 47.1839 40.8611 47.9479 40.2795C48.7144 39.6955 49.3793 39.0306 49.9413 38.2862C50.5057 37.5393 50.9159 36.91 51.1706 36.4006C51.9738 36.4006 52.3191 36.8745 52.2089 37.8209C52.0644 38.9119 51.5195 40.0861 50.5731 41.3423C49.6254 42.5998 48.4328 43.6736 46.9929 44.565C45.5554 45.4564 44.0004 45.902 42.3254 45.902C40.3958 45.902 38.8199 45.2935 37.5992 44.0752C36.3809 42.8545 35.7724 41.2052 35.7724 39.1286C35.7724 37.8552 35.836 36.6357 35.9634 35.4701C36.0907 34.3044 36.2817 32.9943 36.5364 31.5373L39.3232 15.6444L27.9068 39.731C27.2138 41.2236 26.7313 42.4884 26.4571 43.5267C26.1852 44.565 26.0506 45.0841 26.0506 45.0841C26.0506 45.0841 25.7494 45.2213 25.1494 45.4955C24.5482 45.7674 23.7009 45.902 22.6075 45.902C21.1505 45.902 20.1856 45.4025 19.713 44.4034C19.2428 43.4018 18.9698 42.0623 18.8951 40.3873L17.8029 15.4289L12.3959 35.4701C11.3772 39.3294 10.1846 42.0329 8.82065 43.5806C7.45544 45.1282 5.86248 45.902 4.04056 45.902C2.80268 45.902 1.8207 45.5127 1.09217 44.7315C0.364874 43.9479 0 42.9365 0 41.695C0 40.7485 0.127339 40.0579 0.382016 39.6233C0.636694 39.1861 0.764032 38.967 0.764032 38.967C0.764032 38.967 0.919532 39.0404 1.22931 39.1874C1.54031 39.3319 2.0215 39.4029 2.67411 39.4029C3.87526 39.4029 4.95764 39.0772 5.92125 38.4233C6.88731 37.7671 7.82643 36.5475 8.73739 34.7648C9.64836 32.9796 10.5765 30.4108 11.5242 27.0608L14.9623 15.1546Z" fill="#F7DAE8"/>
<path d="M73.5062 36.3468C73.2148 37.9826 73.2883 39.1923 73.7266 39.9759C74.1638 40.7595 74.8739 41.1513 75.8571 41.1513C76.8036 41.1513 77.8223 40.724 78.9132 39.8682C80.0066 39.0135 80.8992 37.8577 81.5923 36.4006C81.9547 36.4006 82.2351 36.5108 82.4347 36.7288C82.6367 36.9479 82.7003 37.3116 82.6257 37.8209C82.4812 38.5495 82.1457 39.3686 81.6167 40.2796C81.0878 41.1881 80.385 42.0697 79.5108 42.9243C78.639 43.7802 77.6374 44.4903 76.5085 45.0548C75.382 45.6204 74.1625 45.9021 72.85 45.9021C71.0672 45.9021 69.593 45.3658 68.4274 44.2907C67.2618 43.2169 66.6067 41.6974 66.4634 39.731C65.3333 41.7329 64.0489 43.2622 62.609 44.3201C61.1715 45.3756 59.6716 45.9021 58.1081 45.9021C55.8845 45.9021 53.9891 45.138 52.4219 43.61C50.8583 42.0794 50.0759 39.7114 50.0759 36.5084C50.0759 33.4498 50.4775 30.8014 51.2807 28.5644C52.0803 26.325 53.1345 24.4688 54.4446 22.9958C55.7572 21.5204 57.2044 20.4184 58.7888 19.6899C60.372 18.9589 61.965 18.5928 63.5689 18.5928C64.9525 18.5928 66.1267 18.8401 67.0903 19.3323C68.0564 19.8258 68.8486 20.4723 69.4657 21.2718C69.9028 20.2898 70.4942 19.5968 71.2386 19.1952C71.9855 18.7936 73.0336 18.5928 74.3829 18.5928C75.3294 18.5928 76.02 18.6846 76.4546 18.8671C76.8917 19.0507 77.1109 19.1413 77.1109 19.1413C77.1109 19.1413 76.9738 19.4242 76.6995 19.9886C76.4277 20.5543 76.1473 21.5828 75.8571 23.0741L73.5062 36.3468ZM60.2924 41.1513C61.2744 41.1513 62.1841 40.7057 63.0204 39.8143C63.8591 38.9205 64.6048 37.772 65.2586 36.3712C65.9149 34.9705 66.4879 33.4792 66.9777 31.8948C67.4699 30.3116 67.8446 28.846 68.0993 27.4967L68.5939 24.9304C68.3392 24.3855 67.9376 23.8125 67.3891 23.2113C66.843 22.6113 66.0435 22.3101 64.9892 22.3101C63.7514 22.3101 62.5221 22.8929 61.3013 24.0586C60.0794 25.2218 59.0692 26.8686 58.2697 29.0003C57.4689 31.1295 57.0698 33.6677 57.0698 36.6161C57.0698 38.1479 57.3502 39.2878 57.9122 40.0347C58.4766 40.7791 59.27 41.1513 60.2924 41.1513Z" fill="#F7DAE8"/>
<path d="M103.107 41.313C103.107 41.313 103.407 41.1856 104.008 40.931C104.608 40.6763 105.382 40.3224 106.329 39.8682C107.276 39.4115 108.259 38.8825 109.278 38.2813C110.297 37.6814 111.207 37.0545 112.011 36.4006C112.336 36.4006 112.609 36.5108 112.829 36.7288C113.047 36.9479 113.119 37.2565 113.044 37.6544C112.936 38.1283 112.335 38.7846 111.242 39.6233C110.223 40.3873 108.921 41.215 107.338 42.1064C105.754 42.9978 104.161 43.845 102.558 44.6483L102.45 45.2996C101.395 51.6372 99.5927 56.5067 97.0435 59.9093C94.4967 63.3144 91.2018 65.0176 87.16 65.0176C85.3014 65.0176 83.8174 64.48 82.7081 63.4062C81.5988 62.3312 81.0429 60.9574 81.0429 59.2824C81.0429 57.6784 81.4714 56.1492 82.3261 54.6933C83.1807 53.2363 84.2827 51.9457 85.632 50.8193C86.9764 49.6537 88.4236 48.6056 89.9713 47.675C91.5189 46.7469 93.4021 45.7392 95.6232 44.6483L96.2795 40.7693C94.0584 44.1916 91.4749 45.9021 88.5265 45.9021C86.303 45.9021 84.4076 45.138 82.8403 43.61C81.2768 42.0794 80.4944 39.7114 80.4944 36.5084C80.4944 33.4498 80.896 30.8014 81.6992 28.5644C82.4987 26.325 83.5529 24.4688 84.8631 22.9958C86.1756 21.5204 87.6229 20.4184 89.2073 19.6899C90.7904 18.9589 92.3834 18.5928 93.9874 18.5928C95.3709 18.5928 96.5452 18.8401 97.5088 19.3323C98.4748 19.8258 99.267 20.4723 99.8841 21.2718C100.321 20.2898 100.913 19.5968 101.657 19.1952C102.404 18.7936 103.452 18.5928 104.801 18.5928C105.748 18.5928 106.438 18.6846 106.873 18.8671C107.31 19.0507 107.529 19.1413 107.529 19.1413C107.529 19.1413 107.384 19.4242 107.093 19.9886C106.802 20.5543 106.53 21.5828 106.276 23.0741L103.107 41.313ZM90.7108 41.1513C91.6928 41.1513 92.6026 40.7057 93.4388 39.8143C94.2775 38.9205 95.0232 37.772 95.677 36.3712C96.3333 34.9705 96.9064 33.4792 97.3961 31.8948C97.8883 30.3116 98.263 28.846 98.5177 27.4967L99.0123 24.9304C98.7577 24.3855 98.3561 23.8125 97.8075 23.2113C97.2614 22.6113 96.4619 22.3101 95.4077 22.3101C94.1698 22.3101 92.9405 22.8929 91.7198 24.0586C90.4978 25.2218 89.4876 26.8686 88.6881 29.0003C87.8873 31.1295 87.4882 33.6677 87.4882 36.6161C87.4882 38.1479 87.7686 39.2878 88.3306 40.0347C88.895 40.7791 89.6885 41.1513 90.7108 41.1513ZM86.6115 61.4129C88.5412 61.4129 90.2235 60.2828 91.661 58.0237C93.1009 55.7671 94.2224 52.4551 95.0257 48.0864C93.2392 48.9974 91.71 49.8618 90.4366 50.6822C89.1632 51.5013 88.1249 52.3106 87.3217 53.1114C85.1728 55.188 84.099 57.1348 84.099 58.9543C84.099 59.6461 84.3072 60.2289 84.7259 60.7027C85.1471 61.1754 85.7752 61.4129 86.6115 61.4129Z" fill="#F7DAE8"/>
<path d="M115.61 10.4039C115.61 9.27503 115.992 8.33713 116.756 7.59269C117.522 6.8458 118.416 6.47113 119.435 6.47113C120.489 6.47113 121.317 6.79927 121.918 7.45556C122.518 8.10939 122.819 8.9273 122.819 9.90928C122.819 10.857 122.463 11.7214 121.751 12.505C121.042 13.2886 120.089 13.6805 118.891 13.6805C117.904 13.6805 117.111 13.3719 116.511 12.7548C115.91 12.1353 115.61 11.3516 115.61 10.4039ZM113.7 23.7843C113.99 22.0383 114.072 20.8188 113.944 20.1258C113.817 19.434 113.753 19.0875 113.753 19.0875C113.753 19.0875 113.971 19.0066 114.41 18.8426C114.847 18.6761 115.575 18.5928 116.594 18.5928C118.706 18.5928 119.989 19.0128 120.444 19.8515C120.9 20.6878 120.964 22.0701 120.635 23.9998L118.504 36.3467C118.249 37.9826 118.33 39.1923 118.749 39.9759C119.17 40.7595 119.872 41.1513 120.855 41.1513C121.802 41.1513 122.82 40.724 123.911 39.8682C125.005 39.0135 125.897 37.8577 126.59 36.4006C126.953 36.4006 127.233 36.5108 127.433 36.7288C127.635 36.9479 127.699 37.3116 127.628 37.8209C127.482 38.5495 127.144 39.3686 126.615 40.2796C126.088 41.1881 125.388 42.0696 124.514 42.9243C123.638 43.7801 122.635 44.4903 121.506 45.0548C120.38 45.6204 119.162 45.902 117.853 45.902C115.959 45.902 114.42 45.3119 113.234 44.1291C112.053 42.9439 111.461 41.2591 111.461 39.0747C111.461 38.5299 111.499 37.8013 111.574 36.8904C111.646 35.9794 111.772 34.9791 111.951 33.8881L113.7 23.7843Z" fill="#F7DAE8"/>
<path d="M137.841 45.9021C135.437 45.9021 133.307 45.4294 131.449 44.4817C129.591 43.5353 128.135 42.1884 127.081 40.4412C126.023 38.6952 125.494 36.6553 125.494 34.324C125.494 31.9572 125.896 29.8084 126.699 27.8787C127.498 25.9491 128.581 24.2937 129.946 22.9125C131.31 21.5289 132.866 20.4625 134.613 19.7144C136.363 18.9675 138.167 18.5928 140.025 18.5928C142.281 18.5928 144.127 19.1756 145.564 20.3413C147.004 21.5069 147.724 22.9835 147.724 24.7687C147.724 26.369 147.296 27.7159 146.441 28.8093C145.585 29.9002 144.448 30.4451 143.028 30.4451C142.044 30.4451 141.362 30.2284 140.98 29.7937C140.598 29.3566 140.407 29.1374 140.407 29.1374C140.407 29.1374 140.58 28.9464 140.926 28.5644C141.272 28.1799 141.608 27.5971 141.935 26.8159C142.261 26.0323 142.425 25.0406 142.425 23.8382C142.425 23.0741 142.188 22.4656 141.715 22.0114C141.241 21.5547 140.64 21.3257 139.913 21.3257C138.786 21.3257 137.657 21.8179 136.528 22.7999C135.398 23.7831 134.459 25.1679 133.712 26.9531C132.968 28.7358 132.596 30.8296 132.596 33.2319C132.596 35.7823 133.296 37.8136 134.697 39.3245C136.1 40.833 138.076 41.5872 140.623 41.5872C142.48 41.5872 144.092 41.3154 145.457 40.7693C146.821 40.2245 147.977 39.5523 148.924 38.7515C149.871 37.9483 150.581 37.1647 151.055 36.4006C151.854 36.4006 152.147 36.8745 151.931 37.8209C151.784 38.4025 151.365 39.1482 150.673 40.0592C149.98 40.9701 149.033 41.8713 147.832 42.7627C146.63 43.654 145.192 44.4009 143.517 45.0009C141.842 45.6021 139.949 45.9021 137.841 45.9021Z" fill="#F7DAE8"/>
</svg>
