<svg width="94" height="95" viewBox="0 0 94 95" fill="none" xmlns="http://www.w3.org/2000/svg">
<path d="M42.7017 4.35043C48.8571 -3.07984 60.8196 -0.575836 63.4782 8.69936L66.9447 20.7933C67.9699 24.3701 70.5964 27.269 74.0551 28.6411L85.7494 33.2804C94.7181 36.8384 96.0332 48.9892 88.0336 54.3839L77.6028 61.4179C74.5178 63.4983 72.5724 66.8921 72.3362 70.6055L71.5378 83.161C70.9254 92.7902 59.7757 97.7959 52.173 91.8547L42.26 84.1081C39.3281 81.817 35.4993 81.0155 31.8946 81.9384L19.7069 85.0589C10.3597 87.4521 2.15362 78.3949 5.45462 69.3285L9.75878 57.5068C11.0318 54.0104 10.6108 50.1213 8.61919 46.9783L1.88522 36.3513C-3.27928 28.2012 2.7988 17.5979 12.4416 17.9356L25.0148 18.376C28.7334 18.5063 32.302 16.9041 34.6758 14.0387L42.7017 4.35043Z" fill="#FFAD00"/>
</svg>
