<svg width="94" height="94" viewBox="0 0 94 94" fill="none" xmlns="http://www.w3.org/2000/svg">
<mask id="mask0_2_106" style="mask-type:luminance" maskUnits="userSpaceOnUse" x="0" y="0" width="94" height="94">
<path d="M0 0H93.8605V93.4259H0V0Z" fill="white"/>
</mask>
<g mask="url(#mask0_2_106)">
<path d="M66.7012 46.8906C66.7012 46.8307 66.7057 46.7695 66.7057 46.7084C66.7057 44.8368 66.4398 43.0262 65.9543 41.3084L91.935 33.6327C90.6642 29.3303 88.7857 25.2384 86.3471 21.4667L63.6526 36.1505C62.633 34.5402 61.3917 33.0884 59.9647 31.8368L77.6009 11.4168C74.2106 8.48596 70.4298 6.06318 66.3617 4.20847L55.1983 28.7407C53.4987 27.9542 51.6666 27.4054 49.7474 27.1304L53.4987 0.458303C51.3327 0.153899 49.1227 0 46.9308 0H46.9285C44.6823 0 42.4213 0.160689 40.2067 0.480935L44.0474 27.1372C42.1282 27.4178 40.3018 27.9746 38.6044 28.7645L27.3573 4.27184C23.297 6.139 19.5243 8.57423 16.143 11.5142L33.8459 31.8775C32.4235 33.1347 31.1844 34.5911 30.1727 36.2037L7.42844 21.5957C5.00227 25.3753 3.13624 29.4751 1.88015 33.7809L27.8846 41.374C27.4093 43.0726 27.1502 44.8605 27.1502 46.7107C27.1502 46.7956 27.1547 46.8793 27.1581 46.9642L0.00506592 46.9936C0.00959237 51.4782 0.651217 55.9209 1.90957 60.2041L28.0215 52.5204C28.5772 54.3332 29.3874 56.0307 30.4092 57.5832L7.48502 72.3768C9.90441 76.1292 12.8432 79.5128 16.2211 82.4391L34.1107 61.7702C35.523 62.9731 37.1061 63.9802 38.8182 64.7543L27.4523 89.6588C31.5386 91.5248 35.8625 92.7888 40.3108 93.4214L44.1572 66.2989C45.0647 66.4257 45.9893 66.4958 46.9308 66.4958C47.8723 66.4958 48.8138 66.4257 49.7259 66.2955L53.6039 93.4135C58.05 92.7764 62.3739 91.5079 66.4545 89.6362L55.0625 64.7441C56.7747 63.9712 58.3544 62.9607 59.7667 61.7555L77.679 82.4052C81.0523 79.4765 83.9888 76.0874 86.4026 72.3327L63.4648 57.564C64.4844 56.0114 65.2912 54.3106 65.8446 52.4978L91.9644 60.1543C93.2171 55.8722 93.8542 51.4273 93.8542 46.9449V46.894H66.7012V46.8906Z" fill="#EE701E"/>
</g>
</svg>
