<svg width="61" height="61" viewBox="0 0 61 61" fill="none" xmlns="http://www.w3.org/2000/svg">
<path d="M43.3511 30.4779C43.3511 30.439 43.354 30.3992 43.354 30.3595C43.354 29.143 43.1812 27.9661 42.8656 26.8496L59.7526 21.8605C58.9266 19.0641 57.7056 16.4044 56.1205 13.9529L41.3696 23.4971C40.7069 22.4504 39.9 21.5067 38.9725 20.6933L50.4357 7.42071C48.232 5.5157 45.7746 3.94094 43.1304 2.73542L35.8745 18.6809C34.7697 18.1697 33.5789 17.8129 32.3315 17.6342L34.7697 0.297887C33.3619 0.100031 31.9254 0 30.5007 0H30.4993C29.0392 0 27.5697 0.104445 26.1302 0.312598L28.6266 17.6386C27.3792 17.821 26.192 18.1829 25.0887 18.6963L17.7784 2.77661C15.1393 3.99022 12.6871 5.57307 10.4893 7.48396L21.9959 20.7197C21.0713 21.5369 20.2659 22.4835 19.6084 23.5316L4.82504 14.0368C3.24808 16.4934 2.0352 19.1582 1.21876 21.9569L18.1211 26.8923C17.8122 27.9963 17.6438 29.1584 17.6438 30.361C17.6438 30.4161 17.6467 30.4706 17.6489 30.5257L0 30.5449C0.0029421 33.4598 0.419985 36.3474 1.23789 39.1314L18.2101 34.1372C18.5713 35.3155 19.0979 36.4188 19.7621 37.4279L4.86182 47.0434C6.43437 49.4824 8.34453 51.6816 10.5401 53.5837L22.168 40.1493C23.0859 40.9312 24.1149 41.5858 25.2278 42.0889L17.8402 58.2764C20.4961 59.4892 23.3066 60.3108 26.1979 60.722L28.698 43.0929C29.2879 43.1753 29.8888 43.2209 30.5007 43.2209C31.1127 43.2209 31.7246 43.1753 32.3175 43.0907L34.8381 60.7168C37.728 60.3027 40.5384 59.4782 43.1907 58.2616L35.7862 42.0823C36.8991 41.5799 37.9259 40.9231 38.8438 40.1398L50.4864 53.5616C52.679 51.6581 54.5877 49.4552 56.1566 47.0147L41.2475 37.4154C41.9102 36.4063 42.4346 35.3008 42.7943 34.1225L59.7717 39.099C60.5859 36.3158 61 33.4267 61 30.5132V30.4801H43.3511V30.4779Z" fill="#F7DAE8"/>
</svg>
