<svg width="116" height="115" viewBox="0 0 116 115" fill="none" xmlns="http://www.w3.org/2000/svg">
<mask id="mask0_9_50" style="mask-type:luminance" maskUnits="userSpaceOnUse" x="0" y="0" width="116" height="115">
<path d="M0.102295 0.149475H115.35V114.863H0.102295V0.149475Z" fill="white"/>
</mask>
<g mask="url(#mask0_9_50)">
<path d="M82.0021 57.7246C82.0021 57.6509 82.0076 57.5759 82.0076 57.5009C82.0076 55.2027 81.6811 52.9796 81.085 50.8704L112.986 41.4456C111.425 36.1629 109.119 31.1386 106.125 26.5075L78.2589 44.5372C77.007 42.56 75.4827 40.7773 73.7306 39.2406L95.3854 14.1677C91.2225 10.569 86.5804 7.59421 81.5852 5.31688L67.8782 35.439C65.7912 34.4733 63.5417 33.7994 61.1852 33.4618L65.7912 0.712207C63.1318 0.338442 60.4182 0.149475 57.7268 0.149475H57.724C54.966 0.149475 52.1898 0.346779 49.4706 0.739996L54.1865 33.4701C51.8299 33.8147 49.5873 34.4983 47.5032 35.4682L33.6933 5.39469C28.7079 7.6873 24.0755 10.6774 19.9237 14.2872L41.6605 39.2906C39.9139 40.8343 38.3925 42.6225 37.1503 44.6025L9.22351 26.6659C6.2445 31.3067 3.95328 36.3408 2.41098 41.6277L34.3408 50.9509C33.7572 53.0365 33.439 55.2319 33.439 57.5036C33.439 57.6079 33.4446 57.7107 33.4488 57.8149L0.108643 57.851C0.1142 63.3574 0.902025 68.8125 2.44711 74.0716L34.5089 64.6371C35.1911 66.8631 36.186 68.9472 37.4407 70.8536L9.29298 89.018C12.2636 93.6255 15.8721 97.78 20.0196 101.373L41.9856 75.9946C43.7197 77.4716 45.6635 78.7082 47.7658 79.6586L33.81 110.238C38.8274 112.529 44.1365 114.081 49.5985 114.858L54.3212 81.5552C55.4356 81.7108 56.5708 81.797 57.7268 81.797C58.8828 81.797 60.0389 81.7108 61.1588 81.551L65.9205 114.848C71.3797 114.066 76.6888 112.508 81.6992 110.21L67.7115 79.6461C69.8137 78.6971 71.7534 77.4563 73.4875 75.9765L95.4812 101.331C99.6232 97.7355 103.229 93.5741 106.193 88.9638L78.0282 70.83C79.2801 68.9236 80.2708 66.8353 80.9503 64.6094L113.022 74.0104C114.56 68.7527 115.342 63.2949 115.342 57.7913V57.7287H82.0021V57.7246Z" fill="#F4E105"/>
</g>
</svg>
