<svg width="116" height="115" viewBox="0 0 116 115" fill="none" xmlns="http://www.w3.org/2000/svg">
<mask id="mask0_24_40" style="mask-type:luminance" maskUnits="userSpaceOnUse" x="0" y="0" width="116" height="115">
<path d="M0.102295 0.149475H115.35V114.863H0.102295V0.149475Z" fill="white"/>
</mask>
<g mask="url(#mask0_24_40)">
<path d="M82.002 57.7246C82.002 57.6509 82.0076 57.5759 82.0076 57.5009C82.0076 55.2027 81.681 52.9796 81.0849 50.8704L112.986 41.4456C111.425 36.1629 109.119 31.1386 106.124 26.5075L78.2588 44.5372C77.0069 42.56 75.4826 40.7773 73.7305 39.2406L95.3853 14.1677C91.2225 10.569 86.5803 7.59421 81.5852 5.31688L67.8781 35.439C65.7912 34.4733 63.5416 33.7994 61.1851 33.4618L65.7912 0.712207C63.1317 0.338442 60.4181 0.149475 57.7267 0.149475H57.7239C54.9659 0.149475 52.1897 0.346779 49.4705 0.739996L54.1864 33.4701C51.8298 33.8147 49.5873 34.4983 47.5031 35.4682L33.6932 5.39469C28.7078 7.6873 24.0754 10.6774 19.9237 14.2872L41.6604 39.2906C39.9138 40.8343 38.3924 42.6225 37.1502 44.6025L9.22342 26.6659C6.24441 31.3067 3.95319 36.3408 2.41089 41.6277L34.3407 50.9509C33.7571 53.0365 33.4389 55.2319 33.4389 57.5036C33.4389 57.6079 33.4445 57.7107 33.4487 57.8149L0.108551 57.851C0.114109 63.3574 0.901933 68.8125 2.44701 74.0716L34.5088 64.6371C35.1911 66.8631 36.1859 68.9472 37.4406 70.8536L9.29289 89.018C12.2636 93.6255 15.872 97.78 20.0195 101.373L41.9855 75.9946C43.7196 77.4716 45.6634 78.7082 47.7657 79.6586L33.8099 110.238C38.8273 112.529 44.1364 114.081 49.5984 114.858L54.3212 81.5552C55.4355 81.7108 56.5707 81.797 57.7267 81.797C58.8828 81.797 60.0388 81.7108 61.1587 81.551L65.9204 114.848C71.3796 114.066 76.6887 112.508 81.6991 110.21L67.7114 79.6461C69.8136 78.6971 71.7533 77.4563 73.4874 75.9765L95.4812 101.331C99.6231 97.7355 103.229 93.5741 106.193 88.9638L78.0281 70.83C79.28 68.9236 80.2707 66.8353 80.9502 64.6094L113.022 74.0104C114.56 68.7527 115.342 63.2949 115.342 57.7913V57.7287H82.002V57.7246Z" fill="#584596"/>
</g>
</svg>
