<svg width="214" height="239" viewBox="0 0 214 239" fill="none" xmlns="http://www.w3.org/2000/svg">
<mask id="mask0_1_2595" style="mask-type:luminance" maskUnits="userSpaceOnUse" x="0" y="0" width="214" height="239">
<path d="M0 0H213.97V239H0V0Z" fill="white"/>
</mask>
<g mask="url(#mask0_1_2595)">
<path d="M104.473 28.9414C104.335 33.7247 104.807 38.4742 105.268 43.2265C105.417 44.7591 105.544 46.3029 105.595 47.8383C105.693 50.6756 106.21 53.4736 106.253 56.3109C106.267 57.073 106.674 57.1911 107.313 57.1826C109.903 57.1545 112.501 57.0336 115.082 57.177C119.32 57.4104 123.324 58.524 126.797 61.0885C130.242 63.6362 132.238 67.14 133.113 71.2625C134.137 76.0823 132.455 80.1907 129.373 83.7901C125.841 87.9125 121.159 89.7319 115.889 90.3618C113.567 90.6402 111.23 90.6739 108.904 90.8651C108.286 90.9157 108.002 91.1154 108.027 91.7593C108.179 96.0393 107.928 100.322 108.238 104.602C108.345 106.081 108.35 107.58 108.156 109.073C108.027 110.052 108.038 111.07 108.131 112.054C108.401 115.026 108.294 118.018 108.674 120.982C108.71 121.274 108.671 121.578 108.674 121.879C108.676 122.365 108.446 122.588 107.951 122.619C106.762 122.692 105.575 122.835 104.385 122.88C100.606 123.018 96.866 123.502 93.126 124.019C91.8943 124.188 90.6542 124.283 89.4169 124.385C85.9019 124.677 82.3896 124.978 78.8718 125.228C77.6317 125.318 76.3832 125.256 75.1374 125.296C74.6003 125.312 74.3304 125.088 74.1645 124.59C73.7398 123.316 73.2618 122.059 72.8316 120.785C71.3693 116.46 69.0916 112.661 65.6356 109.627C62.652 107.006 59.1257 105.645 55.2086 105.282C53.0349 105.08 50.8612 105.08 48.6959 105.527C44.9334 106.303 41.8852 108.187 39.4753 111.165C37.0935 114.107 35.2825 117.34 34.3967 121.035C33.885 123.164 33.7106 125.352 33.6431 127.54C33.6038 128.83 33.6122 128.842 32.2905 128.853C30.4965 128.87 28.7052 128.856 26.9111 128.881C23.3314 128.934 19.777 129.373 16.217 129.696C13.4443 129.947 10.6857 130.284 7.92992 130.647C7.31971 130.728 7.08631 130.503 6.97383 129.857C6.63358 127.888 6.63076 125.892 6.50422 123.915C6.2877 120.591 6.00368 117.273 5.78434 113.949C5.50314 109.686 5.13758 105.429 4.85356 101.166C4.54143 96.4554 3.98183 91.765 3.65564 87.0548C3.41099 83.4892 3.11011 79.9207 2.7811 76.3607C2.33399 71.5099 2.12589 66.6451 1.70128 61.7915C1.39477 58.2765 1.25135 54.7474 0.992646 51.2296C0.76206 48.0576 0.376813 44.8969 0.239023 41.7221C0.104045 38.5895 0.00843614 35.4485 0.16591 32.3102C0.216526 31.3063 0.334632 31.2417 1.31884 31.1657C5.37941 30.848 9.44842 30.5949 13.5006 30.1843C17.1534 29.816 20.7865 29.2564 24.4337 28.8149C25.865 28.6405 27.3048 28.5646 28.7418 28.4324C30.8648 28.2384 32.9935 28.0613 35.1138 27.8222C36.2302 27.6957 36.3764 27.4482 36.233 26.3544C35.8506 23.4748 35.9209 20.5925 36.3848 17.7327C36.8067 15.1315 37.3606 12.5614 38.3673 10.1008C40.5017 4.88451 44.4019 1.78847 49.8376 0.65803C54.8064 -0.373984 59.0217 1.40041 62.7842 4.54425C67.081 8.1324 68.9706 12.8397 69.1787 18.3176C69.2378 19.912 69.2069 21.5064 69.235 23.1008C69.2547 24.2538 69.3587 24.3438 70.4301 24.1722C73.6667 23.6548 76.9456 23.458 80.1906 23.0305C84.1359 22.5075 88.1037 22.2966 92.0602 21.9479C94.0877 21.7707 96.1292 21.7736 98.1651 21.6245C99.5515 21.5205 100.929 21.273 102.324 21.2871C103.983 21.3011 104.447 21.7342 104.467 23.4102C104.489 25.2549 104.473 27.0967 104.473 28.9414ZM149.864 238.367C153.883 238.097 157.924 238.373 161.953 238.055C164.279 237.872 166.624 237.864 168.955 237.799C173.682 237.664 178.378 237.113 183.108 237.029C184.835 237.001 186.587 236.911 188.316 236.736C190.889 236.478 193.456 236.196 196.046 236.202C197.191 236.202 198.363 236.323 199.48 236.135C203.422 235.468 207.418 235.755 211.375 235.35C212.876 235.198 213.197 234.99 213.222 233.455C213.301 228.775 213.402 224.093 213.441 219.417C213.531 208.36 213.762 197.303 213.292 186.246C213.129 182.47 212.834 178.693 212.899 174.905C212.899 174.807 212.893 174.709 212.885 174.607C212.612 170.192 212.336 165.778 212.069 161.36C211.94 159.226 211.923 157.08 211.681 154.96C211.183 150.604 211.178 146.223 210.925 141.858C210.722 138.332 210.846 134.786 210.826 131.249C210.826 130.9 210.821 130.548 210.829 130.2C210.843 129.705 210.613 129.463 210.112 129.483C209.415 129.508 208.703 129.446 208.025 129.57C205.908 129.947 203.76 129.834 201.631 130.011C198.214 130.298 194.775 130.301 191.345 130.425C191.195 130.43 191.044 130.43 190.895 130.444C186.831 130.79 182.762 131.06 178.679 130.998C178.381 130.996 178.08 131.018 177.785 130.993C177.088 130.934 176.837 131.237 176.778 131.932C176.601 134.019 176.109 136.052 175.552 138.062C173.992 143.72 170.325 147.319 164.743 148.998C162.966 149.532 161.157 149.741 159.299 149.338C155.179 148.444 152.319 145.852 150.112 142.455C148.163 139.454 147.055 136.105 146.4 132.601C146.088 130.931 146.074 130.892 144.375 130.962C139.508 131.167 134.64 131.401 129.772 131.631C129.477 131.645 129.185 131.746 128.887 131.758C126.454 131.859 124.027 132.284 121.595 132.095C120.054 131.977 118.516 131.912 116.975 131.867C115.439 131.82 115.394 131.839 115.493 133.436C115.681 136.462 115.858 139.488 116.03 142.514C116.244 146.338 116.595 150.151 116.792 153.975C116.89 155.899 116.955 157.842 117.203 159.771C117.487 161.987 117.191 164.248 117.543 166.472C117.622 166.978 117.343 167.2 116.812 167.054C116.044 166.846 115.279 166.624 114.478 166.582C110.15 166.348 106.067 167.161 102.321 169.428C99.0312 171.421 96.1573 173.797 94.6417 177.498C93.7109 179.776 93.3566 182.076 93.9358 184.497C95.1759 189.657 98.4379 193.066 103.261 194.98C106.52 196.274 109.914 196.924 113.471 196.524C114.857 196.37 116.238 196.271 117.588 195.9C118.181 195.737 118.538 195.897 118.564 196.597C118.592 197.39 118.758 198.183 118.746 198.974C118.707 201.766 119.03 204.541 119.179 207.322C119.354 210.596 119.705 213.858 120.017 217.122C120.254 219.594 120.569 222.058 120.808 224.529C121.12 227.743 121.623 230.938 121.828 234.163C121.907 235.446 122.034 236.736 122.332 237.999C122.5 238.708 122.869 238.927 123.606 238.916C126.693 238.871 129.781 238.899 132.132 238.899C138.543 238.997 144.204 238.75 149.864 238.367Z" fill="#FEB0DB"/>
</g>
</svg>
