<svg width="219" height="219" viewBox="0 0 219 219" fill="none" xmlns="http://www.w3.org/2000/svg">
<mask id="mask0_1_2842" style="mask-type:luminance" maskUnits="userSpaceOnUse" x="0" y="0" width="219" height="219">
<path d="M0.532959 0.679199H218.958V218.09H0.532959V0.679199Z" fill="white"/>
</mask>
<g mask="url(#mask0_1_2842)">
<path d="M196.235 110.888C192.171 110.888 188.361 111.973 185.066 113.856C183.805 114.58 182.612 115.422 181.516 116.376C178.42 118.174 173.822 119.894 169.901 117.474V64.8716C169.901 55.9865 162.696 48.7736 153.816 48.7736H100.602C98.9829 45.3238 100.231 41.4869 101.753 38.6376C105.53 34.6058 107.842 29.181 107.842 23.219C107.842 10.7709 97.7558 0.666504 85.3076 0.666504C72.8569 0.666504 62.7736 10.7709 62.7736 23.219C62.7736 27.285 63.8586 31.0981 65.7414 34.3978C66.463 35.6697 67.3057 36.8521 68.259 37.9582C69.9338 40.8417 71.5323 45.0368 69.7811 48.7736H16.797C7.91715 48.7736 0.714783 55.9865 0.714783 64.8716V117.474C4.63329 119.894 9.23121 118.174 12.3307 116.376C13.4262 115.422 14.6192 114.58 15.8885 113.856C19.175 111.973 22.9829 110.888 27.0462 110.888C39.5075 110.888 49.5908 120.989 49.5908 133.44C49.5908 145.899 39.5075 156.003 27.0462 156.003C21.0894 156.003 15.6804 153.678 11.6513 149.899C8.58603 148.256 4.35942 146.928 0.714783 149.175V202.006C0.714783 210.894 7.91715 218.104 16.797 218.104H69.3545C71.764 214.18 70.055 209.577 68.259 206.478C67.3057 205.38 66.463 204.197 65.7414 202.925C63.8586 199.628 62.7736 195.815 62.7736 191.749C62.7736 179.288 72.8569 169.197 85.3076 169.197C97.7558 169.197 107.842 179.288 107.842 191.749C107.842 197.708 105.53 203.123 101.753 207.168C100.11 210.225 98.7854 214.454 101.029 218.104H153.816C162.696 218.104 169.901 210.894 169.901 202.006V149.175C173.548 146.928 177.772 148.256 180.84 149.899C184.869 153.678 190.278 156.003 196.235 156.003C208.683 156.003 218.777 145.899 218.777 133.44C218.777 120.989 208.683 110.888 196.235 110.888Z" fill="#AC73BA"/>
</g>
</svg>
