<svg width="219" height="218" viewBox="0 0 219 218" fill="none" xmlns="http://www.w3.org/2000/svg">
<mask id="mask0_1_2815" style="mask-type:luminance" maskUnits="userSpaceOnUse" x="0" y="0" width="219" height="218">
<path d="M218.425 0.433594H1.52588e-05V217.845H218.425V0.433594Z" fill="white"/>
</mask>
<g mask="url(#mask0_1_2815)">
<path d="M22.7236 110.642C26.7869 110.642 30.5974 111.727 33.8918 113.61C35.1532 114.334 36.3462 115.177 37.4417 116.13C40.5385 117.929 45.1365 119.648 49.0576 117.228V64.626C49.0576 55.7408 56.2626 48.5279 65.1425 48.5279H118.356C119.975 45.0782 118.727 41.2413 117.205 38.392C113.429 34.3602 111.116 28.9354 111.116 22.9734C111.116 10.5253 121.202 0.420898 133.65 0.420898C146.101 0.420898 156.185 10.5253 156.185 22.9734C156.185 27.0394 155.1 30.8525 153.217 34.1522C152.495 35.4241 151.652 36.6065 150.699 37.7126C149.024 40.5961 147.426 44.7911 149.177 48.5279H202.161C211.041 48.5279 218.243 55.7408 218.243 64.626V117.228C214.325 119.648 209.727 117.929 206.627 116.13C205.532 115.177 204.339 114.334 203.07 113.61C199.783 111.727 195.975 110.642 191.912 110.642C179.451 110.642 169.367 120.744 169.367 133.195C169.367 145.653 179.451 155.758 191.912 155.758C197.869 155.758 203.278 153.432 207.307 149.653C210.372 148.01 214.599 146.683 218.243 148.929V201.761C218.243 210.648 211.041 217.859 202.161 217.859H149.604C147.194 213.935 148.903 209.332 150.699 206.232C151.652 205.134 152.495 203.952 153.217 202.68C155.1 199.383 156.185 195.569 156.185 191.503C156.185 179.042 146.101 168.951 133.65 168.951C121.202 168.951 111.116 179.042 111.116 191.503C111.116 197.463 113.429 202.877 117.205 206.922C118.848 209.979 120.173 214.209 117.929 217.859H65.1425C56.2626 217.859 49.0576 210.648 49.0576 201.761V148.929C45.4104 146.683 41.1864 148.01 38.1185 149.653C34.0893 153.432 28.6803 155.758 22.7236 155.758C10.2755 155.758 0.181625 145.653 0.181625 133.195C0.181625 120.744 10.2755 110.642 22.7236 110.642Z" fill="#90519F"/>
</g>
</svg>
