<svg width="219" height="218" viewBox="0 0 219 218" fill="none" xmlns="http://www.w3.org/2000/svg">
<mask id="mask0_1_2772" style="mask-type:luminance" maskUnits="userSpaceOnUse" x="0" y="0" width="219" height="218">
<path d="M0.532959 0H218.958V217.411H0.532959V0Z" fill="white"/>
</mask>
<g mask="url(#mask0_1_2772)">
<path d="M196.235 110.208C192.171 110.208 188.361 111.293 185.066 113.176C183.805 113.901 182.612 114.743 181.516 115.697C178.42 117.495 173.822 119.215 169.901 116.795V64.1924C169.901 55.3073 162.696 48.0944 153.816 48.0944H100.602C98.9829 44.6446 100.231 40.8077 101.753 37.9584C105.53 33.9266 107.842 28.5018 107.842 22.5398C107.842 10.0917 97.7558 -0.0126953 85.3076 -0.0126953C72.8569 -0.0126953 62.7736 10.0917 62.7736 22.5398C62.7736 26.6058 63.8586 30.4189 65.7414 33.7186C66.463 34.9905 67.3057 36.1729 68.259 37.279C69.9338 40.1625 71.5323 44.3576 69.7811 48.0944H16.797C7.91715 48.0944 0.714783 55.3073 0.714783 64.1924V116.795C4.63329 119.215 9.23121 117.495 12.3307 115.697C13.4262 114.743 14.6192 113.901 15.8885 113.176C19.175 111.293 22.9829 110.208 27.0462 110.208C39.5075 110.208 49.5908 120.31 49.5908 132.761C49.5908 145.22 39.5075 155.324 27.0462 155.324C21.0894 155.324 15.6804 152.999 11.6513 149.22C8.58603 147.577 4.35942 146.249 0.714783 148.496V201.327C0.714783 210.215 7.91715 217.425 16.797 217.425H69.3545C71.764 213.501 70.055 208.898 68.259 205.798C67.3057 204.7 66.463 203.518 65.7414 202.246C63.8586 198.949 62.7736 195.136 62.7736 191.07C62.7736 178.609 72.8569 168.517 85.3076 168.517C97.7558 168.517 107.842 178.609 107.842 191.07C107.842 197.029 105.53 202.444 101.753 206.488C100.11 209.546 98.7854 213.775 101.029 217.425H153.816C162.696 217.425 169.901 210.215 169.901 201.327V148.496C173.548 146.249 177.772 147.577 180.84 149.22C184.869 152.999 190.278 155.324 196.235 155.324C208.683 155.324 218.777 145.22 218.777 132.761C218.777 120.31 208.683 110.208 196.235 110.208Z" fill="#EDA9FF"/>
</g>
</svg>
