<svg width="133" height="132" viewBox="0 0 133 132" fill="none" xmlns="http://www.w3.org/2000/svg">
<mask id="mask0_1_2602" style="mask-type:luminance" maskUnits="userSpaceOnUse" x="0" y="0" width="133" height="132">
<path d="M0 0H132.616V132H0V0Z" fill="white"/>
</mask>
<g mask="url(#mask0_1_2602)">
<path d="M118.819 66.9123C116.352 66.9123 114.038 67.5711 112.038 68.7142C111.272 69.1539 110.548 69.6656 109.883 70.2443C108.003 71.3364 105.211 72.3804 102.83 70.9111V38.9739C102.83 33.5794 98.456 29.2001 93.0647 29.2001H60.7566C59.7733 27.1056 60.5311 24.7761 61.4553 23.0461C63.748 20.5983 65.1518 17.3046 65.1518 13.6848C65.1518 6.127 59.0282 -0.0078125 51.4704 -0.0078125C43.911 -0.0078125 37.789 6.127 37.789 13.6848C37.789 16.1534 38.4477 18.4686 39.5909 20.4719C40.029 21.2442 40.5406 21.9621 41.1194 22.6336C42.1363 24.3843 43.1068 26.9313 42.0436 29.2001H9.87457C4.48322 29.2001 0.110352 33.5794 0.110352 38.9739V70.9111C2.48945 72.3804 5.28105 71.3364 7.16291 70.2443C7.82803 69.6656 8.55231 69.1539 9.32296 68.7142C11.3183 67.5711 13.6303 66.9123 16.0973 66.9123C23.6631 66.9123 29.7851 73.0455 29.7851 80.6049C29.7851 88.1691 23.6631 94.3039 16.0973 94.3039C12.4807 94.3039 9.19665 92.8922 6.7504 90.5978C4.88933 89.6001 2.32317 88.7943 0.110352 90.1581V122.234C0.110352 127.631 4.48322 132.008 9.87457 132.008H41.7845C43.2475 129.626 42.2098 126.831 41.1194 124.949C40.5406 124.283 40.029 123.565 39.5909 122.792C38.4477 120.791 37.789 118.475 37.789 116.007C37.789 108.441 43.911 102.314 51.4704 102.314C59.0282 102.314 65.1518 108.441 65.1518 116.007C65.1518 119.625 63.748 122.912 61.4553 125.368C60.4576 127.224 59.6534 129.792 61.0156 132.008H93.0647C98.456 132.008 102.83 127.631 102.83 122.234V90.1581C105.045 88.7943 107.609 89.6001 109.472 90.5978C111.918 92.8922 115.202 94.3039 118.819 94.3039C126.377 94.3039 132.505 88.1691 132.505 80.6049C132.505 73.0455 126.377 66.9123 118.819 66.9123Z" fill="#51558F"/>
</g>
</svg>
