<svg width="219" height="219" viewBox="0 0 219 219" fill="none" xmlns="http://www.w3.org/2000/svg">
<path d="M22.7236 111.151C26.7869 111.151 30.5974 112.236 33.8918 114.119C35.1532 114.843 36.3462 115.686 37.4417 116.639C40.5385 118.438 45.1365 120.158 49.0576 117.738V65.1352C49.0576 56.2501 56.2626 49.0372 65.1425 49.0372H118.356C119.975 45.5875 118.727 41.7506 117.205 38.9012C113.429 34.8695 111.116 29.4447 111.116 23.4827C111.116 11.0346 121.202 0.930176 133.65 0.930176C146.101 0.930176 156.185 11.0346 156.185 23.4827C156.185 27.5486 155.1 31.3618 153.217 34.6615C152.495 35.9334 151.652 37.1158 150.699 38.2218C149.024 41.1054 147.426 45.3004 149.177 49.0372H202.161C211.041 49.0372 218.243 56.2501 218.243 65.1352V117.738C214.325 120.158 209.727 118.438 206.627 116.639C205.532 115.686 204.339 114.843 203.07 114.119C199.783 112.236 195.975 111.151 191.912 111.151C179.451 111.151 169.367 121.253 169.367 133.704C169.367 146.162 179.451 156.267 191.912 156.267C197.869 156.267 203.278 153.942 207.307 150.163C210.372 148.519 214.599 147.192 218.243 149.438V202.27C218.243 211.158 211.041 218.368 202.161 218.368H149.604C147.194 214.444 148.903 209.841 150.699 206.741C151.652 205.643 152.495 204.461 153.217 203.189C155.1 199.892 156.185 196.079 156.185 192.013C156.185 179.551 146.101 169.46 133.65 169.46C121.202 169.46 111.116 179.551 111.116 192.013C111.116 197.972 113.429 203.386 117.205 207.431C118.848 210.489 120.173 214.718 117.929 218.368H65.1425C56.2626 218.368 49.0576 211.158 49.0576 202.27V149.438C45.4104 147.192 41.1864 148.519 38.1185 150.163C34.0893 153.942 28.6803 156.267 22.7236 156.267C10.2755 156.267 0.181625 146.162 0.181625 133.704C0.181625 121.253 10.2755 111.151 22.7236 111.151Z" fill="#D699E6"/>
</svg>
