<svg width="220" height="218" viewBox="0 0 220 218" fill="none" xmlns="http://www.w3.org/2000/svg">
<mask id="mask0_1_2803" style="mask-type:luminance" maskUnits="userSpaceOnUse" x="0" y="0" width="220" height="218">
<path d="M0.664673 0.188477H219.09V217.6H0.664673V0.188477Z" fill="white"/>
</mask>
<g mask="url(#mask0_1_2803)">
<path d="M196.366 110.397C192.303 110.397 188.492 111.482 185.198 113.365C183.937 114.089 182.744 114.932 181.648 115.885C178.551 117.684 173.953 119.403 170.032 116.983V64.3808C170.032 55.4957 162.827 48.2828 153.947 48.2828H100.734C99.1146 44.8331 100.363 40.9962 101.885 38.1469C105.661 34.1151 107.973 28.6903 107.973 22.7283C107.973 10.2802 97.8875 0.175781 85.4394 0.175781C72.9886 0.175781 62.9053 10.2802 62.9053 22.7283C62.9053 26.7942 63.9903 30.6074 65.8732 33.9071C66.5947 35.179 67.4374 36.3614 68.3907 37.4674C70.0655 40.351 71.664 44.546 69.9128 48.2828H16.9287C8.04886 48.2828 0.846497 55.4957 0.846497 64.3808V116.983C4.765 119.403 9.36293 117.684 12.4624 115.885C13.5579 114.932 14.7509 114.089 16.0202 113.365C19.3067 111.482 23.1146 110.397 27.1779 110.397C39.6392 110.397 49.7225 120.499 49.7225 132.949C49.7225 145.408 39.6392 155.512 27.1779 155.512C21.2212 155.512 15.8121 153.187 11.783 149.408C8.71774 147.765 4.49113 146.438 0.846497 148.684V201.515C0.846497 210.403 8.04886 217.613 16.9287 217.613H69.4862C71.8958 213.69 70.1867 209.086 68.3907 205.987C67.4374 204.889 66.5947 203.706 65.8732 202.434C63.9903 199.137 62.9053 195.324 62.9053 191.258C62.9053 178.797 72.9886 168.706 85.4394 168.706C97.8875 168.706 107.973 178.797 107.973 191.258C107.973 197.218 105.661 202.632 101.885 206.677C100.242 209.734 98.9171 213.964 101.161 217.613H153.947C162.827 217.613 170.032 210.403 170.032 201.515V148.684C173.679 146.438 177.903 147.765 180.971 149.408C185.001 153.187 190.41 155.512 196.366 155.512C208.814 155.512 218.908 145.408 218.908 132.949C218.908 120.499 208.814 110.397 196.366 110.397Z" fill="#AC73BA"/>
</g>
</svg>
