<?xml version="1.0" standalone="no"?>
<!DOCTYPE svg PUBLIC "-//W3C//DTD SVG 20010904//EN"
 "http://www.w3.org/TR/2001/REC-SVG-20010904/DTD/svg10.dtd">
<svg version="1.0" xmlns="http://www.w3.org/2000/svg"
 width="1080.000000pt" height="1081.000000pt" viewBox="0 0 1080.000000 1081.000000"
 preserveAspectRatio="xMidYMid meet">

<g transform="translate(0.000000,1081.000000) scale(0.100000,-0.100000)"
fill="#000000" stroke="none">
<path d="M2457 8860 c-114 -18 -192 -53 -255 -114 -56 -53 -77 -94 -96 -188
-15 -71 -15 -84 3 -200 13 -86 38 -179 80 -306 36 -109 61 -200 61 -225 0
-139 -148 -265 -420 -359 l-95 -33 -697 -3 -698 -3 0 -771 0 -772 46 -43 c26
-23 72 -55 103 -70 48 -24 69 -28 141 -28 75 0 91 3 138 29 29 16 92 65 140
109 55 51 111 92 152 111 59 28 74 31 160 31 74 0 106 -5 140 -20 186 -82 297
-253 320 -490 31 -316 -77 -570 -290 -685 -62 -34 -69 -35 -170 -35 -92 0
-112 3 -161 27 -32 14 -97 61 -145 105 -110 98 -136 116 -198 137 -113 37
-237 3 -339 -93 l-37 -35 0 -767 c0 -690 2 -767 16 -773 9 -3 312 -6 675 -6
635 0 662 -1 736 -21 85 -22 162 -48 178 -59 6 -4 21 -11 33 -15 37 -11 135
-72 174 -108 54 -49 89 -112 95 -171 5 -52 -7 -97 -61 -246 -40 -108 -63 -199
-81 -315 -15 -100 -15 -116 -1 -183 49 -227 202 -322 521 -322 281 0 441 79
505 250 21 55 22 72 17 188 -6 141 -26 224 -111 470 -41 115 -43 139 -20 206
28 80 106 155 226 213 57 28 128 58 158 66 172 49 128 47 833 47 597 0 665 2
671 16 3 9 6 368 6 798 l0 783 -27 28 c-48 49 -127 93 -197 110 -64 16 -72 16
-131 0 -71 -19 -124 -52 -198 -121 -109 -104 -169 -137 -270 -154 -399 -63
-666 498 -440 925 131 248 411 328 618 177 22 -16 59 -47 82 -69 118 -113 169
-138 283 -138 77 1 91 4 148 34 34 19 79 52 99 74 l36 41 -6 395 c-4 218 -7
563 -7 768 l0 372 -697 4 c-770 3 -689 -3 -877 69 -166 64 -269 146 -305 243
-28 75 -27 98 15 217 94 271 108 335 109 493 0 132 -1 143 -27 195 -47 95
-118 150 -245 190 -78 24 -315 36 -416 20z"/>
</g>
</svg>
