<svg width="57" height="57" viewBox="0 0 57 57" fill="none" xmlns="http://www.w3.org/2000/svg">
<mask id="mask0_1_2637" style="mask-type:luminance" maskUnits="userSpaceOnUse" x="0" y="0" width="57" height="57">
<path d="M0 0H57V56.7354H0V0Z" fill="white"/>
</mask>
<g mask="url(#mask0_1_2637)">
<path d="M51.0701 28.7598C50.0097 28.7598 49.0153 29.0429 48.1556 29.5343C47.8264 29.7233 47.5151 29.9432 47.2292 30.1919C46.4211 30.6613 45.2212 31.11 44.198 30.4785V16.7515C44.198 14.4328 42.3178 12.5505 40.0005 12.5505H26.114C25.6914 11.6503 26.0171 10.649 26.4143 9.90547C27.3998 8.85335 28.0032 7.4377 28.0032 5.88185C28.0032 2.63341 25.3711 -0.00341797 22.1227 -0.00341797C18.8736 -0.00341797 16.2422 2.63341 16.2422 5.88185C16.2422 6.94291 16.5254 7.93799 17.0167 8.79906C17.205 9.13099 17.4249 9.43954 17.6737 9.72817C18.1108 10.4807 18.5279 11.5754 18.0709 12.5505H4.24422C1.92695 12.5505 0.0474243 14.4328 0.0474243 16.7515V30.4785C1.06999 31.11 2.26986 30.6613 3.07871 30.1919C3.36459 29.9432 3.6759 29.7233 4.00713 29.5343C4.86477 29.0429 5.85848 28.7598 6.91884 28.7598C10.1707 28.7598 12.8021 31.3959 12.8021 34.6451C12.8021 37.8963 10.1707 40.5331 6.91884 40.5331C5.36437 40.5331 3.95284 39.9263 2.90141 38.9401C2.1015 38.5113 0.998524 38.165 0.0474243 38.7511V52.538C0.0474243 54.8573 1.92695 56.7389 4.24422 56.7389H17.9596C18.5884 55.7149 18.1424 54.5137 17.6737 53.7048C17.4249 53.4183 17.205 53.1097 17.0167 52.7778C16.5254 51.9174 16.2422 50.9223 16.2422 49.8613C16.2422 46.6094 18.8736 43.976 22.1227 43.976C25.3711 43.976 28.0032 46.6094 28.0032 49.8613C28.0032 51.4164 27.3998 52.8293 26.4143 53.8849C25.9855 54.6827 25.6398 55.7864 26.2253 56.7389H40.0005C42.3178 56.7389 44.198 54.8573 44.198 52.538V38.7511C45.1497 38.165 46.252 38.5113 47.0526 38.9401C48.1041 39.9263 49.5156 40.5331 51.0701 40.5331C54.3185 40.5331 56.9526 37.8963 56.9526 34.6451C56.9526 31.3959 54.3185 28.7598 51.0701 28.7598Z" fill="#FEB0DB"/>
</g>
</svg>
