<svg width="556" height="556" viewBox="0 0 556 556" fill="none" xmlns="http://www.w3.org/2000/svg">
<g clip-path="url(#clip0_507_26)">
<mask id="mask0_507_26" style="mask-type:luminance" maskUnits="userSpaceOnUse" x="97" y="192" width="102" height="103">
<path d="M138.069 192.684L198.912 231.27L158.729 294.631L97.8857 256.045L138.069 192.684Z" fill="white"/>
</mask>
<g mask="url(#mask0_507_26)">
<mask id="mask1_507_26" style="mask-type:luminance" maskUnits="userSpaceOnUse" x="87" y="99" width="416" height="302">
<path d="M87.5344 170.879L458.659 99.7819L502.692 329.63L131.565 400.728L87.5344 170.879Z" fill="white"/>
</mask>
<g mask="url(#mask1_507_26)">
<mask id="mask2_507_26" style="mask-type:luminance" maskUnits="userSpaceOnUse" x="87" y="99" width="416" height="302">
<path d="M87.5344 170.879L458.659 99.7819L502.692 329.63L131.565 400.728L87.5344 170.879Z" fill="white"/>
</mask>
<g mask="url(#mask2_507_26)">
<mask id="mask3_507_26" style="mask-type:luminance" maskUnits="userSpaceOnUse" x="87" y="99" width="416" height="302">
<path d="M87.5344 170.879L458.659 99.7819L502.692 329.63L131.565 400.728L87.5344 170.879Z" fill="white"/>
</mask>
<g mask="url(#mask3_507_26)">
<path d="M183.035 249.071L120.444 264.844C120.011 264.953 119.571 265.042 119.127 265.107C118.685 265.174 118.238 265.219 117.792 265.242C117.344 265.263 116.897 265.265 116.449 265.243C116 265.223 115.554 265.179 115.111 265.114C114.667 265.048 114.229 264.961 113.794 264.853C113.359 264.745 112.93 264.616 112.507 264.464C112.086 264.312 111.673 264.142 111.265 263.951C110.861 263.758 110.465 263.549 110.08 263.318C109.697 263.087 109.323 262.838 108.964 262.571C108.603 262.306 108.256 262.021 107.925 261.719C107.592 261.419 107.275 261.103 106.974 260.769C106.672 260.437 106.389 260.09 106.121 259.73C105.855 259.37 105.604 258.997 105.375 258.613C105.142 258.229 104.931 257.833 104.741 257.427C104.549 257.023 104.377 256.608 104.225 256.185C104.074 255.763 103.944 255.334 103.836 254.9C103.726 254.464 103.637 254.024 103.572 253.58C103.503 253.137 103.46 252.691 103.437 252.242C103.414 251.796 103.414 251.347 103.434 250.898C103.456 250.45 103.5 250.005 103.565 249.561C103.629 249.116 103.716 248.678 103.824 248.243C103.933 247.806 104.062 247.378 104.213 246.956C104.362 246.532 104.534 246.119 104.725 245.714C104.916 245.307 105.126 244.911 105.356 244.526C105.586 244.141 105.834 243.769 106.102 243.408C106.367 243.048 106.651 242.702 106.952 242.369C107.253 242.035 107.57 241.72 107.902 241.417C108.233 241.117 108.58 240.831 108.939 240.565C109.3 240.297 109.671 240.048 110.054 239.818C110.44 239.586 110.834 239.374 111.24 239.184C111.645 238.992 112.059 238.82 112.481 238.67C112.901 238.518 113.331 238.388 113.766 238.278L176.339 222.53C176.773 222.419 177.212 222.332 177.654 222.265C178.099 222.198 178.543 222.153 178.989 222.131C179.437 222.109 179.884 222.108 180.332 222.13C180.78 222.149 181.225 222.193 181.667 222.257C182.111 222.322 182.55 222.41 182.984 222.518C183.419 222.626 183.848 222.755 184.269 222.905C184.691 223.055 185.105 223.226 185.509 223.418C185.915 223.609 186.309 223.82 186.695 224.048C187.08 224.279 187.451 224.528 187.813 224.794C188.172 225.061 188.52 225.343 188.851 225.643C189.183 225.946 189.5 226.262 189.802 226.593C190.103 226.924 190.387 227.27 190.655 227.63C190.923 227.989 191.173 228.361 191.402 228.746C191.634 229.13 191.845 229.523 192.037 229.93C192.229 230.334 192.401 230.747 192.552 231.169C192.704 231.592 192.835 232.02 192.944 232.454C193.054 232.889 193.144 233.327 193.209 233.771C193.276 234.213 193.321 234.66 193.344 235.107C193.365 235.555 193.367 236.002 193.346 236.451C193.325 236.897 193.282 237.343 193.218 237.787C193.153 238.231 193.065 238.67 192.957 239.104C192.851 239.54 192.722 239.969 192.571 240.39C192.421 240.812 192.251 241.226 192.059 241.633C191.869 242.039 191.66 242.433 191.43 242.818C191.2 243.202 190.951 243.576 190.686 243.936C190.421 244.297 190.137 244.643 189.837 244.974C189.536 245.308 189.222 245.625 188.89 245.927C188.559 246.228 188.213 246.512 187.855 246.781C187.495 247.047 187.123 247.296 186.739 247.528C186.356 247.759 185.962 247.971 185.558 248.163C185.152 248.356 184.739 248.526 184.318 248.679C183.896 248.83 183.468 248.961 183.035 249.071Z" fill="#FB6042"/>
</g>
</g>
</g>
</g>
<mask id="mask4_507_26" style="mask-type:luminance" maskUnits="userSpaceOnUse" x="381" y="264" width="97" height="79">
<path d="M399.948 264.037L477.996 313.534L459.634 342.487L381.587 292.99L399.948 264.037Z" fill="white"/>
</mask>
<g mask="url(#mask4_507_26)">
<mask id="mask5_507_26" style="mask-type:luminance" maskUnits="userSpaceOnUse" x="87" y="99" width="416" height="302">
<path d="M87.5344 170.879L458.659 99.7819L502.692 329.63L131.565 400.728L87.5344 170.879Z" fill="white"/>
</mask>
<g mask="url(#mask5_507_26)">
<mask id="mask6_507_26" style="mask-type:luminance" maskUnits="userSpaceOnUse" x="87" y="99" width="416" height="302">
<path d="M87.5344 170.879L458.659 99.7819L502.692 329.63L131.565 400.728L87.5344 170.879Z" fill="white"/>
</mask>
<g mask="url(#mask6_507_26)">
<mask id="mask7_507_26" style="mask-type:luminance" maskUnits="userSpaceOnUse" x="87" y="99" width="416" height="302">
<path d="M87.5344 170.879L458.659 99.7819L502.692 329.63L131.565 400.728L87.5344 170.879Z" fill="white"/>
</mask>
<g mask="url(#mask7_507_26)">
<path d="M395.901 294.056L446.879 333.777C447.232 334.054 447.598 334.311 447.976 334.551C448.356 334.789 448.744 335.01 449.145 335.212C449.545 335.412 449.954 335.593 450.371 335.755C450.79 335.917 451.213 336.057 451.645 336.177C452.077 336.297 452.512 336.393 452.956 336.47C453.396 336.547 453.84 336.601 454.286 336.633C454.732 336.666 455.179 336.678 455.628 336.666C456.074 336.655 456.52 336.623 456.964 336.567C457.408 336.513 457.849 336.436 458.286 336.339C458.724 336.239 459.154 336.119 459.578 335.979C460.005 335.838 460.422 335.678 460.83 335.495C461.239 335.313 461.639 335.114 462.028 334.892C462.419 334.671 462.796 334.432 463.161 334.174C463.528 333.915 463.88 333.639 464.218 333.348C464.556 333.055 464.881 332.746 465.19 332.422C465.498 332.096 465.79 331.757 466.064 331.405C466.34 331.051 466.597 330.685 466.837 330.307C467.077 329.928 467.296 329.538 467.498 329.138C467.698 328.738 467.879 328.329 468.039 327.911C468.201 327.492 468.341 327.068 468.459 326.635C468.579 326.204 468.677 325.767 468.753 325.325C468.83 324.885 468.884 324.441 468.917 323.993C468.949 323.547 468.96 323.099 468.948 322.65C468.938 322.202 468.904 321.755 468.85 321.312C468.794 320.867 468.718 320.426 468.618 319.988C468.521 319.552 468.402 319.12 468.26 318.695C468.12 318.27 467.957 317.852 467.777 317.441C467.595 317.032 467.393 316.633 467.174 316.243C466.952 315.854 466.714 315.475 466.454 315.109C466.197 314.743 465.922 314.39 465.63 314.05C465.336 313.712 465.027 313.388 464.703 313.079C464.38 312.77 464.041 312.477 463.687 312.202L412.709 272.481C412.356 272.204 411.99 271.947 411.612 271.707C411.232 271.468 410.844 271.247 410.444 271.047C410.043 270.846 409.634 270.664 409.217 270.503C408.8 270.342 408.375 270.201 407.943 270.081C407.512 269.962 407.076 269.864 406.634 269.789C406.193 269.712 405.748 269.657 405.302 269.624C404.856 269.592 404.409 269.58 403.962 269.591C403.514 269.603 403.068 269.635 402.623 269.691C402.18 269.745 401.739 269.822 401.302 269.919C400.864 270.019 400.434 270.139 400.01 270.279C399.584 270.42 399.168 270.581 398.758 270.763C398.349 270.945 397.951 271.145 397.56 271.366C397.171 271.588 396.792 271.826 396.427 272.084C396.061 272.341 395.708 272.619 395.371 272.911C395.032 273.203 394.707 273.512 394.4 273.837C394.09 274.162 393.798 274.501 393.523 274.853C393.248 275.207 392.991 275.573 392.751 275.951C392.513 276.331 392.292 276.719 392.09 277.12C391.89 277.52 391.71 277.93 391.549 278.347C391.387 278.766 391.248 279.191 391.128 279.622C391.009 280.054 390.911 280.491 390.835 280.933C390.76 281.374 390.704 281.817 390.672 282.266C390.64 282.712 390.628 283.159 390.64 283.608C390.65 284.056 390.684 284.502 390.74 284.947C390.794 285.39 390.87 285.832 390.97 286.27C391.067 286.706 391.186 287.138 391.328 287.563C391.468 287.988 391.631 288.406 391.811 288.817C391.993 289.226 392.195 289.625 392.414 290.015C392.636 290.404 392.876 290.783 393.134 291.149C393.391 291.515 393.666 291.868 393.958 292.208C394.252 292.546 394.561 292.87 394.885 293.179C395.21 293.489 395.548 293.781 395.901 294.056Z" fill="#283977"/>
</g>
</g>
</g>
</g>
<mask id="mask8_507_26" style="mask-type:luminance" maskUnits="userSpaceOnUse" x="82" y="61" width="407" height="362">
<path d="M191.866 61.4683L488.11 249.343L378.472 422.222L82.2277 234.347L191.866 61.4683Z" fill="white"/>
</mask>
<g mask="url(#mask8_507_26)">
<mask id="mask9_507_26" style="mask-type:luminance" maskUnits="userSpaceOnUse" x="87" y="99" width="416" height="302">
<path d="M87.5344 170.879L458.659 99.7824L502.692 329.631L131.565 400.728L87.5344 170.879Z" fill="white"/>
</mask>
<g mask="url(#mask9_507_26)">
<mask id="mask10_507_26" style="mask-type:luminance" maskUnits="userSpaceOnUse" x="87" y="99" width="416" height="302">
<path d="M87.5344 170.879L458.659 99.7824L502.692 329.631L131.565 400.728L87.5344 170.879Z" fill="white"/>
</mask>
<g mask="url(#mask10_507_26)">
<mask id="mask11_507_26" style="mask-type:luminance" maskUnits="userSpaceOnUse" x="87" y="99" width="416" height="302">
<path d="M87.5344 170.879L458.659 99.7824L502.692 329.631L131.565 400.728L87.5344 170.879Z" fill="white"/>
</mask>
<g mask="url(#mask11_507_26)">
<path d="M425.598 228.504C413.476 226.16 401.246 224.809 388.906 224.453C367.743 223.505 345.537 223.584 329.105 230.844L308.616 238.161C307.582 238.53 306.528 238.825 305.452 239.046C304.378 239.265 303.293 239.41 302.198 239.478C301.102 239.546 300.009 239.537 298.915 239.45C297.821 239.363 296.738 239.201 295.666 238.962C294.595 238.724 293.546 238.41 292.52 238.024C291.491 237.638 290.496 237.182 289.534 236.654C288.569 236.128 287.649 235.535 286.768 234.88C285.888 234.223 285.06 233.507 284.28 232.734L267.847 216.265C255.61 204.14 236.325 195.431 217.59 188.188C206.162 183.528 194.437 179.816 182.413 177.046C142.071 168.589 122.189 164.316 119.537 176.771C116.353 191.852 130.847 238.293 141.784 257.759C154.753 280.824 173.172 295.9 193.663 300.242C234.57 308.943 265.789 290.042 276.634 264.833C277.192 264.562 277.759 264.314 278.337 264.088C278.915 263.862 279.501 263.659 280.093 263.478C280.686 263.301 281.287 263.144 281.893 263.013C282.499 262.881 283.11 262.774 283.723 262.691C284.338 262.608 284.955 262.549 285.574 262.516C286.195 262.482 286.814 262.473 287.434 262.489C288.054 262.505 288.672 262.545 289.288 262.61C289.906 262.675 290.518 262.765 291.129 262.879C291.738 262.994 292.341 263.13 292.941 263.293C293.539 263.456 294.13 263.64 294.714 263.849C295.298 264.059 295.872 264.292 296.439 264.548C297.003 264.802 297.559 265.079 298.103 265.378C298.645 265.678 299.175 265.998 299.694 266.341C300.211 266.681 300.715 267.043 301.204 267.425C301.694 267.807 302.166 268.208 302.624 268.627C303.08 269.047 303.521 269.483 303.944 269.939C303.33 297.569 324.397 327.868 365.548 336.563C386.042 340.906 408.947 334.451 430.132 318.693C447.994 305.307 479.966 268.672 483.152 253.612C485.789 241.075 465.819 236.983 425.598 228.504Z" fill="#A361B4"/>
</g>
</g>
</g>
</g>
<mask id="mask12_507_26" style="mask-type:luminance" maskUnits="userSpaceOnUse" x="115" y="163" width="166" height="152">
<path d="M164.7 163.68L280.512 237.126L231.547 314.335L115.735 240.888L164.7 163.68Z" fill="white"/>
</mask>
<g mask="url(#mask12_507_26)">
<mask id="mask13_507_26" style="mask-type:luminance" maskUnits="userSpaceOnUse" x="87" y="99" width="416" height="302">
<path d="M87.5344 170.879L458.659 99.7819L502.692 329.63L131.565 400.728L87.5344 170.879Z" fill="white"/>
</mask>
<g mask="url(#mask13_507_26)">
<mask id="mask14_507_26" style="mask-type:luminance" maskUnits="userSpaceOnUse" x="87" y="99" width="416" height="302">
<path d="M87.5344 170.879L458.659 99.7819L502.692 329.63L131.565 400.728L87.5344 170.879Z" fill="white"/>
</mask>
<g mask="url(#mask14_507_26)">
<mask id="mask15_507_26" style="mask-type:luminance" maskUnits="userSpaceOnUse" x="87" y="99" width="416" height="302">
<path d="M87.5344 170.879L458.659 99.7819L502.692 329.63L131.565 400.728L87.5344 170.879Z" fill="white"/>
</mask>
<g mask="url(#mask15_507_26)">
<path d="M267.322 252.561C262.366 276.166 234.004 295.863 196.285 287.834C158.564 279.805 136.415 227.139 141.49 203.511C146.567 179.882 177.079 185.964 213.096 199.985C252.543 215.516 272.34 228.945 267.322 252.561Z" fill="black"/>
</g>
</g>
</g>
</g>
<mask id="mask16_507_26" style="mask-type:luminance" maskUnits="userSpaceOnUse" x="299" y="194" width="163" height="159">
<path d="M358.378 194.134L461.602 259.597L402.791 352.331L299.567 286.867L358.378 194.134Z" fill="white"/>
</mask>
<g mask="url(#mask16_507_26)">
<mask id="mask17_507_26" style="mask-type:luminance" maskUnits="userSpaceOnUse" x="87" y="99" width="416" height="302">
<path d="M87.5344 170.879L458.659 99.7824L502.692 329.631L131.565 400.728L87.5344 170.879Z" fill="white"/>
</mask>
<g mask="url(#mask17_507_26)">
<mask id="mask18_507_26" style="mask-type:luminance" maskUnits="userSpaceOnUse" x="87" y="99" width="416" height="302">
<path d="M87.5344 170.879L458.659 99.7824L502.692 329.631L131.565 400.728L87.5344 170.879Z" fill="white"/>
</mask>
<g mask="url(#mask18_507_26)">
<mask id="mask19_507_26" style="mask-type:luminance" maskUnits="userSpaceOnUse" x="87" y="99" width="416" height="302">
<path d="M87.5344 170.879L458.659 99.7824L502.692 329.631L131.565 400.728L87.5344 170.879Z" fill="white"/>
</mask>
<g mask="url(#mask19_507_26)">
<path d="M317.384 263.126C312.421 286.814 330.42 316.193 368.15 324.159C405.878 332.123 447.403 292.852 452.38 269.242C457.358 245.633 426.888 238.798 388.397 237.097C345.814 235.167 322.341 239.52 317.384 263.126Z" fill="black"/>
</g>
</g>
</g>
</g>
</g>
<defs>
<clipPath id="clip0_507_26">
<rect width="402.471" height="402.471" fill="white" transform="translate(215.55) rotate(32.3824)"/>
</clipPath>
</defs>
</svg>
