<svg width="123" height="123" viewBox="0 0 123 123" fill="none" xmlns="http://www.w3.org/2000/svg">
<path d="M51.9852 13.6663C48.3615 -4.55544 74.6385 -4.55544 71.0148 13.6663C74.6385 -4.55544 98.918 5.50157 88.5949 20.9502C98.9164 5.50157 117.498 24.0833 102.051 34.4063C117.5 24.0849 127.555 48.3609 109.334 51.9861C127.555 48.3609 127.555 74.6391 109.334 71.0139C127.555 74.6391 117.5 98.9183 102.051 88.5937C117.5 98.9151 98.918 117.497 88.5949 102.051C98.9164 117.498 74.6385 127.555 71.0148 109.334C74.6385 127.555 48.3615 127.555 51.9852 109.334C48.3615 127.555 24.082 117.498 34.4052 102.051C24.0836 117.498 5.50164 98.9183 20.9489 88.5937C5.50005 98.9151 -4.5555 74.6391 13.6665 71.0139C-4.5555 74.6391 -4.5555 48.3609 13.6665 51.9861C-4.5555 48.3609 5.50005 24.0833 20.9489 34.4063C5.50005 24.0849 24.082 5.50316 34.4052 20.9502C24.0836 5.50157 48.3615 -4.55544 51.9852 13.6663Z" fill="#EE701E"/>
</svg>
