<svg width="172" height="409" viewBox="0 0 172 409" fill="none" xmlns="http://www.w3.org/2000/svg">
<mask id="mask0_152_247" style="mask-type:luminance" maskUnits="userSpaceOnUse" x="88" y="79" width="277" height="298">
<path d="M88.0449 283.598L215.364 79.7102L364.358 172.751L237.04 376.638L88.0449 283.598Z" fill="white"/>
</mask>
<g mask="url(#mask0_152_247)">
<mask id="mask1_152_247" style="mask-type:luminance" maskUnits="userSpaceOnUse" x="65" y="101" width="311" height="197">
<path d="M65.3738 157.813L348.046 101.68L375.709 240.976L93.0349 297.112L65.3738 157.813Z" fill="white"/>
</mask>
<g mask="url(#mask1_152_247)">
<mask id="mask2_152_247" style="mask-type:luminance" maskUnits="userSpaceOnUse" x="65" y="101" width="311" height="197">
<path d="M65.3738 157.813L348.046 101.68L375.709 240.976L93.0349 297.112L65.3738 157.813Z" fill="white"/>
</mask>
<g mask="url(#mask2_152_247)">
<mask id="mask3_152_247" style="mask-type:luminance" maskUnits="userSpaceOnUse" x="65" y="101" width="311" height="197">
<path d="M65.3738 157.813L348.046 101.68L375.709 240.976L93.0349 297.112L65.3738 157.813Z" fill="white"/>
</mask>
<g mask="url(#mask3_152_247)">
<path d="M116.297 292.397L93.3587 286.598C101.464 254.541 117.776 240.044 130.054 233.521C144.713 225.742 162.09 224.812 178.944 230.925C192.896 235.998 203.064 237.327 210.006 235.012C214.226 233.628 220.482 230.066 226.195 215.292C231.556 201.43 239.784 191.478 250.642 185.75C263.87 178.755 280.77 178.14 300.871 183.914C328.548 191.86 332.94 181.166 340.208 163.377L362.099 172.354C356.757 185.402 348.8 204.826 326.51 209.253C318.062 210.93 307.555 210.458 294.351 206.662C263.063 197.679 253.471 210.312 248.259 223.841C239.522 246.431 226.358 256.008 212.268 258.807C198.177 261.606 183.297 257.657 170.889 253.145C160.234 249.289 149.95 249.722 141.147 254.396C129.613 260.559 121.016 273.686 116.297 292.397Z" fill="#283977"/>
</g>
</g>
</g>
</g>
<mask id="mask4_152_247" style="mask-type:luminance" maskUnits="userSpaceOnUse" x="43" y="32" width="277" height="298">
<path d="M43.2764 236.035L170.595 32.1477L319.59 125.188L192.271 329.076L43.2764 236.035Z" fill="white"/>
</mask>
<g mask="url(#mask4_152_247)">
<mask id="mask5_152_247" style="mask-type:luminance" maskUnits="userSpaceOnUse" x="20" y="54" width="311" height="196">
<path d="M20.6053 110.25L303.277 54.1173L330.94 193.413L48.2663 249.549L20.6053 110.25Z" fill="white"/>
</mask>
<g mask="url(#mask5_152_247)">
<mask id="mask6_152_247" style="mask-type:luminance" maskUnits="userSpaceOnUse" x="20" y="54" width="311" height="196">
<path d="M20.6053 110.25L303.277 54.1173L330.94 193.413L48.2663 249.549L20.6053 110.25Z" fill="white"/>
</mask>
<g mask="url(#mask6_152_247)">
<mask id="mask7_152_247" style="mask-type:luminance" maskUnits="userSpaceOnUse" x="20" y="54" width="311" height="196">
<path d="M20.6053 110.25L303.277 54.1173L330.94 193.413L48.2663 249.549L20.6053 110.25Z" fill="white"/>
</mask>
<g mask="url(#mask7_152_247)">
<path d="M71.528 244.834L48.5902 239.034C56.6955 206.977 73.007 192.481 85.2853 185.957C99.9442 178.178 117.321 177.249 134.175 183.362C148.128 188.434 158.295 189.764 165.238 187.448C169.457 186.064 175.713 182.503 181.427 167.728C186.787 153.866 195.015 143.915 205.873 138.186C219.102 131.191 236.001 130.576 256.102 136.351C283.78 144.297 288.172 133.602 295.44 115.813L317.33 124.791C311.988 137.838 304.031 157.262 281.741 161.689C273.293 163.367 262.787 162.895 249.583 159.098C218.295 150.115 208.703 162.749 203.49 176.278C194.753 198.867 181.59 208.444 167.499 211.243C153.408 214.042 138.528 210.094 126.12 205.581C115.466 201.725 105.181 202.158 96.3781 206.832C84.8446 212.995 76.2472 226.122 71.528 244.834Z" fill="#A361B4"/>
</g>
</g>
</g>
</g>
</svg>
