<svg width="136" height="313" viewBox="0 0 136 313" fill="none" xmlns="http://www.w3.org/2000/svg">
<mask id="mask0_152_391" style="mask-type:luminance" maskUnits="userSpaceOnUse" x="3" y="70" width="287" height="240">
<path d="M3.15332 133.534L243.394 70.6992L289.311 246.259L49.0712 309.094L3.15332 133.534Z" fill="white"/>
</mask>
<g mask="url(#mask0_152_391)">
<mask id="mask1_152_391" style="mask-type:luminance" maskUnits="userSpaceOnUse" x="-3" y="22" width="331" height="284">
<path d="M75.3413 22.9781L327.468 181.308L249.447 305.553L-2.68348 147.224L75.3413 22.9781Z" fill="white"/>
</mask>
<g mask="url(#mask1_152_391)">
<mask id="mask2_152_391" style="mask-type:luminance" maskUnits="userSpaceOnUse" x="-3" y="22" width="331" height="284">
<path d="M75.3413 22.9781L327.468 181.308L249.447 305.553L-2.68348 147.224L75.3413 22.9781Z" fill="white"/>
</mask>
<g mask="url(#mask2_152_391)">
<mask id="mask3_152_391" style="mask-type:luminance" maskUnits="userSpaceOnUse" x="-3" y="22" width="331" height="284">
<path d="M75.3413 22.9781L327.468 181.308L249.447 305.553L-2.68348 147.224L75.3413 22.9781Z" fill="white"/>
</mask>
<g mask="url(#mask3_152_391)">
<path d="M18.1323 160.182L5.01742 139.556C33.8426 121.227 56.3757 121.909 70.2249 125.717C86.7526 130.272 100.464 141.899 108.787 158.444C115.669 172.15 122.362 180.36 129.219 183.545C133.37 185.498 140.595 187.261 155.365 180.216C169.224 173.607 182.462 171.968 194.681 175.367C209.578 179.495 222.707 191.02 233.709 209.614C248.862 235.213 259.746 230.296 277.822 222.089L287.896 244.358C274.629 250.37 254.877 259.315 234.994 246.83C227.46 242.099 219.903 234.292 212.678 222.075C195.549 193.137 179.384 195.822 165.874 202.287C143.289 213.057 126.609 210.914 114.041 203.022C101.472 195.13 93.0961 181.61 86.9771 169.42C81.7094 158.967 73.6779 151.997 63.7505 149.264C50.7166 145.713 34.9488 149.474 18.1323 160.182Z" fill="#283977"/>
</g>
</g>
</g>
</g>
<mask id="mask4_152_391" style="mask-type:luminance" maskUnits="userSpaceOnUse" x="3" y="3" width="287" height="239">
<path d="M3.2627 66.0576L243.503 3.22264L289.421 178.783L49.1806 241.618L3.2627 66.0576Z" fill="white"/>
</mask>
<g mask="url(#mask4_152_391)">
<mask id="mask5_152_391" style="mask-type:luminance" maskUnits="userSpaceOnUse" x="-3" y="-45" width="331" height="284">
<path d="M75.4507 -44.4984L327.578 113.832L249.556 238.077L-2.57411 79.7474L75.4507 -44.4984Z" fill="white"/>
</mask>
<g mask="url(#mask5_152_391)">
<mask id="mask6_152_391" style="mask-type:luminance" maskUnits="userSpaceOnUse" x="-3" y="-45" width="331" height="284">
<path d="M75.4507 -44.4984L327.578 113.832L249.556 238.077L-2.57411 79.7474L75.4507 -44.4984Z" fill="white"/>
</mask>
<g mask="url(#mask6_152_391)">
<mask id="mask7_152_391" style="mask-type:luminance" maskUnits="userSpaceOnUse" x="-3" y="-45" width="331" height="284">
<path d="M75.4507 -44.4984L327.578 113.832L249.556 238.077L-2.57411 79.7474L75.4507 -44.4984Z" fill="white"/>
</mask>
<g mask="url(#mask7_152_391)">
<path d="M18.2417 92.7051L5.1268 72.0798C33.952 53.7506 56.4851 54.432 70.3343 58.2408C86.862 62.7952 100.573 74.4221 108.896 90.9676C115.778 104.674 122.472 112.884 129.328 116.069C133.48 118.022 140.704 119.784 155.475 112.739C169.333 106.13 182.571 104.492 194.79 107.89C209.687 112.019 222.816 123.543 233.819 142.137C248.971 167.737 259.855 162.819 277.932 154.613L288.006 176.882C274.739 182.893 254.986 191.839 235.104 179.354C227.569 174.622 220.012 166.815 212.787 154.599C195.659 125.66 179.494 128.346 165.983 134.81C143.398 145.58 126.719 143.437 114.15 135.545C101.581 127.653 93.2054 114.133 87.0864 101.943C81.8188 91.4901 73.7873 84.5207 63.8598 81.7879C50.826 78.2363 35.0581 81.9979 18.2417 92.7051Z" fill="#A361B4"/>
</g>
</g>
</g>
</g>
</svg>
