<svg version="1.2" xmlns="http://www.w3.org/2000/svg" viewBox="0 0 1740 634" width="1740" height="634"><defs><clipPath clipPathUnits="userSpaceOnUse" id="cp1"><path d="m-75.72 377.82l306.52-248.78 181.8 223.99-306.52 248.79z"/></clipPath><clipPath clipPathUnits="userSpaceOnUse" id="cp2"><path d="m-43.84 170.34l469.01 63.59-31.33 231.13-469.02-63.59z"/></clipPath><clipPath clipPathUnits="userSpaceOnUse" id="cp3"><path d="m-43.84 170.34l469.01 63.59-31.33 231.13-469.02-63.59z"/></clipPath><clipPath clipPathUnits="userSpaceOnUse" id="cp4"><path d="m-43.84 170.34l469.01 63.59-31.33 231.13-469.02-63.59z"/></clipPath><clipPath clipPathUnits="userSpaceOnUse" id="cp5"><path d="m-119.89 280.06l306.52-248.78 181.8 223.99-306.52 248.79z"/></clipPath><clipPath clipPathUnits="userSpaceOnUse" id="cp6"><path d="m-88.01 72.59l469.01 63.59-31.33 231.12-469.02-63.59z"/></clipPath><clipPath clipPathUnits="userSpaceOnUse" id="cp7"><path d="m-88.01 72.59l469.01 63.59-31.33 231.12-469.02-63.59z"/></clipPath><clipPath clipPathUnits="userSpaceOnUse" id="cp8"><path d="m-88.01 72.59l469.01 63.59-31.33 231.12-469.02-63.59z"/></clipPath><clipPath clipPathUnits="userSpaceOnUse" id="cp9"><path d="m1822.85 258.37l-313.88 239.44-174.97-229.37 313.88-239.44z"/></clipPath><clipPath clipPathUnits="userSpaceOnUse" id="cp10"><path d="m1784.73 464.79l-466.88-77.69 38.28-230.08 466.89 77.69z"/></clipPath><clipPath clipPathUnits="userSpaceOnUse" id="cp11"><path d="m1784.73 464.79l-466.88-77.69 38.28-230.08 466.89 77.69z"/></clipPath><clipPath clipPathUnits="userSpaceOnUse" id="cp12"><path d="m1784.73 464.79l-466.88-77.69 38.28-230.08 466.89 77.69z"/></clipPath><clipPath clipPathUnits="userSpaceOnUse" id="cp13"><path d="m1864.05 357.41l-313.88 239.44-174.97-229.37 313.88-239.44z"/></clipPath><clipPath clipPathUnits="userSpaceOnUse" id="cp14"><path d="m1825.93 563.83l-466.88-77.69 38.28-230.07 466.89 77.68z"/></clipPath><clipPath clipPathUnits="userSpaceOnUse" id="cp15"><path d="m1825.93 563.83l-466.88-77.69 38.28-230.07 466.89 77.68z"/></clipPath><clipPath clipPathUnits="userSpaceOnUse" id="cp16"><path d="m1825.93 563.83l-466.88-77.69 38.28-230.07 466.89 77.68z"/></clipPath></defs><style>.a{fill:#283977}.b{fill:#ffd3eb}</style><g clip-path="url(#cp1)"><g clip-path="url(#cp2)"><g clip-path="url(#cp3)"><g clip-path="url(#cp4)"><path class="a" d="m-36.5 406.6l-32.6-21.3c29.7-45.5 62.8-59.3 85.3-62.9 27-4.2 54.4 3.6 77.4 22.1 18.9 15.3 34 22.8 46 22.9 7.3 0.1 18.9-2.1 35.7-22 15.7-18.7 33.8-29.7 53.7-32.8 24.3-3.8 50.9 4.2 79 23.9 38.8 27.1 51.3 12.8 72.1-10.9l29.2 25.6c-15.3 17.4-38 43.4-75 38.3-14-1.9-30-8.2-48.5-21.1-43.8-30.7-65.5-16.2-80.8 2.1-25.6 30.4-51.2 38.2-74.5 35.1-23.4-3.2-44.4-17.3-61.3-30.9-14.5-11.7-30.7-16.5-46.9-13.9-21.2 3.4-41.5 19.2-58.8 45.8z"/></g></g></g></g><g clip-path="url(#cp5)"><g clip-path="url(#cp6)"><g clip-path="url(#cp7)"><g clip-path="url(#cp8)"><path class="b" d="m-80.7 308.8l-32.5-21.2c29.7-45.5 62.7-59.3 85.3-62.9 26.9-4.3 54.4 3.5 77.3 22 19 15.4 34 22.8 46.1 22.9 7.3 0.1 18.9-2 35.6-21.9 15.8-18.7 33.8-29.8 53.8-32.9 24.2-3.8 50.8 4.3 79 23.9 38.7 27.2 51.2 12.9 72-10.9l29.2 25.7c-15.2 17.4-37.9 43.3-74.9 38.3-14-1.9-30.1-8.3-48.6-21.2-43.8-30.6-65.4-16.1-80.8 2.1-25.6 30.4-51.1 38.3-74.5 35.1-23.4-3.2-44.4-17.2-61.3-30.9-14.5-11.6-30.7-16.4-46.8-13.9-21.2 3.4-41.6 19.3-58.9 45.8z"/></g></g></g></g><g clip-path="url(#cp9)"><g clip-path="url(#cp10)"><g clip-path="url(#cp11)"><g clip-path="url(#cp12)"><path class="a" d="m1784.5 228.5l31.9 22.2c-31 44.5-64.5 57.3-87.1 60.2-27.1 3.5-54.3-5.1-76.7-24.3-18.5-15.9-33.3-23.8-45.3-24.3-7.3-0.3-19 1.5-36.3 20.9-16.3 18.2-34.7 28.7-54.7 31.2-24.4 3.1-50.7-5.8-78.3-26.3-37.9-28.3-50.8-14.4-72.3 8.7l-28.5-26.4c15.8-17 39.3-42.2 76.1-36.1 14 2.3 29.9 9.1 47.9 22.6 42.9 32 65 18.1 80.8 0.4 26.5-29.7 52.3-36.8 75.6-32.9 23.3 3.9 43.9 18.6 60.3 32.7 14.1 12.1 30.2 17.4 46.4 15.3 21.3-2.7 42.1-17.9 60.2-43.9z"/></g></g></g></g><g clip-path="url(#cp13)"><g clip-path="url(#cp14)"><g clip-path="url(#cp15)"><g clip-path="url(#cp16)"><path class="b" d="m1825.7 327.5l31.9 22.2c-31 44.6-64.5 57.4-87.1 60.3-27.1 3.4-54.3-5.2-76.7-24.4-18.5-15.9-33.3-23.8-45.3-24.3-7.3-0.3-19 1.6-36.3 20.9-16.3 18.2-34.7 28.8-54.7 31.3-24.4 3-50.7-5.8-78.3-26.4-37.9-28.2-50.9-14.3-72.3 8.8l-28.5-26.5c15.8-17 39.3-42.2 76.1-36.1 14 2.4 29.8 9.2 47.9 22.7 42.9 31.9 65 18.1 80.8 0.3 26.5-29.6 52.3-36.7 75.6-32.8 23.3 3.8 43.9 18.5 60.3 32.7 14.1 12.1 30.2 17.4 46.4 15.3 21.3-2.8 42.1-18 60.2-44z"/></g></g></g></g></svg>