<svg width="278" height="487" viewBox="0 0 278 487" fill="none" xmlns="http://www.w3.org/2000/svg">
<mask id="mask0_152_212" style="mask-type:luminance" maskUnits="userSpaceOnUse" x="-161" y="30" width="356" height="359">
<path d="M194.857 176.111L-5.03335 388.946L-160.566 242.872L39.3245 30.0373L194.857 176.111Z" fill="white"/>
</mask>
<g mask="url(#mask0_152_212)">
<mask id="mask1_152_212" style="mask-type:luminance" maskUnits="userSpaceOnUse" x="-158" y="158" width="351" height="174">
<path d="M192.138 331.341L-157.929 331.408L-157.964 158.901L192.106 158.831L192.138 331.341Z" fill="white"/>
</mask>
<g mask="url(#mask1_152_212)">
<mask id="mask2_152_212" style="mask-type:luminance" maskUnits="userSpaceOnUse" x="-158" y="158" width="351" height="174">
<path d="M192.138 331.341L-157.929 331.408L-157.964 158.901L192.106 158.831L192.138 331.341Z" fill="white"/>
</mask>
<g mask="url(#mask2_152_212)">
<mask id="mask3_152_212" style="mask-type:luminance" maskUnits="userSpaceOnUse" x="-158" y="158" width="351" height="174">
<path d="M192.138 331.341L-157.929 331.408L-157.964 158.901L192.106 158.831L192.138 331.341Z" fill="white"/>
</mask>
<g mask="url(#mask3_152_212)">
<path d="M163.276 158.95L189.235 171.283C172.001 207.562 149.139 220.979 132.968 225.849C113.663 231.653 92.7388 228.653 74.103 217.386C58.6776 208.044 46.8774 204.057 38.0583 205.174C32.7036 205.826 24.4079 208.591 14.1083 224.844C4.44444 240.093 -7.71127 250.005 -22.0025 254.265C-39.4171 259.472 -59.6981 256.21 -82.2835 244.579C-113.383 228.569 -121.143 240.274 -134.008 259.751L-157.968 243.88C-148.519 229.597 -134.447 208.334 -106.842 208.328C-96.3805 208.326 -83.9736 211.373 -69.1383 219.017C-33.9828 237.115 -19.5679 224.33 -10.1596 209.442C5.59005 184.593 23.5377 176.293 40.9883 176.289C58.4388 176.284 75.235 184.506 88.9521 192.815C100.736 199.928 113.091 201.844 124.685 198.355C139.884 193.738 153.23 180.13 163.276 158.95Z" fill="#283977"/>
</g>
</g>
</g>
</g>
<mask id="mask4_152_212" style="mask-type:luminance" maskUnits="userSpaceOnUse" x="-119" y="97" width="356" height="360">
<path d="M236.956 243.362L37.0653 456.197L-118.468 310.123L81.4232 97.2883L236.956 243.362Z" fill="white"/>
</mask>
<g mask="url(#mask4_152_212)">
<mask id="mask5_152_212" style="mask-type:luminance" maskUnits="userSpaceOnUse" x="-116" y="226" width="351" height="173">
<path d="M234.236 398.592L-115.831 398.659L-115.866 226.152L234.204 226.082L234.236 398.592Z" fill="white"/>
</mask>
<g mask="url(#mask5_152_212)">
<mask id="mask6_152_212" style="mask-type:luminance" maskUnits="userSpaceOnUse" x="-116" y="226" width="351" height="173">
<path d="M234.236 398.592L-115.831 398.659L-115.866 226.152L234.204 226.082L234.236 398.592Z" fill="white"/>
</mask>
<g mask="url(#mask6_152_212)">
<mask id="mask7_152_212" style="mask-type:luminance" maskUnits="userSpaceOnUse" x="-116" y="226" width="351" height="173">
<path d="M234.236 398.592L-115.831 398.659L-115.866 226.152L234.204 226.082L234.236 398.592Z" fill="white"/>
</mask>
<g mask="url(#mask7_152_212)">
<path d="M205.374 226.201L231.333 238.533C214.098 274.813 191.237 288.23 175.065 293.1C155.761 298.904 134.836 295.904 116.201 284.637C100.775 275.295 88.9751 271.308 80.156 272.425C74.8012 273.077 66.5055 275.842 56.2059 292.095C46.5421 307.344 34.3864 317.256 20.0951 321.516C2.68051 326.723 -17.6004 323.461 -40.1859 311.83C-71.2849 295.82 -79.0458 307.525 -91.9101 327.002L-115.87 311.131C-106.421 296.848 -92.3495 275.585 -64.7445 275.579C-54.2829 275.577 -41.8759 278.624 -27.0407 286.268C8.11488 304.366 22.5298 291.581 31.9381 276.693C47.6877 251.844 65.6354 243.544 83.0859 243.54C100.536 243.535 117.333 251.757 131.05 260.066C142.833 267.179 155.189 269.095 166.783 265.606C181.981 260.989 195.328 247.381 205.374 226.201Z" fill="#FFD3EB"/>
</g>
</g>
</g>
</g>
</svg>
