<svg width="317" height="466" viewBox="0 0 317 466" fill="none" xmlns="http://www.w3.org/2000/svg">
<mask id="mask0_152_356" style="mask-type:luminance" maskUnits="userSpaceOnUse" x="-56" y="92" width="330" height="341">
<path d="M-55.877 307.891L115.287 92.034L273.028 217.115L101.864 432.972L-55.877 307.891Z" fill="white"/>
</mask>
<g mask="url(#mask0_152_356)">
<mask id="mask1_152_356" style="mask-type:luminance" maskUnits="userSpaceOnUse" x="-66" y="134" width="344" height="190">
<path d="M-65.5527 161.73L263.572 134.082L277.199 296.269L-51.9286 323.921L-65.5527 161.73Z" fill="white"/>
</mask>
<g mask="url(#mask1_152_356)">
<mask id="mask2_152_356" style="mask-type:luminance" maskUnits="userSpaceOnUse" x="-66" y="134" width="344" height="190">
<path d="M-65.5527 161.73L263.572 134.082L277.199 296.269L-51.9286 323.921L-65.5527 161.73Z" fill="white"/>
</mask>
<g mask="url(#mask2_152_356)">
<mask id="mask3_152_356" style="mask-type:luminance" maskUnits="userSpaceOnUse" x="-66" y="134" width="344" height="190">
<path d="M-65.5527 161.73L263.572 134.082L277.199 296.269L-51.9286 323.921L-65.5527 161.73Z" fill="white"/>
</mask>
<g mask="url(#mask3_152_356)">
<path d="M-24.8318 321.537L-50.2102 311.988C-36.8653 276.52 -16.4285 262.104 -1.60808 256.251C16.0845 249.273 35.9939 250.444 54.403 259.569C69.6419 267.137 81.0506 269.956 89.2541 268.21C94.2372 267.175 101.819 263.922 110.222 247.829C118.106 232.731 128.754 222.454 141.854 217.323C157.817 211.055 177.142 212.523 199.293 221.679C229.794 234.28 236.168 222.664 246.728 203.338L270.506 216.372C262.748 230.546 251.193 251.645 225.24 253.826C215.404 254.653 203.499 252.766 188.949 246.748C154.47 232.503 141.924 245.659 134.252 260.397C121.402 285.002 105.182 294.22 88.7756 295.599C72.3691 296.978 55.9296 290.571 42.3781 283.84C30.739 278.081 18.9711 277.254 8.34575 281.448C-5.5801 286.986 -17.0559 300.832 -24.8318 321.537Z" fill="#283977"/>
</g>
</g>
</g>
</g>
<mask id="mask4_152_356" style="mask-type:luminance" maskUnits="userSpaceOnUse" x="-101" y="32" width="330" height="342">
<path d="M-100.758 247.979L70.406 32.1228L228.147 157.204L56.9836 373.061L-100.758 247.979Z" fill="white"/>
</mask>
<g mask="url(#mask4_152_356)">
<mask id="mask5_152_356" style="mask-type:luminance" maskUnits="userSpaceOnUse" x="-111" y="74" width="344" height="191">
<path d="M-110.434 101.819L218.691 74.1705L232.318 236.358L-96.8094 264.009L-110.434 101.819Z" fill="white"/>
</mask>
<g mask="url(#mask5_152_356)">
<mask id="mask6_152_356" style="mask-type:luminance" maskUnits="userSpaceOnUse" x="-111" y="74" width="344" height="191">
<path d="M-110.434 101.819L218.691 74.1705L232.318 236.358L-96.8094 264.009L-110.434 101.819Z" fill="white"/>
</mask>
<g mask="url(#mask6_152_356)">
<mask id="mask7_152_356" style="mask-type:luminance" maskUnits="userSpaceOnUse" x="-111" y="74" width="344" height="191">
<path d="M-110.434 101.819L218.691 74.1705L232.318 236.358L-96.8094 264.009L-110.434 101.819Z" fill="white"/>
</mask>
<g mask="url(#mask7_152_356)">
<path d="M-69.7127 261.625L-95.0911 252.076C-81.7461 216.608 -61.3093 202.193 -46.4889 196.339C-28.7963 189.362 -8.88699 190.533 9.52211 199.658C24.7611 207.226 36.1697 210.044 44.3733 208.299C49.3564 207.264 56.9381 204.011 65.3409 187.918C73.2251 172.819 83.8727 162.542 96.9735 157.412C112.936 151.143 132.261 152.612 154.412 161.768C184.913 174.369 191.287 162.753 201.847 143.427L225.625 156.461C217.867 170.635 206.312 191.734 180.359 193.915C170.523 194.742 158.618 192.855 144.068 186.837C109.589 172.591 97.0434 185.748 89.371 200.486C76.5215 225.091 60.3013 234.309 43.8948 235.688C27.4883 237.067 11.0488 230.66 -2.50272 223.929C-14.1419 218.17 -25.9097 217.343 -36.5351 221.537C-50.461 227.075 -61.9367 240.921 -69.7127 261.625Z" fill="#A361B4"/>
</g>
</g>
</g>
</g>
</svg>
