<svg width="271" height="290" viewBox="0 0 271 290" fill="none" xmlns="http://www.w3.org/2000/svg">
<mask id="mask0_169_2620" style="mask-type:luminance" maskUnits="userSpaceOnUse" x="2" y="63" width="269" height="226">
<path d="M2.05273 126.775L223.597 63.1036L270.126 225.001L48.5821 288.673L2.05273 126.775Z" fill="white"/>
</mask>
<g mask="url(#mask0_169_2620)">
<mask id="mask1_169_2620" style="mask-type:luminance" maskUnits="userSpaceOnUse" x="-4" y="22" width="309" height="259">
<path d="M66.5781 22.567L304.088 163.874L234.455 280.916L-3.05785 139.61L66.5781 22.567Z" fill="white"/>
</mask>
<g mask="url(#mask1_169_2620)">
<mask id="mask2_169_2620" style="mask-type:luminance" maskUnits="userSpaceOnUse" x="-4" y="22" width="309" height="259">
<path d="M66.5781 22.567L304.088 163.874L234.455 280.916L-3.05785 139.61L66.5781 22.567Z" fill="white"/>
</mask>
<g mask="url(#mask2_169_2620)">
<mask id="mask3_169_2620" style="mask-type:luminance" maskUnits="userSpaceOnUse" x="-4" y="22" width="309" height="259">
<path d="M66.5781 22.567L304.088 163.874L234.455 280.916L-3.05785 139.61L66.5781 22.567Z" fill="white"/>
</mask>
<g mask="url(#mask3_169_2620)">
<path d="M16.5487 151.17L3.91779 132.322C30.259 114.669 51.1853 114.799 64.1225 118.024C79.562 121.882 92.5458 132.366 100.638 147.535C107.331 160.101 113.726 167.571 120.16 170.373C124.056 172.093 130.8 173.567 144.35 166.7C157.063 160.257 169.312 158.442 180.727 161.323C194.644 164.822 207.085 175.224 217.71 192.234C232.343 215.652 242.334 210.846 258.926 202.827L268.771 223.268C256.594 229.143 238.462 237.885 219.733 226.743C212.635 222.52 205.448 215.444 198.471 204.268C181.929 177.794 166.988 180.647 154.594 186.948C133.876 197.446 118.349 195.83 106.509 188.786C94.6687 181.743 86.5942 169.383 80.6438 158.207C75.5221 148.624 67.9133 142.335 58.6395 140.021C46.4647 137.016 31.9158 140.858 16.5487 151.17Z" fill="#283977"/>
</g>
</g>
</g>
</g>
<mask id="mask4_169_2620" style="mask-type:luminance" maskUnits="userSpaceOnUse" x="0" y="0" width="269" height="227">
<path d="M0.648438 64.1543L222.193 0.482537L268.722 162.38L47.1778 226.052L0.648438 64.1543Z" fill="white"/>
</mask>
<g mask="url(#mask4_169_2620)">
<mask id="mask5_169_2620" style="mask-type:luminance" maskUnits="userSpaceOnUse" x="-5" y="-41" width="308" height="260">
<path d="M65.1738 -40.0541L302.684 101.253L233.051 218.295L-4.46215 76.9886L65.1738 -40.0541Z" fill="white"/>
</mask>
<g mask="url(#mask5_169_2620)">
<mask id="mask6_169_2620" style="mask-type:luminance" maskUnits="userSpaceOnUse" x="-5" y="-41" width="308" height="260">
<path d="M65.1738 -40.0541L302.684 101.253L233.051 218.295L-4.46215 76.9886L65.1738 -40.0541Z" fill="white"/>
</mask>
<g mask="url(#mask6_169_2620)">
<mask id="mask7_169_2620" style="mask-type:luminance" maskUnits="userSpaceOnUse" x="-5" y="-41" width="308" height="260">
<path d="M65.1738 -40.0541L302.684 101.253L233.051 218.295L-4.46215 76.9886L65.1738 -40.0541Z" fill="white"/>
</mask>
<g mask="url(#mask7_169_2620)">
<path d="M15.1444 88.5489L2.51349 69.7009C28.8547 52.0481 49.781 52.1777 62.7182 55.4033C78.1577 59.2611 91.1415 69.7451 99.2341 84.9138C105.926 97.4798 112.322 104.949 118.756 107.752C122.652 109.472 129.396 110.946 142.946 104.079C155.659 97.6364 167.908 95.8206 179.323 98.7018C193.239 102.201 205.681 112.603 216.306 129.613C230.939 153.031 240.93 148.225 257.521 140.206L267.367 160.647C255.19 166.522 237.058 175.264 218.329 164.122C211.231 159.899 204.044 152.823 197.066 141.647C180.525 115.173 165.584 118.026 153.19 124.327C132.471 134.825 116.944 133.209 105.104 126.165C93.2644 119.122 85.1899 106.762 79.2395 95.5862C74.1178 86.0029 66.509 79.7144 57.2352 77.3997C45.0604 74.3946 30.5115 78.2372 15.1444 88.5489Z" fill="#A361B4"/>
</g>
</g>
</g>
</g>
</svg>
