<svg width="272" height="320" viewBox="0 0 272 320" fill="none" xmlns="http://www.w3.org/2000/svg">
<mask id="mask0_152_282" style="mask-type:luminance" maskUnits="userSpaceOnUse" x="0" y="0" width="298" height="250">
<path d="M297.016 180.055L50.9843 249.338L0.354418 69.5457L246.386 0.262624L297.016 180.055Z" fill="white"/>
</mask>
<g mask="url(#mask0_152_282)">
<mask id="mask1_152_282" style="mask-type:luminance" maskUnits="userSpaceOnUse" x="-38" y="7" width="341" height="289">
<path d="M224.85 295.219L-37.6653 137.122L40.2407 7.75843L302.759 165.854L224.85 295.219Z" fill="white"/>
</mask>
<g mask="url(#mask1_152_282)">
<mask id="mask2_152_282" style="mask-type:luminance" maskUnits="userSpaceOnUse" x="-38" y="7" width="341" height="289">
<path d="M224.85 295.219L-37.6653 137.122L40.2407 7.75843L302.759 165.854L224.85 295.219Z" fill="white"/>
</mask>
<g mask="url(#mask2_152_282)">
<mask id="mask3_152_282" style="mask-type:luminance" maskUnits="userSpaceOnUse" x="-38" y="7" width="341" height="289">
<path d="M224.85 295.219L-37.6653 137.122L40.2407 7.75843L302.759 165.854L224.85 295.219Z" fill="white"/>
</mask>
<g mask="url(#mask3_152_282)">
<path d="M281.088 152.918L294.981 173.893C265.669 193.31 242.466 193.042 228.14 189.388C211.044 185.019 196.709 173.317 187.826 156.449C180.48 142.476 173.434 134.155 166.316 131.009C162.006 129.079 154.537 127.404 139.472 134.938C125.337 142.006 111.744 143.947 99.1045 140.684C83.6942 136.722 69.9609 125.114 58.2805 106.19C42.1947 80.1358 31.0879 85.4059 12.6429 94.1986L1.84731 71.4744C15.385 65.0331 35.5415 55.4472 56.2429 67.9135C64.0882 72.6381 72.0148 80.5273 79.6851 92.9609C97.869 122.413 114.453 119.339 128.233 112.426C151.269 100.909 168.476 102.794 181.562 110.674C194.649 118.554 203.529 132.307 210.06 144.734C215.682 155.391 224.082 162.409 234.351 165.031C247.833 168.435 263.987 164.261 281.088 152.918Z" fill="#283977"/>
</g>
</g>
</g>
</g>
<mask id="mask4_152_282" style="mask-type:luminance" maskUnits="userSpaceOnUse" x="1" y="69" width="298" height="250">
<path d="M298.2 249.499L52.1689 318.782L1.53899 138.99L247.57 69.707L298.2 249.499Z" fill="white"/>
</mask>
<g mask="url(#mask4_152_282)">
<mask id="mask5_152_282" style="mask-type:luminance" maskUnits="userSpaceOnUse" x="-37" y="77" width="341" height="288">
<path d="M226.034 364.664L-36.4808 206.567L41.4253 77.2028L303.944 235.299L226.034 364.664Z" fill="white"/>
</mask>
<g mask="url(#mask5_152_282)">
<mask id="mask6_152_282" style="mask-type:luminance" maskUnits="userSpaceOnUse" x="-37" y="77" width="341" height="288">
<path d="M226.034 364.664L-36.4808 206.567L41.4253 77.2028L303.944 235.299L226.034 364.664Z" fill="white"/>
</mask>
<g mask="url(#mask6_152_282)">
<mask id="mask7_152_282" style="mask-type:luminance" maskUnits="userSpaceOnUse" x="-37" y="77" width="341" height="288">
<path d="M226.034 364.664L-36.4808 206.567L41.4253 77.2028L303.944 235.299L226.034 364.664Z" fill="white"/>
</mask>
<g mask="url(#mask7_152_282)">
<path d="M282.273 222.363L296.166 243.337C266.853 262.754 243.651 262.486 229.325 258.832C212.228 254.463 197.894 242.761 189.011 225.893C181.665 211.92 174.618 203.6 167.501 200.454C163.191 198.523 155.722 196.849 140.656 204.382C126.521 211.451 112.929 213.391 100.289 210.129C84.8788 206.166 71.1455 194.558 59.465 175.634C43.3792 149.58 32.2724 154.85 13.8275 163.643L3.03188 140.919C16.5696 134.477 36.7261 124.892 57.4274 137.358C65.2727 142.082 73.1993 149.972 80.8697 162.405C99.0536 191.858 115.638 188.783 129.418 181.871C152.453 170.353 169.66 172.238 182.747 180.118C195.833 187.999 204.713 201.751 211.245 214.179C216.867 224.835 225.266 231.853 235.535 234.475C249.017 237.879 265.172 233.705 282.273 222.363Z" fill="#FFD3EB"/>
</g>
</g>
</g>
</g>
</svg>
